<?xml version="1.0" encoding="utf-8"?>
<!-- Generator: Adobe Illustrator 25.4.1, SVG Export Plug-In . SVG Version: 6.00 Build 0)  -->
<svg version="1.1" id="Layer_1" xmlns="http://www.w3.org/2000/svg" xmlns:xlink="http://www.w3.org/1999/xlink" x="0px" y="0px"
	 viewBox="0 0 425 222.5" style="enable-background:new 0 0 425 222.5;" xml:space="preserve">
<style type="text/css">
	.st0{opacity:0.5;fill:#FF513F;enable-background:new    ;}
	.st1{fill:none;stroke:#000000;stroke-width:0.5;stroke-miterlimit:10;}
	.st2{opacity:0.4;fill:none;stroke:#000000;stroke-width:0.5;stroke-miterlimit:10;enable-background:new    ;}
	.st3{fill:#383838;}
	.st4{fill:#FFFFFF;}
	.st5{opacity:0.5;}
	.st6{enable-background:new    ;}
	.st7{fill:#4D4D4D;}
	.st8{fill:none;stroke:#383838;stroke-width:0.5;stroke-miterlimit:10;}
</style>
<rect x="252.4" y="92.9" class="st0" width="78.1" height="12.3"/>
<g>
	<line class="st1" x1="276.4" y1="105.8" x2="276.4" y2="92.5"/>
	<line class="st2" x1="399.4" y1="100.9" x2="399.4" y2="97.3"/>
	<line class="st2" x1="395.4" y1="100.9" x2="395.4" y2="97.3"/>
	<line class="st2" x1="391.2" y1="100.9" x2="391.2" y2="97.3"/>
	<line class="st2" x1="387.1" y1="100.9" x2="387.1" y2="97.3"/>
	<line class="st2" x1="383.1" y1="100.9" x2="383.1" y2="97.3"/>
	<line class="st2" x1="378.9" y1="100.9" x2="378.9" y2="97.3"/>
	<line class="st2" x1="374.8" y1="100.9" x2="374.8" y2="97.3"/>
	<line class="st2" x1="370.7" y1="100.9" x2="370.7" y2="97.3"/>
	<line class="st2" x1="366.6" y1="100.9" x2="366.6" y2="97.3"/>
	<line class="st2" x1="362.6" y1="100.9" x2="362.6" y2="97.3"/>
	<line class="st2" x1="358.4" y1="100.9" x2="358.4" y2="97.3"/>
	<line class="st2" x1="354.3" y1="100.9" x2="354.3" y2="97.3"/>
	<line class="st2" x1="350.2" y1="100.9" x2="350.2" y2="97.3"/>
	<line class="st2" x1="346.1" y1="100.9" x2="346.1" y2="97.3"/>
	<line class="st2" x1="342" y1="100.9" x2="342" y2="97.3"/>
	<line class="st2" x1="337.9" y1="100.9" x2="337.9" y2="97.3"/>
	<line class="st2" x1="333.9" y1="100.9" x2="333.9" y2="97.3"/>
	<line class="st2" x1="329.7" y1="100.9" x2="329.7" y2="97.3"/>
	<line class="st2" x1="325.6" y1="100.9" x2="325.6" y2="97.3"/>
	<line class="st2" x1="321.5" y1="100.9" x2="321.5" y2="97.3"/>
	<line class="st2" x1="317.4" y1="100.9" x2="317.4" y2="97.3"/>
	<line class="st2" x1="313.4" y1="100.9" x2="313.4" y2="97.3"/>
	<line class="st2" x1="309.2" y1="100.9" x2="309.2" y2="97.3"/>
	<line class="st2" x1="305.1" y1="100.9" x2="305.1" y2="97.3"/>
	<line class="st2" x1="301" y1="100.9" x2="301" y2="97.3"/>
	<line class="st2" x1="296.9" y1="100.9" x2="296.9" y2="97.3"/>
	<line class="st2" x1="292.9" y1="100.9" x2="292.9" y2="97.3"/>
	<line class="st2" x1="288.7" y1="100.9" x2="288.7" y2="97.3"/>
	<line class="st2" x1="284.6" y1="100.9" x2="284.6" y2="97.3"/>
	<line class="st2" x1="280.5" y1="100.9" x2="280.5" y2="97.3"/>
	<line class="st1" x1="149.3" y1="105.8" x2="149.3" y2="92.5"/>
	<line class="st2" x1="272.3" y1="100.9" x2="272.3" y2="97.3"/>
	<line class="st2" x1="268.2" y1="100.9" x2="268.2" y2="97.3"/>
	<line class="st2" x1="264.1" y1="100.9" x2="264.1" y2="97.3"/>
	<line class="st2" x1="260.1" y1="100.9" x2="260.1" y2="97.3"/>
	<line class="st2" x1="255.9" y1="100.9" x2="255.9" y2="97.3"/>
	<line class="st2" x1="251.8" y1="100.9" x2="251.8" y2="97.3"/>
	<line class="st2" x1="247.7" y1="100.9" x2="247.7" y2="97.3"/>
	<line class="st2" x1="243.6" y1="100.9" x2="243.6" y2="97.3"/>
	<line class="st2" x1="239.5" y1="100.9" x2="239.5" y2="97.3"/>
	<line class="st2" x1="235.4" y1="100.9" x2="235.4" y2="97.3"/>
	<line class="st2" x1="231.3" y1="100.9" x2="231.3" y2="97.3"/>
	<line class="st2" x1="227.2" y1="100.9" x2="227.2" y2="97.3"/>
	<line class="st2" x1="223.1" y1="100.9" x2="223.1" y2="97.3"/>
	<line class="st2" x1="219" y1="100.9" x2="219" y2="97.3"/>
	<line class="st2" x1="214.9" y1="100.9" x2="214.9" y2="97.3"/>
	<line class="st2" x1="210.9" y1="100.9" x2="210.9" y2="97.3"/>
	<line class="st2" x1="206.7" y1="100.9" x2="206.7" y2="97.3"/>
	<line class="st2" x1="202.6" y1="100.9" x2="202.6" y2="97.3"/>
	<line class="st2" x1="198.5" y1="100.9" x2="198.5" y2="97.3"/>
	<line class="st2" x1="194.4" y1="100.9" x2="194.4" y2="97.3"/>
	<line class="st2" x1="190.3" y1="100.9" x2="190.3" y2="97.3"/>
	<line class="st2" x1="186.2" y1="100.9" x2="186.2" y2="97.3"/>
	<line class="st2" x1="182.1" y1="100.9" x2="182.1" y2="97.3"/>
	<line class="st2" x1="178" y1="100.9" x2="178" y2="97.3"/>
	<line class="st2" x1="173.9" y1="100.9" x2="173.9" y2="97.3"/>
	<line class="st2" x1="169.8" y1="100.9" x2="169.8" y2="97.3"/>
	<line class="st2" x1="165.7" y1="100.9" x2="165.7" y2="97.3"/>
	<line class="st2" x1="161.6" y1="100.9" x2="161.6" y2="97.3"/>
	<line class="st2" x1="157.5" y1="100.9" x2="157.5" y2="97.3"/>
	<line class="st2" x1="153.3" y1="100.9" x2="153.3" y2="97.3"/>
	<line class="st1" x1="26.3" y1="105.8" x2="26.3" y2="92.5"/>
	<line class="st2" x1="145.2" y1="100.9" x2="145.2" y2="97.3"/>
	<line class="st2" x1="141.1" y1="100.9" x2="141.1" y2="97.3"/>
	<line class="st2" x1="137" y1="100.9" x2="137" y2="97.3"/>
	<line class="st2" x1="132.8" y1="100.9" x2="132.8" y2="97.3"/>
	<line class="st2" x1="128.8" y1="100.9" x2="128.8" y2="97.3"/>
	<line class="st2" x1="124.7" y1="100.9" x2="124.7" y2="97.3"/>
	<line class="st2" x1="120.6" y1="100.9" x2="120.6" y2="97.3"/>
	<line class="st2" x1="116.5" y1="100.9" x2="116.5" y2="97.3"/>
	<line class="st2" x1="112.4" y1="100.9" x2="112.4" y2="97.3"/>
	<line class="st2" x1="108.3" y1="100.9" x2="108.3" y2="97.3"/>
	<line class="st2" x1="104.2" y1="100.9" x2="104.2" y2="97.3"/>
	<line class="st2" x1="100.1" y1="100.9" x2="100.1" y2="97.3"/>
	<line class="st2" x1="96" y1="100.9" x2="96" y2="97.3"/>
	<line class="st2" x1="91.9" y1="100.9" x2="91.9" y2="97.3"/>
	<line class="st2" x1="87.8" y1="100.9" x2="87.8" y2="97.3"/>
	<line class="st2" x1="83.6" y1="100.9" x2="83.6" y2="97.3"/>
	<line class="st2" x1="79.6" y1="100.9" x2="79.6" y2="97.3"/>
	<line class="st2" x1="75.5" y1="100.9" x2="75.5" y2="97.3"/>
	<line class="st2" x1="71.4" y1="100.9" x2="71.4" y2="97.3"/>
	<line class="st2" x1="67.3" y1="100.9" x2="67.3" y2="97.3"/>
	<line class="st2" x1="63.2" y1="100.9" x2="63.2" y2="97.3"/>
	<line class="st2" x1="59.2" y1="100.9" x2="59.2" y2="97.3"/>
	<line class="st2" x1="55" y1="100.9" x2="55" y2="97.3"/>
	<line class="st2" x1="50.8" y1="100.9" x2="50.8" y2="97.3"/>
	<line class="st2" x1="46.8" y1="100.9" x2="46.8" y2="97.3"/>
	<line class="st2" x1="42.7" y1="100.9" x2="42.7" y2="97.3"/>
	<line class="st2" x1="38.7" y1="100.9" x2="38.7" y2="97.3"/>
	<line class="st2" x1="34.5" y1="100.9" x2="34.5" y2="97.3"/>
	<line class="st2" x1="30.3" y1="100.9" x2="30.3" y2="97.3"/>
</g>
<g>
	<ellipse class="st3" cx="252.2" cy="99.1" rx="3.9" ry="3.9"/>
	<path class="st4" d="M252.1,95.8c1.8,0,3.3,1.4,3.3,3.3c0,1.8-1.4,3.3-3.3,3.3c-1.8,0-3.3-1.4-3.3-3.3
		C248.8,97.3,250.4,95.8,252.1,95.8 M252.1,94.6c-2.5,0-4.5,2-4.5,4.5s2,4.5,4.5,4.5s4.5-2,4.5-4.5S254.6,94.6,252.1,94.6
		L252.1,94.6z"/>
</g>
<g>
	<circle class="st3" cx="312.1" cy="99.2" r="3.9"/>
	<path class="st4" d="M312.1,95.8c1.8,0,3.3,1.4,3.3,3.3c0,1.8-1.4,3.3-3.3,3.3c-1.8,0-3.3-1.4-3.3-3.3
		C308.8,97.3,310.3,95.8,312.1,95.8 M312.1,94.6c-2.5,0-4.5,2-4.5,4.5s2,4.5,4.5,4.5s4.5-2,4.5-4.5S314.5,94.6,312.1,94.6
		L312.1,94.6z"/>
</g>
<g>
	<circle class="st3" cx="316.8" cy="99.2" r="3.9"/>
	<path class="st4" d="M316.8,95.8c1.8,0,3.3,1.4,3.3,3.3c0,1.8-1.4,3.3-3.3,3.3c-1.8,0-3.3-1.4-3.3-3.3
		C313.5,97.3,314.9,95.8,316.8,95.8 M316.8,94.6c-2.5,0-4.5,2-4.5,4.5s2,4.5,4.5,4.5s4.5-2,4.5-4.5S319.3,94.6,316.8,94.6
		L316.8,94.6z"/>
</g>
<g>
	<circle class="st3" cx="321.4" cy="99.2" r="3.9"/>
	<path class="st4" d="M321.4,95.8c1.8,0,3.3,1.4,3.3,3.3c0,1.8-1.4,3.3-3.3,3.3c-1.8,0-3.3-1.4-3.3-3.3
		C318.1,97.4,319.6,95.8,321.4,95.8 M321.4,94.6c-2.5,0-4.5,2-4.5,4.5s2,4.5,4.5,4.5s4.5-2,4.5-4.5S323.9,94.6,321.4,94.6
		L321.4,94.6z"/>
</g>
<g>
	<circle class="st3" cx="326" cy="99.2" r="3.9"/>
	<path class="st4" d="M326,95.8c1.8,0,3.3,1.4,3.3,3.3c0,1.8-1.4,3.3-3.3,3.3c-1.8,0-3.3-1.4-3.3-3.3
		C322.7,97.4,324.3,95.8,326,95.8 M326,94.6c-2.5,0-4.5,2-4.5,4.5s2,4.5,4.5,4.5s4.5-2,4.5-4.5S328.5,94.6,326,94.6L326,94.6z"/>
</g>
<g>
	<circle class="st3" cx="330.8" cy="99.2" r="3.9"/>
	<path class="st4" d="M330.8,95.8c1.8,0,3.3,1.4,3.3,3.3c0,1.8-1.4,3.3-3.3,3.3c-1.8,0-3.3-1.4-3.3-3.3
		C327.5,97.4,328.9,95.8,330.8,95.8 M330.8,94.6c-2.5,0-4.5,2-4.5,4.5s2,4.5,4.5,4.5s4.5-2,4.5-4.5S333.2,94.6,330.8,94.6
		L330.8,94.6z"/>
</g>
<g class="st5">
	<g class="st6">
		<path class="st3" d="M72.8,67.5h0.7v6c0,0.8-0.2,1.5-0.7,1.9s-1.1,0.7-1.9,0.7c-0.8,0-1.5-0.2-1.9-0.7s-0.7-1-0.7-1.8h0.7
			c0,0.6,0.2,1.1,0.5,1.4s0.8,0.5,1.4,0.5c0.5,0,1-0.2,1.3-0.5s0.5-0.8,0.5-1.5V67.5z"/>
		<path class="st3" d="M81.6,67.5v5.8c0,0.6-0.1,1.1-0.4,1.5s-0.6,0.8-1.1,1s-1,0.3-1.6,0.3c-0.9,0-1.6-0.2-2.2-0.7s-0.8-1.2-0.8-2
			v-5.9h0.7v5.8c0,0.7,0.2,1.3,0.6,1.7s1,0.6,1.7,0.6s1.3-0.2,1.7-0.6s0.6-1,0.6-1.7v-5.8H81.6z"/>
		<path class="st3" d="M89.9,76h-0.7l-4.9-7.3V76h-0.7v-8.5h0.7l4.9,7.3v-7.3h0.7V76z"/>
		<path class="st3" d="M93,76h-0.7v-8.5H93V76z"/>
		<path class="st3" d="M101.6,72.2c0,0.8-0.1,1.5-0.4,2.1s-0.7,1.1-1.2,1.4s-1.1,0.5-1.7,0.5c-1,0-1.8-0.4-2.4-1.1s-0.9-1.7-0.9-2.9
			v-0.9c0-0.8,0.1-1.5,0.4-2.1s0.7-1.1,1.2-1.4s1.1-0.5,1.7-0.5s1.2,0.2,1.7,0.5s0.9,0.8,1.2,1.3s0.4,1.2,0.4,2V72.2z M100.9,71.3
			c0-1-0.2-1.8-0.7-2.4S99.1,68,98.3,68c-0.8,0-1.4,0.3-1.9,0.9s-0.7,1.4-0.7,2.4v0.9c0,1,0.2,1.8,0.7,2.4s1.1,0.9,1.9,0.9
			c0.8,0,1.5-0.3,1.9-0.9s0.7-1.4,0.7-2.4V71.3z"/>
	</g>
	<g class="st6">
		<path class="st3" d="M202,119.3h0.7v6c0,0.8-0.2,1.5-0.7,1.9s-1.1,0.7-1.9,0.7c-0.8,0-1.5-0.2-1.9-0.7s-0.7-1-0.7-1.8h0.7
			c0,0.6,0.2,1.1,0.5,1.4s0.8,0.5,1.4,0.5c0.5,0,1-0.2,1.3-0.5s0.5-0.8,0.5-1.5V119.3z"/>
		<path class="st3" d="M210.7,119.3v5.8c0,0.6-0.1,1.1-0.4,1.5s-0.6,0.8-1.1,1s-1,0.3-1.6,0.3c-0.9,0-1.6-0.2-2.2-0.7
			s-0.8-1.2-0.8-2v-5.9h0.7v5.8c0,0.7,0.2,1.3,0.6,1.7s1,0.6,1.7,0.6s1.3-0.2,1.7-0.6s0.6-1,0.6-1.7v-5.8H210.7z"/>
		<path class="st3" d="M213.4,127.2h4.2v0.6h-4.9v-8.5h0.7V127.2z"/>
		<path class="st3" d="M219.9,127.9h-0.7v-8.5h0.7V127.9z"/>
		<path class="st3" d="M228.5,124.1c0,0.8-0.1,1.5-0.4,2.1s-0.7,1.1-1.2,1.4s-1.1,0.5-1.7,0.5c-1,0-1.8-0.4-2.4-1.1
			s-0.9-1.7-0.9-2.9v-0.9c0-0.8,0.1-1.5,0.4-2.1s0.7-1.1,1.2-1.4s1.1-0.5,1.7-0.5s1.2,0.2,1.7,0.5s0.9,0.8,1.2,1.3s0.4,1.2,0.4,2
			V124.1z M227.8,123.1c0-1-0.2-1.8-0.7-2.4s-1.1-0.9-1.9-0.9c-0.8,0-1.4,0.3-1.9,0.9s-0.7,1.4-0.7,2.4v0.9c0,1,0.2,1.8,0.7,2.4
			s1.1,0.9,1.9,0.9c0.8,0,1.5-0.3,1.9-0.9s0.7-1.4,0.7-2.4V123.1z"/>
	</g>
	<g class="st6">
		<path class="st3" d="M341.6,73.6h-3.9l-0.9,2.4h-0.8l3.2-8.5h0.7l3.2,8.5h-0.8L341.6,73.6z M337.9,73h3.4l-1.7-4.6L337.9,73z"/>
		<path class="st3" d="M350.6,75c-0.2,0.4-0.6,0.6-1.2,0.8s-1.1,0.3-1.8,0.3c-0.7,0-1.3-0.2-1.8-0.5s-0.9-0.8-1.2-1.4
			s-0.4-1.3-0.4-2v-1.1c0-1.2,0.3-2.1,0.9-2.8s1.4-1,2.4-1c0.9,0,1.6,0.2,2.1,0.7s0.9,1.1,1,1.8h-0.7c-0.1-0.6-0.4-1.1-0.8-1.4
			c-0.4-0.3-0.9-0.5-1.6-0.5c-0.8,0-1.4,0.3-1.9,0.9c-0.5,0.6-0.7,1.4-0.7,2.4v1c0,0.6,0.1,1.2,0.3,1.7c0.2,0.5,0.5,0.9,0.9,1.2
			s0.9,0.4,1.4,0.4c0.6,0,1.2-0.1,1.6-0.3c0.3-0.1,0.5-0.3,0.6-0.5v-2.2h-2.3V72h3V75z"/>
		<path class="st3" d="M358.9,72.2c0,0.8-0.1,1.5-0.4,2.1s-0.7,1.1-1.2,1.4s-1.1,0.5-1.7,0.5c-1,0-1.8-0.4-2.4-1.1s-0.9-1.7-0.9-2.9
			v-0.9c0-0.8,0.1-1.5,0.4-2.1s0.7-1.1,1.2-1.4s1.1-0.5,1.7-0.5s1.2,0.2,1.7,0.5s0.9,0.8,1.2,1.3s0.4,1.2,0.4,2V72.2z M358.2,71.3
			c0-1-0.2-1.8-0.7-2.4s-1.1-0.9-1.9-0.9c-0.8,0-1.4,0.3-1.9,0.9s-0.7,1.4-0.7,2.4v0.9c0,1,0.2,1.8,0.7,2.4s1.1,0.9,1.9,0.9
			c0.8,0,1.5-0.3,1.9-0.9s0.7-1.4,0.7-2.4V71.3z"/>
		<path class="st3" d="M365.6,73.9c0-0.5-0.2-0.8-0.5-1.1s-0.9-0.5-1.8-0.8s-1.5-0.5-1.9-0.8c-0.6-0.4-0.9-1-0.9-1.6
			c0-0.7,0.3-1.2,0.8-1.6s1.2-0.6,2.1-0.6c0.6,0,1.1,0.1,1.5,0.3s0.8,0.5,1,0.9s0.4,0.8,0.4,1.3h-0.7c0-0.6-0.2-1.1-0.6-1.4
			S364,68,363.3,68c-0.7,0-1.2,0.1-1.6,0.4c-0.4,0.3-0.6,0.7-0.6,1.1c0,0.4,0.2,0.8,0.5,1.1c0.3,0.3,0.9,0.5,1.7,0.7
			c0.8,0.2,1.3,0.4,1.7,0.7s0.7,0.5,0.9,0.8s0.3,0.7,0.3,1.1c0,0.7-0.3,1.2-0.8,1.6s-1.2,0.6-2.1,0.6c-0.6,0-1.2-0.1-1.7-0.3
			s-0.9-0.5-1.1-0.9s-0.4-0.8-0.4-1.3h0.7c0,0.6,0.2,1.1,0.7,1.4s1,0.5,1.8,0.5c0.7,0,1.2-0.1,1.6-0.4S365.6,74.4,365.6,73.9z"/>
		<path class="st3" d="M373.6,68.1h-2.9V76H370v-7.9h-2.9v-0.6h6.6V68.1z"/>
		<path class="st3" d="M381.2,72.2c0,0.8-0.1,1.5-0.4,2.1s-0.7,1.1-1.2,1.4s-1.1,0.5-1.7,0.5c-1,0-1.8-0.4-2.4-1.1s-0.9-1.7-0.9-2.9
			v-0.9c0-0.8,0.1-1.5,0.4-2.1s0.7-1.1,1.2-1.4s1.1-0.5,1.7-0.5s1.2,0.2,1.7,0.5s0.9,0.8,1.2,1.3s0.4,1.2,0.4,2V72.2z M380.4,71.3
			c0-1-0.2-1.8-0.7-2.4s-1.1-0.9-1.9-0.9c-0.8,0-1.4,0.3-1.9,0.9s-0.7,1.4-0.7,2.4v0.9c0,1,0.2,1.8,0.7,2.4s1.1,0.9,1.9,0.9
			c0.8,0,1.5-0.3,1.9-0.9s0.7-1.4,0.7-2.4V71.3z"/>
	</g>
</g>
<g>
	<g class="st6">
		<path class="st7" d="M55.1,150.1c-0.1,1-0.5,1.9-1.1,2.4s-1.5,0.8-2.5,0.8c-0.7,0-1.4-0.2-2-0.6s-1-0.9-1.3-1.6
			c-0.3-0.7-0.5-1.5-0.5-2.3v-1.3c0-0.9,0.2-1.7,0.5-2.4c0.3-0.7,0.8-1.2,1.3-1.6c0.6-0.4,1.2-0.6,2-0.6c1.1,0,1.9,0.3,2.5,0.9
			c0.6,0.6,1,1.4,1.1,2.4h-0.8c-0.2-1.7-1.1-2.5-2.8-2.5c-0.9,0-1.6,0.3-2.2,1c-0.5,0.7-0.8,1.6-0.8,2.8v1.2c0,1.1,0.3,2.1,0.8,2.8
			c0.5,0.7,1.2,1,2.1,1c0.9,0,1.5-0.2,2-0.6c0.4-0.4,0.7-1.1,0.8-1.9H55.1z"/>
		<path class="st7" d="M56.5,149.4c0-0.7,0.1-1.4,0.4-1.9c0.3-0.6,0.7-1,1.2-1.3c0.5-0.3,1.1-0.5,1.7-0.5c1,0,1.8,0.3,2.4,1
			c0.6,0.7,0.9,1.6,0.9,2.7v0.2c0,0.7-0.1,1.4-0.4,1.9c-0.3,0.6-0.7,1-1.2,1.3c-0.5,0.3-1.1,0.5-1.7,0.5c-1,0-1.8-0.3-2.4-1
			c-0.6-0.7-0.9-1.6-0.9-2.7V149.4z M57.3,149.7c0,0.9,0.2,1.6,0.7,2.2c0.5,0.6,1.1,0.9,1.8,0.9c0.7,0,1.3-0.3,1.8-0.9
			c0.5-0.6,0.7-1.3,0.7-2.2v-0.2c0-0.6-0.1-1.1-0.3-1.6c-0.2-0.5-0.5-0.8-0.9-1.1c-0.4-0.3-0.8-0.4-1.3-0.4c-0.7,0-1.3,0.3-1.8,0.9
			c-0.5,0.6-0.7,1.3-0.7,2.2V149.7z"/>
		<path class="st7" d="M65.5,145.9l0,1.2c0.3-0.4,0.6-0.8,1-1s0.9-0.3,1.4-0.3c1.2,0,1.9,0.5,2.2,1.4c0.3-0.5,0.6-0.8,1.1-1.1
			c0.4-0.2,0.9-0.4,1.5-0.4c1.6,0,2.4,0.9,2.4,2.6v4.9h-0.8v-4.9c0-0.7-0.1-1.2-0.4-1.5s-0.7-0.5-1.4-0.5c-0.6,0-1.1,0.2-1.5,0.6
			c-0.4,0.4-0.6,0.8-0.7,1.4v4.9h-0.8v-4.9c0-0.6-0.2-1.1-0.4-1.4c-0.3-0.3-0.7-0.5-1.4-0.5c-0.5,0-1,0.1-1.3,0.4
			c-0.4,0.3-0.6,0.7-0.8,1.3v5.1h-0.8v-7.4H65.5z"/>
		<path class="st7" d="M77.1,143.7c0-0.2,0.1-0.3,0.2-0.4c0.1-0.1,0.2-0.2,0.4-0.2c0.2,0,0.3,0.1,0.4,0.2c0.1,0.1,0.2,0.2,0.2,0.4
			c0,0.2-0.1,0.3-0.2,0.4s-0.2,0.2-0.4,0.2c-0.2,0-0.3-0.1-0.4-0.2C77.2,144,77.1,143.9,77.1,143.7z M78.1,153.3h-0.8v-7.4h0.8
			V153.3z"/>
		<path class="st7" d="M83.2,153.4c-0.6,0-1.2-0.2-1.7-0.5c-0.5-0.3-0.9-0.7-1.2-1.3c-0.3-0.6-0.4-1.2-0.4-1.9v-0.3
			c0-0.7,0.1-1.4,0.4-1.9c0.3-0.6,0.7-1,1.2-1.3c0.5-0.3,1-0.5,1.6-0.5c0.9,0,1.6,0.3,2.1,0.9c0.5,0.6,0.8,1.5,0.8,2.5v0.5h-5.3v0.2
			c0,0.8,0.2,1.5,0.7,2.1c0.5,0.6,1.1,0.8,1.8,0.8c0.4,0,0.8-0.1,1.2-0.2s0.6-0.4,0.9-0.8l0.5,0.4C85.2,153,84.3,153.4,83.2,153.4z
			 M83,146.4c-0.6,0-1.1,0.2-1.6,0.7c-0.4,0.5-0.7,1.1-0.8,1.8h4.4v-0.1c0-0.7-0.2-1.3-0.6-1.7S83.7,146.4,83,146.4z"/>
		<path class="st7" d="M88.3,145.9l0,1.3c0.3-0.5,0.6-0.8,1-1c0.4-0.2,0.9-0.4,1.4-0.4c0.8,0,1.4,0.2,1.8,0.7c0.4,0.4,0.6,1.1,0.6,2
			v4.9h-0.8v-4.9c0-0.7-0.1-1.2-0.4-1.5c-0.3-0.3-0.7-0.5-1.3-0.5c-0.5,0-1,0.2-1.3,0.5c-0.4,0.3-0.7,0.7-0.9,1.3v5.1h-0.8v-7.4
			H88.3z"/>
		<path class="st7" d="M95.8,152.6h4.8v0.7h-5.8v-0.6l4.5-6.1h-4.3v-0.7h5.4v0.6L95.8,152.6z"/>
		<path class="st7" d="M106.7,153.3c-0.1-0.2-0.1-0.6-0.2-1c-0.3,0.4-0.7,0.7-1.1,0.9c-0.4,0.2-0.9,0.3-1.4,0.3
			c-0.7,0-1.3-0.2-1.7-0.6c-0.4-0.4-0.7-0.9-0.7-1.5c0-0.7,0.3-1.3,0.9-1.7c0.6-0.4,1.4-0.6,2.5-0.6h1.5v-0.8c0-0.5-0.2-0.9-0.5-1.2
			c-0.3-0.3-0.8-0.5-1.4-0.5c-0.6,0-1,0.1-1.4,0.4c-0.4,0.3-0.6,0.6-0.6,1.1l-0.8,0c0-0.6,0.3-1.1,0.8-1.5c0.5-0.4,1.2-0.6,2-0.6
			c0.8,0,1.5,0.2,2,0.6c0.5,0.4,0.7,1,0.7,1.7v3.5c0,0.7,0.1,1.3,0.2,1.6v0.1H106.7z M104.2,152.7c0.5,0,1-0.1,1.5-0.4
			s0.7-0.6,0.9-1.1v-1.6h-1.5c-0.8,0-1.5,0.2-1.9,0.4c-0.5,0.3-0.7,0.7-0.7,1.2c0,0.4,0.2,0.8,0.5,1S103.7,152.7,104.2,152.7z"/>
		<path class="st7" d="M110.3,145.9l0,1.3c0.3-0.5,0.6-0.8,1-1c0.4-0.2,0.9-0.4,1.4-0.4c0.8,0,1.4,0.2,1.8,0.7
			c0.4,0.4,0.6,1.1,0.6,2v4.9h-0.8v-4.9c0-0.7-0.1-1.2-0.4-1.5c-0.3-0.3-0.7-0.5-1.3-0.5c-0.5,0-1,0.2-1.3,0.5
			c-0.4,0.3-0.7,0.7-0.9,1.3v5.1h-0.8v-7.4H110.3z"/>
		<path class="st7" d="M126.6,149.6c0,1.2-0.3,2.1-0.8,2.7c-0.5,0.7-1.2,1-2.1,1c-1,0-1.8-0.4-2.3-1.1v3.8h-0.8v-10.2h0.8l0,1
			c0.5-0.8,1.3-1.2,2.3-1.2c0.9,0,1.6,0.3,2.1,1c0.5,0.7,0.8,1.6,0.8,2.8V149.6z M125.8,149.5c0-0.9-0.2-1.7-0.6-2.2
			c-0.4-0.5-0.9-0.8-1.6-0.8c-0.5,0-0.9,0.1-1.3,0.4c-0.4,0.2-0.6,0.6-0.8,1.1v3.5c0.2,0.4,0.5,0.7,0.8,1c0.4,0.2,0.8,0.3,1.3,0.3
			c0.7,0,1.2-0.3,1.6-0.8C125.6,151.3,125.8,150.5,125.8,149.5z"/>
		<path class="st7" d="M131.8,146.6c-0.2,0-0.4,0-0.6,0c-0.5,0-0.9,0.1-1.3,0.4c-0.4,0.3-0.6,0.7-0.8,1.2v5.1h-0.8v-7.4h0.8l0,1.2
			c0.4-0.9,1.1-1.3,2.1-1.3c0.2,0,0.4,0,0.5,0.1L131.8,146.6z"/>
		<path class="st7" d="M132.5,149.4c0-0.7,0.1-1.4,0.4-1.9c0.3-0.6,0.7-1,1.2-1.3c0.5-0.3,1.1-0.5,1.7-0.5c1,0,1.8,0.3,2.4,1
			c0.6,0.7,0.9,1.6,0.9,2.7v0.2c0,0.7-0.1,1.4-0.4,1.9c-0.3,0.6-0.7,1-1.2,1.3c-0.5,0.3-1.1,0.5-1.7,0.5c-1,0-1.8-0.3-2.4-1
			c-0.6-0.7-0.9-1.6-0.9-2.7V149.4z M133.3,149.7c0,0.9,0.2,1.6,0.7,2.2c0.5,0.6,1.1,0.9,1.8,0.9c0.7,0,1.3-0.3,1.8-0.9
			c0.5-0.6,0.7-1.3,0.7-2.2v-0.2c0-0.6-0.1-1.1-0.3-1.6c-0.2-0.5-0.5-0.8-0.9-1.1c-0.4-0.3-0.8-0.4-1.3-0.4c-0.7,0-1.3,0.3-1.8,0.9
			c-0.5,0.6-0.7,1.3-0.7,2.2V149.7z"/>
		<path class="st7" d="M142.1,144v1.9h1.5v0.7h-1.5v4.9c0,0.4,0.1,0.7,0.2,0.9c0.1,0.2,0.4,0.3,0.7,0.3c0.1,0,0.4,0,0.7-0.1l0,0.7
			c-0.2,0.1-0.5,0.1-0.9,0.1c-0.6,0-1-0.2-1.2-0.5c-0.3-0.3-0.4-0.8-0.4-1.4v-4.9h-1.4v-0.7h1.4V144H142.1z"/>
		<path class="st7" d="M148.2,153.4c-0.6,0-1.2-0.2-1.7-0.5c-0.5-0.3-0.9-0.7-1.2-1.3c-0.3-0.6-0.4-1.2-0.4-1.9v-0.3
			c0-0.7,0.1-1.4,0.4-1.9c0.3-0.6,0.7-1,1.2-1.3c0.5-0.3,1-0.5,1.6-0.5c0.9,0,1.6,0.3,2.1,0.9c0.5,0.6,0.8,1.5,0.8,2.5v0.5h-5.3v0.2
			c0,0.8,0.2,1.5,0.7,2.1c0.5,0.6,1.1,0.8,1.8,0.8c0.4,0,0.8-0.1,1.2-0.2s0.6-0.4,0.9-0.8l0.5,0.4
			C150.2,153,149.3,153.4,148.2,153.4z M148,146.4c-0.6,0-1.1,0.2-1.6,0.7c-0.4,0.5-0.7,1.1-0.8,1.8h4.4v-0.1c0-0.7-0.2-1.3-0.6-1.7
			S148.7,146.4,148,146.4z"/>
		<path class="st7" d="M157,151.4c0-0.4-0.2-0.7-0.5-1c-0.3-0.2-0.8-0.4-1.5-0.6c-0.7-0.1-1.2-0.3-1.5-0.5c-0.4-0.2-0.6-0.4-0.8-0.7
			c-0.2-0.3-0.3-0.6-0.3-0.9c0-0.6,0.2-1.1,0.7-1.4c0.5-0.4,1.1-0.6,1.9-0.6c0.8,0,1.5,0.2,2,0.6c0.5,0.4,0.7,0.9,0.7,1.6h-0.8
			c0-0.4-0.2-0.8-0.5-1.1s-0.8-0.4-1.4-0.4c-0.5,0-1,0.1-1.3,0.4c-0.3,0.2-0.5,0.5-0.5,0.9c0,0.4,0.1,0.7,0.4,0.9
			c0.3,0.2,0.8,0.4,1.5,0.6s1.3,0.3,1.6,0.5c0.4,0.2,0.6,0.4,0.8,0.7c0.2,0.3,0.3,0.6,0.3,1c0,0.6-0.3,1.1-0.8,1.5
			c-0.5,0.4-1.2,0.6-2,0.6c-0.9,0-1.6-0.2-2.1-0.6c-0.5-0.4-0.8-0.9-0.8-1.6h0.8c0,0.5,0.2,0.9,0.6,1.1c0.4,0.3,0.9,0.4,1.5,0.4
			c0.6,0,1-0.1,1.4-0.4C156.8,152.1,157,151.8,157,151.4z"/>
		<path class="st7" d="M160.9,144v1.9h1.5v0.7h-1.5v4.9c0,0.4,0.1,0.7,0.2,0.9c0.1,0.2,0.4,0.3,0.7,0.3c0.1,0,0.4,0,0.7-0.1l0,0.7
			c-0.2,0.1-0.5,0.1-0.9,0.1c-0.6,0-1-0.2-1.2-0.5c-0.3-0.3-0.4-0.8-0.4-1.4v-4.9h-1.4v-0.7h1.4V144H160.9z"/>
		<path class="st7" d="M168.8,153.3c-0.1-0.2-0.1-0.6-0.2-1c-0.3,0.4-0.7,0.7-1.1,0.9c-0.4,0.2-0.9,0.3-1.4,0.3
			c-0.7,0-1.3-0.2-1.7-0.6c-0.4-0.4-0.7-0.9-0.7-1.5c0-0.7,0.3-1.3,0.9-1.7c0.6-0.4,1.4-0.6,2.5-0.6h1.5v-0.8c0-0.5-0.2-0.9-0.5-1.2
			c-0.3-0.3-0.8-0.5-1.4-0.5c-0.6,0-1,0.1-1.4,0.4c-0.4,0.3-0.6,0.6-0.6,1.1l-0.8,0c0-0.6,0.3-1.1,0.8-1.5c0.5-0.4,1.2-0.6,2-0.6
			c0.8,0,1.5,0.2,2,0.6c0.5,0.4,0.7,1,0.7,1.7v3.5c0,0.7,0.1,1.3,0.2,1.6v0.1H168.8z M166.2,152.7c0.5,0,1-0.1,1.5-0.4
			s0.7-0.6,0.9-1.1v-1.6h-1.5c-0.8,0-1.5,0.2-1.9,0.4c-0.5,0.3-0.7,0.7-0.7,1.2c0,0.4,0.2,0.8,0.5,1S165.7,152.7,166.2,152.7z"/>
		<path class="st7" d="M176.1,151.4c0-0.4-0.2-0.7-0.5-1c-0.3-0.2-0.8-0.4-1.5-0.6c-0.7-0.1-1.2-0.3-1.5-0.5
			c-0.4-0.2-0.6-0.4-0.8-0.7c-0.2-0.3-0.3-0.6-0.3-0.9c0-0.6,0.2-1.1,0.7-1.4c0.5-0.4,1.1-0.6,1.9-0.6c0.8,0,1.5,0.2,2,0.6
			c0.5,0.4,0.7,0.9,0.7,1.6H176c0-0.4-0.2-0.8-0.5-1.1s-0.8-0.4-1.4-0.4c-0.5,0-1,0.1-1.3,0.4c-0.3,0.2-0.5,0.5-0.5,0.9
			c0,0.4,0.1,0.7,0.4,0.9c0.3,0.2,0.8,0.4,1.5,0.6s1.3,0.3,1.6,0.5c0.4,0.2,0.6,0.4,0.8,0.7c0.2,0.3,0.3,0.6,0.3,1
			c0,0.6-0.3,1.1-0.8,1.5c-0.5,0.4-1.2,0.6-2,0.6c-0.9,0-1.6-0.2-2.1-0.6c-0.5-0.4-0.8-0.9-0.8-1.6h0.8c0,0.5,0.2,0.9,0.6,1.1
			c0.4,0.3,0.9,0.4,1.5,0.4c0.6,0,1-0.1,1.4-0.4C175.9,152.1,176.1,151.8,176.1,151.4z"/>
		<path class="st7" d="M53.8,166.4c0,1.2-0.3,2.1-0.8,2.7c-0.5,0.7-1.2,1-2.1,1c-1,0-1.8-0.4-2.3-1.1v3.8h-0.8v-10.2h0.8l0,1
			c0.5-0.8,1.3-1.2,2.3-1.2c0.9,0,1.6,0.3,2.1,1c0.5,0.7,0.8,1.6,0.8,2.8V166.4z M53,166.3c0-0.9-0.2-1.7-0.6-2.2
			c-0.4-0.5-0.9-0.8-1.6-0.8c-0.5,0-0.9,0.1-1.3,0.4c-0.4,0.2-0.6,0.6-0.8,1.1v3.5c0.2,0.4,0.5,0.7,0.8,1c0.4,0.2,0.8,0.3,1.3,0.3
			c0.7,0,1.2-0.3,1.6-0.8C52.8,168.1,53,167.3,53,166.3z"/>
		<path class="st7" d="M55.2,166.2c0-0.7,0.1-1.4,0.4-1.9c0.3-0.6,0.7-1,1.2-1.3c0.5-0.3,1.1-0.5,1.7-0.5c1,0,1.8,0.3,2.4,1
			c0.6,0.7,0.9,1.6,0.9,2.7v0.2c0,0.7-0.1,1.4-0.4,1.9c-0.3,0.6-0.7,1-1.2,1.3c-0.5,0.3-1.1,0.5-1.7,0.5c-1,0-1.8-0.3-2.4-1
			c-0.6-0.7-0.9-1.6-0.9-2.7V166.2z M56,166.5c0,0.9,0.2,1.6,0.7,2.2c0.5,0.6,1.1,0.9,1.8,0.9c0.7,0,1.3-0.3,1.8-0.9
			c0.5-0.6,0.7-1.3,0.7-2.2v-0.2c0-0.6-0.1-1.1-0.3-1.6c-0.2-0.5-0.5-0.8-0.9-1.1c-0.4-0.3-0.8-0.4-1.3-0.4c-0.7,0-1.3,0.3-1.8,0.9
			c-0.5,0.6-0.7,1.3-0.7,2.2V166.5z"/>
		<path class="st7" d="M66.9,163.4c-0.2,0-0.4,0-0.6,0c-0.5,0-0.9,0.1-1.3,0.4c-0.4,0.3-0.6,0.7-0.8,1.2v5.1h-0.8v-7.4h0.8l0,1.2
			c0.4-0.9,1.1-1.3,2.1-1.3c0.2,0,0.4,0,0.5,0.1L66.9,163.4z"/>
		<path class="st7" d="M74.4,170.2c-0.6,0-1.2-0.2-1.7-0.5c-0.5-0.3-0.9-0.7-1.2-1.3c-0.3-0.6-0.4-1.2-0.4-1.9v-0.3
			c0-0.7,0.1-1.4,0.4-1.9c0.3-0.6,0.7-1,1.2-1.3c0.5-0.3,1-0.5,1.6-0.5c0.9,0,1.6,0.3,2.1,0.9c0.5,0.6,0.8,1.5,0.8,2.5v0.5h-5.3v0.2
			c0,0.8,0.2,1.5,0.7,2.1c0.5,0.6,1.1,0.8,1.8,0.8c0.4,0,0.8-0.1,1.2-0.2s0.6-0.4,0.9-0.8l0.5,0.4C76.4,169.8,75.6,170.2,74.4,170.2
			z M74.3,163.2c-0.6,0-1.1,0.2-1.6,0.7c-0.4,0.5-0.7,1.1-0.8,1.8h4.4v-0.1c0-0.7-0.2-1.3-0.6-1.7S74.9,163.2,74.3,163.2z"/>
		<path class="st7" d="M79.7,170.1h-0.8v-10.5h0.8V170.1z"/>
		<path class="st7" d="M91.3,166.4c0,1.2-0.3,2.1-0.8,2.7c-0.5,0.7-1.2,1-2.1,1c-1,0-1.8-0.4-2.3-1.1v3.8h-0.8v-10.2h0.8l0,1
			c0.5-0.8,1.3-1.2,2.3-1.2c0.9,0,1.6,0.3,2.1,1c0.5,0.7,0.8,1.6,0.8,2.8V166.4z M90.5,166.3c0-0.9-0.2-1.7-0.6-2.2
			c-0.4-0.5-0.9-0.8-1.6-0.8c-0.5,0-0.9,0.1-1.3,0.4c-0.4,0.2-0.6,0.6-0.8,1.1v3.5c0.2,0.4,0.5,0.7,0.8,1c0.4,0.2,0.8,0.3,1.3,0.3
			c0.7,0,1.2-0.3,1.6-0.8C90.3,168.1,90.5,167.3,90.5,166.3z"/>
		<path class="st7" d="M96.5,163.4c-0.2,0-0.4,0-0.6,0c-0.5,0-0.9,0.1-1.3,0.4c-0.4,0.3-0.6,0.7-0.8,1.2v5.1h-0.8v-7.4h0.8l0,1.2
			c0.4-0.9,1.1-1.3,2.1-1.3c0.2,0,0.4,0,0.5,0.1L96.5,163.4z"/>
		<path class="st7" d="M97.2,166.2c0-0.7,0.1-1.4,0.4-1.9c0.3-0.6,0.7-1,1.2-1.3c0.5-0.3,1.1-0.5,1.7-0.5c1,0,1.8,0.3,2.4,1
			c0.6,0.7,0.9,1.6,0.9,2.7v0.2c0,0.7-0.1,1.4-0.4,1.9c-0.3,0.6-0.7,1-1.2,1.3c-0.5,0.3-1.1,0.5-1.7,0.5c-1,0-1.8-0.3-2.4-1
			c-0.6-0.7-0.9-1.6-0.9-2.7V166.2z M98,166.5c0,0.9,0.2,1.6,0.7,2.2c0.5,0.6,1.1,0.9,1.8,0.9c0.7,0,1.3-0.3,1.8-0.9
			c0.5-0.6,0.7-1.3,0.7-2.2v-0.2c0-0.6-0.1-1.1-0.3-1.6c-0.2-0.5-0.5-0.8-0.9-1.1c-0.4-0.3-0.8-0.4-1.3-0.4c-0.7,0-1.3,0.3-1.8,0.9
			c-0.5,0.6-0.7,1.3-0.7,2.2V166.5z"/>
		<path class="st7" d="M107.7,168.9l2.2-6.2h0.9l-3.2,8.7l-0.2,0.4c-0.4,0.9-1,1.3-1.9,1.3c-0.2,0-0.4,0-0.6-0.1l0-0.7l0.4,0
			c0.4,0,0.7-0.1,1-0.3c0.2-0.2,0.5-0.5,0.6-1l0.4-1l-2.8-7.3h0.9L107.7,168.9z"/>
		<path class="st7" d="M114.8,170.2c-0.6,0-1.2-0.2-1.7-0.5c-0.5-0.3-0.9-0.7-1.2-1.3c-0.3-0.6-0.4-1.2-0.4-1.9v-0.3
			c0-0.7,0.1-1.4,0.4-1.9c0.3-0.6,0.7-1,1.2-1.3c0.5-0.3,1-0.5,1.6-0.5c0.9,0,1.6,0.3,2.1,0.9c0.5,0.6,0.8,1.5,0.8,2.5v0.5h-5.3v0.2
			c0,0.8,0.2,1.5,0.7,2.1c0.5,0.6,1.1,0.8,1.8,0.8c0.4,0,0.8-0.1,1.2-0.2s0.6-0.4,0.9-0.8l0.5,0.4
			C116.8,169.8,116,170.2,114.8,170.2z M114.7,163.2c-0.6,0-1.1,0.2-1.6,0.7c-0.4,0.5-0.7,1.1-0.8,1.8h4.4v-0.1
			c0-0.7-0.2-1.3-0.6-1.7S115.3,163.2,114.7,163.2z"/>
		<path class="st7" d="M121.9,169.5c0.6,0,1-0.2,1.4-0.5c0.4-0.3,0.6-0.7,0.6-1.2h0.8c0,0.5-0.2,0.9-0.4,1.2c-0.3,0.4-0.6,0.7-1,0.9
			s-0.9,0.3-1.4,0.3c-1,0-1.7-0.3-2.3-1s-0.9-1.6-0.9-2.7v-0.2c0-0.7,0.1-1.4,0.4-1.9c0.3-0.6,0.6-1,1.1-1.3c0.5-0.3,1-0.5,1.7-0.5
			c0.8,0,1.5,0.2,2,0.7s0.8,1.1,0.8,1.9H124c0-0.6-0.2-1-0.6-1.4c-0.4-0.4-0.9-0.5-1.4-0.5c-0.7,0-1.3,0.3-1.7,0.8
			c-0.4,0.5-0.6,1.3-0.6,2.2v0.2c0,0.9,0.2,1.7,0.6,2.2C120.6,169.2,121.2,169.5,121.9,169.5z"/>
		<path class="st7" d="M127.7,160.8v1.9h1.5v0.7h-1.5v4.9c0,0.4,0.1,0.7,0.2,0.9c0.1,0.2,0.4,0.3,0.7,0.3c0.1,0,0.4,0,0.7-0.1l0,0.7
			c-0.2,0.1-0.5,0.1-0.9,0.1c-0.6,0-1-0.2-1.2-0.5c-0.3-0.3-0.4-0.8-0.4-1.4v-4.9h-1.4v-0.7h1.4v-1.9H127.7z"/>
		<path class="st7" d="M130.3,166.2c0-0.7,0.1-1.4,0.4-1.9c0.3-0.6,0.7-1,1.2-1.3c0.5-0.3,1.1-0.5,1.7-0.5c1,0,1.8,0.3,2.4,1
			c0.6,0.7,0.9,1.6,0.9,2.7v0.2c0,0.7-0.1,1.4-0.4,1.9c-0.3,0.6-0.7,1-1.2,1.3c-0.5,0.3-1.1,0.5-1.7,0.5c-1,0-1.8-0.3-2.4-1
			c-0.6-0.7-0.9-1.6-0.9-2.7V166.2z M131.1,166.5c0,0.9,0.2,1.6,0.7,2.2c0.5,0.6,1.1,0.9,1.8,0.9c0.7,0,1.3-0.3,1.8-0.9
			c0.5-0.6,0.7-1.3,0.7-2.2v-0.2c0-0.6-0.1-1.1-0.3-1.6c-0.2-0.5-0.5-0.8-0.9-1.1c-0.4-0.3-0.8-0.4-1.3-0.4c-0.7,0-1.3,0.3-1.8,0.9
			c-0.5,0.6-0.7,1.3-0.7,2.2V166.5z"/>
		<path class="st7" d="M141.7,166.3c0-1.1,0.3-2.1,0.8-2.7c0.5-0.7,1.2-1,2.1-1c1,0,1.8,0.4,2.3,1.2v-4.1h0.8v10.5h-0.8l0-1
			c-0.5,0.7-1.3,1.1-2.3,1.1c-0.9,0-1.5-0.3-2.1-1C141.9,168.5,141.7,167.5,141.7,166.3L141.7,166.3z M142.5,166.4
			c0,0.9,0.2,1.7,0.6,2.2c0.4,0.5,0.9,0.8,1.6,0.8c1,0,1.7-0.4,2.1-1.3v-3.5c-0.4-1-1.1-1.4-2.1-1.4c-0.7,0-1.2,0.3-1.6,0.8
			C142.7,164.6,142.5,165.4,142.5,166.4z"/>
		<path class="st7" d="M152.7,170.2c-0.6,0-1.2-0.2-1.7-0.5c-0.5-0.3-0.9-0.7-1.2-1.3c-0.3-0.6-0.4-1.2-0.4-1.9v-0.3
			c0-0.7,0.1-1.4,0.4-1.9c0.3-0.6,0.7-1,1.2-1.3c0.5-0.3,1-0.5,1.6-0.5c0.9,0,1.6,0.3,2.1,0.9c0.5,0.6,0.8,1.5,0.8,2.5v0.5h-5.3v0.2
			c0,0.8,0.2,1.5,0.7,2.1c0.5,0.6,1.1,0.8,1.8,0.8c0.4,0,0.8-0.1,1.2-0.2s0.6-0.4,0.9-0.8l0.5,0.4
			C154.7,169.8,153.8,170.2,152.7,170.2z M152.5,163.2c-0.6,0-1.1,0.2-1.6,0.7c-0.4,0.5-0.7,1.1-0.8,1.8h4.4v-0.1
			c0-0.7-0.2-1.3-0.6-1.7S153.1,163.2,152.5,163.2z"/>
		<path class="st7" d="M50.7,187c-0.6,0-1.2-0.2-1.7-0.5c-0.5-0.3-0.9-0.7-1.2-1.3c-0.3-0.6-0.4-1.2-0.4-1.9v-0.3
			c0-0.7,0.1-1.4,0.4-1.9c0.3-0.6,0.7-1,1.2-1.3c0.5-0.3,1-0.5,1.6-0.5c0.9,0,1.6,0.3,2.1,0.9c0.5,0.6,0.8,1.5,0.8,2.5v0.5h-5.3v0.2
			c0,0.8,0.2,1.5,0.7,2.1c0.5,0.6,1.1,0.8,1.8,0.8c0.4,0,0.8-0.1,1.2-0.2s0.6-0.4,0.9-0.8l0.5,0.4C52.7,186.6,51.9,187,50.7,187z
			 M50.6,180c-0.6,0-1.1,0.2-1.6,0.7c-0.4,0.5-0.7,1.1-0.8,1.8h4.4v-0.1c0-0.7-0.2-1.3-0.6-1.7S51.2,180,50.6,180z"/>
		<path class="st7" d="M57.3,185.7l2.2-6.2h0.9l-3.2,8.7l-0.2,0.4c-0.4,0.9-1,1.3-1.9,1.3c-0.2,0-0.4,0-0.6-0.1l0-0.7l0.4,0
			c0.4,0,0.7-0.1,1-0.3c0.2-0.2,0.5-0.5,0.6-1l0.4-1l-2.8-7.3H55L57.3,185.7z"/>
		<path class="st7" d="M64.7,183.1c0-1.1,0.3-2.1,0.8-2.7c0.5-0.7,1.2-1,2.1-1c1,0,1.8,0.4,2.3,1.2v-4.1h0.8v10.5h-0.8l0-1
			c-0.5,0.7-1.3,1.1-2.3,1.1c-0.9,0-1.5-0.3-2.1-1C65,185.3,64.7,184.3,64.7,183.1L64.7,183.1z M65.5,183.2c0,0.9,0.2,1.7,0.6,2.2
			c0.4,0.5,0.9,0.8,1.6,0.8c1,0,1.7-0.4,2.1-1.3v-3.5c-0.4-1-1.1-1.4-2.1-1.4c-0.7,0-1.2,0.3-1.6,0.8
			C65.7,181.4,65.5,182.2,65.5,183.2z"/>
		<path class="st7" d="M75.7,187c-0.6,0-1.2-0.2-1.7-0.5c-0.5-0.3-0.9-0.7-1.2-1.3c-0.3-0.6-0.4-1.2-0.4-1.9v-0.3
			c0-0.7,0.1-1.4,0.4-1.9c0.3-0.6,0.7-1,1.2-1.3c0.5-0.3,1-0.5,1.6-0.5c0.9,0,1.6,0.3,2.1,0.9c0.5,0.6,0.8,1.5,0.8,2.5v0.5h-5.3v0.2
			c0,0.8,0.2,1.5,0.7,2.1c0.5,0.6,1.1,0.8,1.8,0.8c0.4,0,0.8-0.1,1.2-0.2s0.6-0.4,0.9-0.8l0.5,0.4C77.7,186.6,76.8,187,75.7,187z
			 M75.5,180c-0.6,0-1.1,0.2-1.6,0.7c-0.4,0.5-0.7,1.1-0.8,1.8h4.4v-0.1c0-0.7-0.2-1.3-0.6-1.7S76.2,180,75.5,180z"/>
		<path class="st7" d="M86.3,187c-0.6,0-1.2-0.2-1.7-0.5c-0.5-0.3-0.9-0.7-1.2-1.3c-0.3-0.6-0.4-1.2-0.4-1.9v-0.3
			c0-0.7,0.1-1.4,0.4-1.9c0.3-0.6,0.7-1,1.2-1.3c0.5-0.3,1-0.5,1.6-0.5c0.9,0,1.6,0.3,2.1,0.9c0.5,0.6,0.8,1.5,0.8,2.5v0.5h-5.3v0.2
			c0,0.8,0.2,1.5,0.7,2.1c0.5,0.6,1.1,0.8,1.8,0.8c0.4,0,0.8-0.1,1.2-0.2s0.6-0.4,0.9-0.8l0.5,0.4C88.3,186.6,87.5,187,86.3,187z
			 M86.2,180c-0.6,0-1.1,0.2-1.6,0.7c-0.4,0.5-0.7,1.1-0.8,1.8h4.4v-0.1c0-0.7-0.2-1.3-0.6-1.7S86.8,180,86.2,180z"/>
		<path class="st7" d="M93,182.5l2-3h1l-2.5,3.6l2.6,3.8h-1l-2.1-3.1l-2.1,3.1h-1l2.6-3.8l-2.5-3.6h1L93,182.5z"/>
		<path class="st7" d="M98.8,177.6v1.9h1.5v0.7h-1.5v4.9c0,0.4,0.1,0.7,0.2,0.9c0.1,0.2,0.4,0.3,0.7,0.3c0.1,0,0.4,0,0.7-0.1l0,0.7
			c-0.2,0.1-0.5,0.1-0.9,0.1c-0.6,0-1-0.2-1.2-0.5c-0.3-0.3-0.4-0.8-0.4-1.4v-4.9h-1.4v-0.7H98v-1.9H98.8z"/>
		<path class="st7" d="M105.4,180.2c-0.2,0-0.4,0-0.6,0c-0.5,0-0.9,0.1-1.3,0.4c-0.4,0.3-0.6,0.7-0.8,1.2v5.1H102v-7.4h0.8l0,1.2
			c0.4-0.9,1.1-1.3,2.1-1.3c0.2,0,0.4,0,0.5,0.1L105.4,180.2z"/>
		<path class="st7" d="M111.1,186.8c-0.1-0.2-0.1-0.6-0.2-1c-0.3,0.4-0.7,0.7-1.1,0.9c-0.4,0.2-0.9,0.3-1.4,0.3
			c-0.7,0-1.3-0.2-1.7-0.6c-0.4-0.4-0.7-0.9-0.7-1.5c0-0.7,0.3-1.3,0.9-1.7c0.6-0.4,1.4-0.6,2.5-0.6h1.5v-0.8c0-0.5-0.2-0.9-0.5-1.2
			c-0.3-0.3-0.8-0.5-1.4-0.5c-0.6,0-1,0.1-1.4,0.4c-0.4,0.3-0.6,0.6-0.6,1.1l-0.8,0c0-0.6,0.3-1.1,0.8-1.5c0.5-0.4,1.2-0.6,2-0.6
			c0.8,0,1.5,0.2,2,0.6c0.5,0.4,0.7,1,0.7,1.7v3.5c0,0.7,0.1,1.3,0.2,1.6v0.1H111.1z M108.5,186.3c0.5,0,1-0.1,1.5-0.4
			s0.7-0.6,0.9-1.1v-1.6h-1.5c-0.8,0-1.5,0.2-1.9,0.4c-0.5,0.3-0.7,0.7-0.7,1.2c0,0.4,0.2,0.8,0.5,1S108,186.3,108.5,186.3z"/>
		<path class="st7" d="M113.6,183.1c0-1.1,0.3-2.1,0.8-2.7c0.5-0.7,1.2-1,2.1-1c1,0,1.8,0.4,2.3,1.2v-4.1h0.8v10.5h-0.8l0-1
			c-0.5,0.7-1.3,1.1-2.3,1.1c-0.9,0-1.5-0.3-2.1-1C113.9,185.3,113.6,184.3,113.6,183.1L113.6,183.1z M114.4,183.2
			c0,0.9,0.2,1.7,0.6,2.2c0.4,0.5,0.9,0.8,1.6,0.8c1,0,1.7-0.4,2.1-1.3v-3.5c-0.4-1-1.1-1.4-2.1-1.4c-0.7,0-1.2,0.3-1.6,0.8
			C114.6,181.4,114.4,182.2,114.4,183.2z"/>
		<path class="st7" d="M121.7,177.3c0-0.2,0.1-0.3,0.2-0.4c0.1-0.1,0.2-0.2,0.4-0.2c0.2,0,0.3,0.1,0.4,0.2c0.1,0.1,0.2,0.2,0.2,0.4
			c0,0.2-0.1,0.3-0.2,0.4s-0.2,0.2-0.4,0.2c-0.2,0-0.3-0.1-0.4-0.2C121.7,177.6,121.7,177.5,121.7,177.3z M122.6,186.8h-0.8v-7.4
			h0.8V186.8z"/>
		<path class="st7" d="M127.6,186.3c0.6,0,1-0.2,1.4-0.5c0.4-0.3,0.6-0.7,0.6-1.2h0.8c0,0.5-0.2,0.9-0.4,1.2c-0.3,0.4-0.6,0.7-1,0.9
			s-0.9,0.3-1.4,0.3c-1,0-1.7-0.3-2.3-1s-0.9-1.6-0.9-2.7V183c0-0.7,0.1-1.4,0.4-1.9c0.3-0.6,0.6-1,1.1-1.3c0.5-0.3,1-0.5,1.7-0.5
			c0.8,0,1.5,0.2,2,0.7s0.8,1.1,0.8,1.9h-0.8c0-0.6-0.2-1-0.6-1.4c-0.4-0.4-0.9-0.5-1.4-0.5c-0.7,0-1.3,0.3-1.7,0.8
			c-0.4,0.5-0.6,1.3-0.6,2.2v0.2c0,0.9,0.2,1.7,0.6,2.2C126.3,186,126.8,186.3,127.6,186.3z"/>
		<path class="st7" d="M132,177.3c0-0.2,0.1-0.3,0.2-0.4c0.1-0.1,0.2-0.2,0.4-0.2c0.2,0,0.3,0.1,0.4,0.2c0.1,0.1,0.2,0.2,0.2,0.4
			c0,0.2-0.1,0.3-0.2,0.4s-0.2,0.2-0.4,0.2c-0.2,0-0.3-0.1-0.4-0.2C132.1,177.6,132,177.5,132,177.3z M133,186.8h-0.8v-7.4h0.8
			V186.8z"/>
		<path class="st7" d="M134.8,183c0-0.7,0.1-1.4,0.4-1.9c0.3-0.6,0.7-1,1.2-1.3c0.5-0.3,1.1-0.5,1.7-0.5c1,0,1.8,0.3,2.4,1
			c0.6,0.7,0.9,1.6,0.9,2.7v0.2c0,0.7-0.1,1.4-0.4,1.9c-0.3,0.6-0.7,1-1.2,1.3c-0.5,0.3-1.1,0.5-1.7,0.5c-1,0-1.8-0.3-2.4-1
			c-0.6-0.7-0.9-1.6-0.9-2.7V183z M135.6,183.3c0,0.9,0.2,1.6,0.7,2.2c0.5,0.6,1.1,0.9,1.8,0.9c0.7,0,1.3-0.3,1.8-0.9
			c0.5-0.6,0.7-1.3,0.7-2.2V183c0-0.6-0.1-1.1-0.3-1.6c-0.2-0.5-0.5-0.8-0.9-1.1c-0.4-0.3-0.8-0.4-1.3-0.4c-0.7,0-1.3,0.3-1.8,0.9
			c-0.5,0.6-0.7,1.3-0.7,2.2V183.3z M138.9,176.3h1l-1.6,1.9l-0.7,0L138.9,176.3z"/>
		<path class="st7" d="M143.8,179.5l0,1.3c0.3-0.5,0.6-0.8,1-1c0.4-0.2,0.9-0.4,1.4-0.4c0.8,0,1.4,0.2,1.8,0.7
			c0.4,0.4,0.6,1.1,0.6,2v4.9h-0.8V182c0-0.7-0.1-1.2-0.4-1.5c-0.3-0.3-0.7-0.5-1.3-0.5c-0.5,0-1,0.2-1.3,0.5
			c-0.4,0.3-0.7,0.7-0.9,1.3v5.1H143v-7.4H143.8z"/>
	</g>
</g>
<g class="st6">
	<path class="st7" d="M195,26.8v3.5H193v-10h3.9c0.7,0,1.4,0.1,2,0.4s1,0.7,1.3,1.2c0.3,0.5,0.5,1.1,0.5,1.7c0,1-0.3,1.7-1,2.3
		c-0.7,0.6-1.6,0.8-2.8,0.8H195z M195,25.1h1.8c0.5,0,1-0.1,1.2-0.4s0.4-0.6,0.4-1.1c0-0.5-0.1-0.9-0.4-1.2s-0.7-0.5-1.2-0.5H195
		V25.1z"/>
	<path class="st7" d="M206,24.8c-0.3,0-0.5-0.1-0.7-0.1c-0.7,0-1.2,0.3-1.5,0.8v4.8h-2v-7.4h1.9l0.1,0.9c0.4-0.7,0.9-1,1.6-1
		c0.2,0,0.4,0,0.6,0.1L206,24.8z"/>
	<path class="st7" d="M207,21c0-0.3,0.1-0.5,0.3-0.7s0.5-0.3,0.8-0.3c0.3,0,0.6,0.1,0.8,0.3s0.3,0.4,0.3,0.7c0,0.3-0.1,0.5-0.3,0.7
		s-0.5,0.3-0.8,0.3s-0.6-0.1-0.8-0.3S207,21.3,207,21z M209.1,30.3h-2v-7.4h2V30.3z"/>
	<path class="st7" d="M212.5,22.9l0.1,0.8c0.5-0.6,1.2-1,2.1-1c1,0,1.6,0.4,2,1.1c0.5-0.8,1.3-1.1,2.2-1.1c0.8,0,1.4,0.2,1.8,0.7
		c0.4,0.5,0.6,1.2,0.6,2.1v4.7h-2v-4.7c0-0.4-0.1-0.7-0.2-0.9c-0.2-0.2-0.5-0.3-0.9-0.3c-0.6,0-1,0.3-1.2,0.8l0,5.1h-2v-4.7
		c0-0.4-0.1-0.7-0.3-0.9c-0.2-0.2-0.5-0.3-0.9-0.3c-0.6,0-1,0.2-1.2,0.7v5.2h-2v-7.4H212.5z"/>
	<path class="st7" d="M226.2,30.4c-1.1,0-2-0.3-2.6-1c-0.7-0.7-1-1.6-1-2.7v-0.2c0-0.7,0.1-1.4,0.4-2c0.3-0.6,0.7-1,1.2-1.4
		c0.5-0.3,1.1-0.5,1.8-0.5c1,0,1.8,0.3,2.4,1s0.9,1.5,0.9,2.7v0.8h-4.7c0.1,0.5,0.3,0.9,0.6,1.2s0.7,0.4,1.2,0.4
		c0.8,0,1.4-0.3,1.8-0.8l1,1.1c-0.3,0.4-0.7,0.7-1.2,1C227.4,30.3,226.8,30.4,226.2,30.4z M226,24.4c-0.4,0-0.7,0.1-1,0.4
		c-0.2,0.3-0.4,0.6-0.5,1.1h2.7v-0.2c0-0.4-0.1-0.8-0.4-1C226.7,24.5,226.4,24.4,226,24.4z"/>
	<path class="st7" d="M234.5,24.8c-0.3,0-0.5-0.1-0.7-0.1c-0.7,0-1.2,0.3-1.5,0.8v4.8h-2v-7.4h1.9l0.1,0.9c0.4-0.7,0.9-1,1.6-1
		c0.2,0,0.4,0,0.6,0.1L234.5,24.8z"/>
	<path class="st7" d="M239.5,30.3c-0.1-0.2-0.2-0.4-0.2-0.7c-0.5,0.5-1.1,0.8-1.9,0.8c-0.7,0-1.3-0.2-1.8-0.6
		c-0.5-0.4-0.7-0.9-0.7-1.6c0-0.8,0.3-1.4,0.9-1.8s1.4-0.6,2.5-0.6h0.9v-0.4c0-0.3-0.1-0.6-0.3-0.8c-0.2-0.2-0.5-0.3-0.8-0.3
		c-0.3,0-0.6,0.1-0.8,0.2c-0.2,0.2-0.3,0.4-0.3,0.7h-2c0-0.4,0.1-0.8,0.4-1.2c0.3-0.4,0.6-0.7,1.1-0.9c0.5-0.2,1-0.3,1.6-0.3
		c0.9,0,1.6,0.2,2.2,0.7c0.5,0.5,0.8,1.1,0.8,1.9v3.2c0,0.7,0.1,1.2,0.3,1.6v0.1H239.5z M237.9,28.9c0.3,0,0.6-0.1,0.8-0.2
		c0.2-0.1,0.4-0.3,0.5-0.5v-1.3h-0.7c-1,0-1.5,0.3-1.6,1l0,0.1c0,0.2,0.1,0.4,0.3,0.6C237.3,28.8,237.6,28.9,237.9,28.9z"/>
	<path class="st7" d="M245.9,26.6c0-1.2,0.3-2.1,0.8-2.8c0.5-0.7,1.2-1,2.1-1c0.7,0,1.3,0.3,1.8,0.8v-3.8h2v10.5h-1.8l-0.1-0.8
		c-0.5,0.6-1.1,0.9-1.9,0.9c-0.9,0-1.6-0.3-2.1-1C246.1,28.7,245.9,27.8,245.9,26.6z M247.9,26.7c0,0.7,0.1,1.2,0.4,1.6
		c0.2,0.4,0.6,0.6,1.1,0.6c0.6,0,1-0.3,1.3-0.8v-2.9c-0.2-0.5-0.7-0.8-1.3-0.8C248.3,24.4,247.9,25.1,247.9,26.7z"/>
	<path class="st7" d="M257.5,30.4c-1.1,0-2-0.3-2.6-1c-0.7-0.7-1-1.6-1-2.7v-0.2c0-0.7,0.1-1.4,0.4-2c0.3-0.6,0.7-1,1.2-1.4
		c0.5-0.3,1.1-0.5,1.8-0.5c1,0,1.8,0.3,2.4,1s0.9,1.5,0.9,2.7v0.8h-4.7c0.1,0.5,0.3,0.9,0.6,1.2s0.7,0.4,1.2,0.4
		c0.8,0,1.4-0.3,1.8-0.8l1,1.1c-0.3,0.4-0.7,0.7-1.2,1C258.6,30.3,258.1,30.4,257.5,30.4z M257.2,24.4c-0.4,0-0.7,0.1-1,0.4
		c-0.2,0.3-0.4,0.6-0.5,1.1h2.7v-0.2c0-0.4-0.1-0.8-0.4-1C258,24.5,257.7,24.4,257.2,24.4z"/>
	<path class="st7" d="M263.5,22.9l0.1,0.8c0.5-0.6,1.2-1,2.1-1c1,0,1.6,0.4,2,1.1c0.5-0.8,1.3-1.1,2.2-1.1c0.8,0,1.4,0.2,1.8,0.7
		c0.4,0.5,0.6,1.2,0.6,2.1v4.7h-2v-4.7c0-0.4-0.1-0.7-0.2-0.9c-0.2-0.2-0.5-0.3-0.9-0.3c-0.6,0-1,0.3-1.2,0.8l0,5.1h-2v-4.7
		c0-0.4-0.1-0.7-0.3-0.9c-0.2-0.2-0.5-0.3-0.9-0.3c-0.6,0-1,0.2-1.2,0.7v5.2h-2v-7.4H263.5z"/>
	<path class="st7" d="M273.4,26.5c0-0.7,0.1-1.4,0.4-2c0.3-0.6,0.7-1,1.2-1.3c0.5-0.3,1.1-0.5,1.8-0.5c1,0,1.8,0.3,2.4,0.9
		c0.6,0.6,1,1.4,1.1,2.5l0,0.5c0,1.1-0.3,2-1,2.7c-0.6,0.7-1.5,1-2.5,1s-1.9-0.3-2.6-1S273.4,27.8,273.4,26.5L273.4,26.5z
		 M275.4,26.7c0,0.7,0.1,1.2,0.4,1.6c0.3,0.4,0.6,0.6,1.1,0.6c0.5,0,0.9-0.2,1.1-0.6c0.3-0.4,0.4-1,0.4-1.8c0-0.7-0.1-1.2-0.4-1.6
		c-0.3-0.4-0.6-0.6-1.1-0.6c-0.5,0-0.9,0.2-1.1,0.6C275.5,25.3,275.4,25.9,275.4,26.7z"/>
	<path class="st7" d="M285.6,28.3c0-0.2-0.1-0.4-0.4-0.6c-0.2-0.1-0.6-0.3-1.2-0.4c-1.8-0.4-2.6-1.1-2.6-2.2c0-0.7,0.3-1.2,0.8-1.6
		c0.5-0.4,1.3-0.7,2.1-0.7c0.9,0,1.7,0.2,2.3,0.7c0.6,0.4,0.8,1,0.8,1.7h-2c0-0.3-0.1-0.5-0.3-0.7c-0.2-0.2-0.5-0.3-0.9-0.3
		c-0.3,0-0.6,0.1-0.8,0.2c-0.2,0.2-0.3,0.3-0.3,0.6c0,0.2,0.1,0.4,0.3,0.5c0.2,0.1,0.6,0.2,1,0.3c0.5,0.1,0.9,0.2,1.2,0.3
		c1,0.4,1.6,1,1.6,2c0,0.7-0.3,1.2-0.9,1.6c-0.6,0.4-1.3,0.6-2.2,0.6c-0.6,0-1.2-0.1-1.7-0.3c-0.5-0.2-0.9-0.5-1.1-0.9
		c-0.3-0.4-0.4-0.8-0.4-1.2h1.9c0,0.4,0.1,0.6,0.4,0.8c0.2,0.2,0.6,0.3,1,0.3c0.4,0,0.7-0.1,0.9-0.2
		C285.5,28.7,285.6,28.5,285.6,28.3z"/>
	<path class="st7" d="M291.2,21.1v1.8h1.3v1.4h-1.3V28c0,0.3,0.1,0.5,0.2,0.6c0.1,0.1,0.3,0.2,0.6,0.2c0.2,0,0.4,0,0.6,0v1.5
		c-0.4,0.1-0.8,0.2-1.2,0.2c-1.4,0-2.1-0.7-2.1-2.1v-4h-1.1v-1.4h1.1v-1.8H291.2z"/>
	<path class="st7" d="M297.7,24.8c-0.3,0-0.5-0.1-0.7-0.1c-0.7,0-1.2,0.3-1.5,0.8v4.8h-2v-7.4h1.9l0.1,0.9c0.4-0.7,0.9-1,1.6-1
		c0.2,0,0.4,0,0.6,0.1L297.7,24.8z"/>
	<path class="st7" d="M302.7,30.3c-0.1-0.2-0.2-0.4-0.2-0.7c-0.5,0.5-1.1,0.8-1.9,0.8c-0.7,0-1.3-0.2-1.8-0.6
		c-0.5-0.4-0.7-0.9-0.7-1.6c0-0.8,0.3-1.4,0.9-1.8s1.4-0.6,2.5-0.6h0.9v-0.4c0-0.3-0.1-0.6-0.3-0.8c-0.2-0.2-0.5-0.3-0.8-0.3
		c-0.3,0-0.6,0.1-0.8,0.2c-0.2,0.2-0.3,0.4-0.3,0.7h-2c0-0.4,0.1-0.8,0.4-1.2c0.3-0.4,0.6-0.7,1.1-0.9c0.5-0.2,1-0.3,1.6-0.3
		c0.9,0,1.6,0.2,2.2,0.7c0.5,0.5,0.8,1.1,0.8,1.9v3.2c0,0.7,0.1,1.2,0.3,1.6v0.1H302.7z M301.1,28.9c0.3,0,0.6-0.1,0.8-0.2
		c0.2-0.1,0.4-0.3,0.5-0.5v-1.3h-0.7c-1,0-1.5,0.3-1.6,1l0,0.1c0,0.2,0.1,0.4,0.3,0.6C300.5,28.8,300.8,28.9,301.1,28.9z"/>
	<path class="st7" d="M309,28.8c0.4,0,0.7-0.1,0.9-0.3c0.2-0.2,0.3-0.5,0.4-0.8h1.9c0,0.5-0.1,1-0.4,1.4c-0.3,0.4-0.6,0.7-1.1,1
		c-0.5,0.2-1,0.3-1.5,0.3c-1.1,0-1.9-0.3-2.5-1c-0.6-0.7-0.9-1.6-0.9-2.8v-0.1c0-1.1,0.3-2,0.9-2.7c0.6-0.7,1.4-1,2.5-1
		c0.9,0,1.7,0.3,2.2,0.8c0.6,0.5,0.8,1.2,0.9,2.1h-1.9c0-0.4-0.1-0.7-0.4-0.9c-0.2-0.2-0.5-0.4-0.9-0.4c-0.5,0-0.8,0.2-1,0.5
		c-0.2,0.3-0.4,0.9-0.4,1.6v0.2c0,0.8,0.1,1.3,0.3,1.6S308.5,28.8,309,28.8z"/>
	<path class="st7" d="M313.2,21c0-0.3,0.1-0.5,0.3-0.7s0.5-0.3,0.8-0.3c0.3,0,0.6,0.1,0.8,0.3c0.2,0.2,0.3,0.4,0.3,0.7
		c0,0.3-0.1,0.5-0.3,0.7c-0.2,0.2-0.5,0.3-0.8,0.3c-0.3,0-0.6-0.1-0.8-0.3C313.3,21.5,313.2,21.3,313.2,21z M315.3,30.3h-2v-7.4h2
		V30.3z"/>
	<path class="st7" d="M316.6,26.5c0-0.7,0.1-1.4,0.4-2c0.3-0.6,0.7-1,1.2-1.3c0.5-0.3,1.1-0.5,1.8-0.5c1,0,1.8,0.3,2.4,0.9
		c0.6,0.6,1,1.4,1.1,2.5l0,0.5c0,1.1-0.3,2-1,2.7c-0.6,0.7-1.5,1-2.5,1s-1.9-0.3-2.6-1S316.6,27.8,316.6,26.5L316.6,26.5z
		 M318.6,26.7c0,0.7,0.1,1.2,0.4,1.6c0.3,0.4,0.6,0.6,1.1,0.6c0.5,0,0.9-0.2,1.1-0.6c0.3-0.4,0.4-1,0.4-1.8c0-0.7-0.1-1.2-0.4-1.6
		c-0.3-0.4-0.6-0.6-1.1-0.6c-0.5,0-0.9,0.2-1.1,0.6C318.7,25.3,318.6,25.9,318.6,26.7z M320.5,19.8h2.2l-1.9,2.1h-1.6L320.5,19.8z"
		/>
	<path class="st7" d="M326.6,22.9l0.1,0.9c0.5-0.7,1.2-1,2.1-1c0.8,0,1.4,0.2,1.8,0.7s0.6,1.1,0.6,2.1v4.8h-2v-4.7
		c0-0.4-0.1-0.7-0.3-0.9c-0.2-0.2-0.5-0.3-0.9-0.3c-0.6,0-1,0.2-1.3,0.7v5.2h-2v-7.4H326.6z"/>
</g>
<g class="st6">
	<path class="st7" d="M202.4,47.2c-1.1,0-2-0.3-2.6-1c-0.7-0.7-1-1.6-1-2.7v-0.2c0-0.7,0.1-1.4,0.4-2c0.3-0.6,0.7-1,1.2-1.4
		c0.5-0.3,1.1-0.5,1.8-0.5c1,0,1.8,0.3,2.4,1s0.9,1.5,0.9,2.7V44h-4.7c0.1,0.5,0.3,0.9,0.6,1.2s0.7,0.4,1.2,0.4
		c0.8,0,1.4-0.3,1.8-0.8l1,1.1c-0.3,0.4-0.7,0.7-1.2,1C203.6,47.1,203,47.2,202.4,47.2z M202.2,41.2c-0.4,0-0.7,0.1-1,0.4
		c-0.2,0.3-0.4,0.6-0.5,1.1h2.7v-0.2c0-0.4-0.1-0.8-0.4-1C202.9,41.3,202.6,41.2,202.2,41.2z"/>
	<path class="st7" d="M208.3,39.7l0.1,0.9c0.5-0.7,1.2-1,2.1-1c0.8,0,1.4,0.2,1.8,0.7s0.6,1.1,0.6,2.1v4.8h-2v-4.7
		c0-0.4-0.1-0.7-0.3-0.9c-0.2-0.2-0.5-0.3-0.9-0.3c-0.6,0-1,0.2-1.3,0.7v5.2h-2v-7.4H208.3z"/>
	<path class="st7" d="M219.9,47.1h-2V36.6h2V47.1z"/>
	<path class="st7" d="M225.8,47.1c-0.1-0.2-0.2-0.4-0.2-0.7c-0.5,0.5-1.1,0.8-1.9,0.8c-0.7,0-1.3-0.2-1.8-0.6
		c-0.5-0.4-0.7-0.9-0.7-1.6c0-0.8,0.3-1.4,0.9-1.8s1.4-0.6,2.5-0.6h0.9v-0.4c0-0.3-0.1-0.6-0.3-0.8c-0.2-0.2-0.5-0.3-0.8-0.3
		c-0.3,0-0.6,0.1-0.8,0.2c-0.2,0.2-0.3,0.4-0.3,0.7h-2c0-0.4,0.1-0.8,0.4-1.2c0.3-0.4,0.6-0.7,1.1-0.9c0.5-0.2,1-0.3,1.6-0.3
		c0.9,0,1.6,0.2,2.2,0.7c0.5,0.5,0.8,1.1,0.8,1.9v3.2c0,0.7,0.1,1.2,0.3,1.6v0.1H225.8z M224.2,45.7c0.3,0,0.6-0.1,0.8-0.2
		c0.2-0.1,0.4-0.3,0.5-0.5v-1.3h-0.7c-1,0-1.5,0.3-1.6,1l0,0.1c0,0.2,0.1,0.4,0.3,0.6C223.6,45.6,223.9,45.7,224.2,45.7z"/>
	<path class="st7" d="M236.5,45.1c0-0.2-0.1-0.4-0.4-0.6c-0.2-0.1-0.6-0.3-1.2-0.4c-1.8-0.4-2.6-1.1-2.6-2.2c0-0.7,0.3-1.2,0.8-1.6
		c0.5-0.4,1.3-0.7,2.1-0.7c0.9,0,1.7,0.2,2.3,0.7c0.6,0.4,0.8,1,0.8,1.7h-2c0-0.3-0.1-0.5-0.3-0.7c-0.2-0.2-0.5-0.3-0.9-0.3
		c-0.3,0-0.6,0.1-0.8,0.2c-0.2,0.2-0.3,0.3-0.3,0.6c0,0.2,0.1,0.4,0.3,0.5c0.2,0.1,0.6,0.2,1,0.3c0.5,0.1,0.9,0.2,1.2,0.3
		c1,0.4,1.6,1,1.6,2c0,0.7-0.3,1.2-0.9,1.6c-0.6,0.4-1.3,0.6-2.2,0.6c-0.6,0-1.2-0.1-1.7-0.3c-0.5-0.2-0.9-0.5-1.1-0.9
		c-0.3-0.4-0.4-0.8-0.4-1.2h1.9c0,0.4,0.1,0.6,0.4,0.8c0.2,0.2,0.6,0.3,1,0.3c0.4,0,0.7-0.1,0.9-0.2
		C236.4,45.5,236.5,45.3,236.5,45.1z"/>
	<path class="st7" d="M244,47.1c-0.1-0.2-0.2-0.4-0.2-0.7c-0.5,0.5-1.1,0.8-1.9,0.8c-0.7,0-1.3-0.2-1.8-0.6
		c-0.5-0.4-0.7-0.9-0.7-1.6c0-0.8,0.3-1.4,0.9-1.8s1.4-0.6,2.5-0.6h0.9v-0.4c0-0.3-0.1-0.6-0.3-0.8c-0.2-0.2-0.5-0.3-0.8-0.3
		c-0.3,0-0.6,0.1-0.8,0.2c-0.2,0.2-0.3,0.4-0.3,0.7h-2c0-0.4,0.1-0.8,0.4-1.2c0.3-0.4,0.6-0.7,1.1-0.9c0.5-0.2,1-0.3,1.6-0.3
		c0.9,0,1.6,0.2,2.2,0.7c0.5,0.5,0.8,1.1,0.8,1.9v3.2c0,0.7,0.1,1.2,0.3,1.6v0.1H244z M242.3,45.7c0.3,0,0.6-0.1,0.8-0.2
		c0.2-0.1,0.4-0.3,0.5-0.5v-1.3h-0.7c-1,0-1.5,0.3-1.6,1l0,0.1c0,0.2,0.1,0.4,0.3,0.6C241.8,45.6,242,45.7,242.3,45.7z"/>
	<path class="st7" d="M249.2,47.1h-2V36.6h2V47.1z"/>
	<path class="st7" d="M255.1,47.1c-0.1-0.2-0.2-0.4-0.2-0.7c-0.5,0.5-1.1,0.8-1.9,0.8c-0.7,0-1.3-0.2-1.8-0.6
		c-0.5-0.4-0.7-0.9-0.7-1.6c0-0.8,0.3-1.4,0.9-1.8s1.4-0.6,2.5-0.6h0.9v-0.4c0-0.3-0.1-0.6-0.3-0.8c-0.2-0.2-0.5-0.3-0.8-0.3
		c-0.3,0-0.6,0.1-0.8,0.2c-0.2,0.2-0.3,0.4-0.3,0.7h-2c0-0.4,0.1-0.8,0.4-1.2c0.3-0.4,0.6-0.7,1.1-0.9c0.5-0.2,1-0.3,1.6-0.3
		c0.9,0,1.6,0.2,2.2,0.7c0.5,0.5,0.8,1.1,0.8,1.9v3.2c0,0.7,0.1,1.2,0.3,1.6v0.1H255.1z M253.5,45.7c0.3,0,0.6-0.1,0.8-0.2
		c0.2-0.1,0.4-0.3,0.5-0.5v-1.3h-0.7c-1,0-1.5,0.3-1.6,1l0,0.1c0,0.2,0.1,0.4,0.3,0.6C253,45.6,253.2,45.7,253.5,45.7z"/>
	<path class="st7" d="M261.5,43.3c0-1.2,0.3-2.1,0.8-2.8c0.5-0.7,1.2-1,2.1-1c0.7,0,1.3,0.3,1.8,0.8v-3.8h2v10.5h-1.8l-0.1-0.8
		c-0.5,0.6-1.1,0.9-1.9,0.9c-0.9,0-1.6-0.3-2.1-1C261.8,45.5,261.5,44.6,261.5,43.3z M263.5,43.5c0,0.7,0.1,1.2,0.4,1.6
		c0.2,0.4,0.6,0.6,1.1,0.6c0.6,0,1-0.3,1.3-0.8v-2.9c-0.2-0.5-0.7-0.8-1.3-0.8C264,41.2,263.5,41.9,263.5,43.5z"/>
	<path class="st7" d="M273.1,47.2c-1.1,0-2-0.3-2.6-1c-0.7-0.7-1-1.6-1-2.7v-0.2c0-0.7,0.1-1.4,0.4-2c0.3-0.6,0.7-1,1.2-1.4
		c0.5-0.3,1.1-0.5,1.8-0.5c1,0,1.8,0.3,2.4,1s0.9,1.5,0.9,2.7V44h-4.7c0.1,0.5,0.3,0.9,0.6,1.2s0.7,0.4,1.2,0.4
		c0.8,0,1.4-0.3,1.8-0.8l1,1.1c-0.3,0.4-0.7,0.7-1.2,1C274.3,47.1,273.7,47.2,273.1,47.2z M272.9,41.2c-0.4,0-0.7,0.1-1,0.4
		c-0.2,0.3-0.4,0.6-0.5,1.1h2.7v-0.2c0-0.4-0.1-0.8-0.4-1C273.6,41.3,273.3,41.2,272.9,41.2z"/>
	<path class="st7" d="M282.8,47.1h-2V36.6h2V47.1z"/>
	<path class="st7" d="M286.5,47.1h-2V36.6h2V47.1z"/>
	<path class="st7" d="M291.5,47.2c-1.1,0-2-0.3-2.6-1c-0.7-0.7-1-1.6-1-2.7v-0.2c0-0.7,0.1-1.4,0.4-2c0.3-0.6,0.7-1,1.2-1.4
		c0.5-0.3,1.1-0.5,1.8-0.5c1,0,1.8,0.3,2.4,1s0.9,1.5,0.9,2.7V44h-4.7c0.1,0.5,0.3,0.9,0.6,1.2s0.7,0.4,1.2,0.4
		c0.8,0,1.4-0.3,1.8-0.8l1,1.1c-0.3,0.4-0.7,0.7-1.2,1C292.7,47.1,292.1,47.2,291.5,47.2z M291.3,41.2c-0.4,0-0.7,0.1-1,0.4
		c-0.2,0.3-0.4,0.6-0.5,1.1h2.7v-0.2c0-0.4-0.1-0.8-0.4-1C292,41.3,291.7,41.2,291.3,41.2z"/>
	<path class="st7" d="M295.4,43.3c0-1.1,0.3-2,0.8-2.7s1.3-1,2.2-1c0.8,0,1.4,0.3,1.9,0.8l0.1-0.7h1.8v7.2c0,0.6-0.1,1.2-0.4,1.7
		s-0.7,0.8-1.2,1.1s-1.2,0.4-1.9,0.4c-0.5,0-1.1-0.1-1.6-0.3c-0.5-0.2-0.9-0.5-1.2-0.8l0.9-1.2c0.5,0.6,1.1,0.8,1.8,0.8
		c0.5,0,0.9-0.1,1.2-0.4c0.3-0.3,0.4-0.7,0.4-1.2v-0.4c-0.5,0.5-1.1,0.8-1.8,0.8c-0.9,0-1.6-0.3-2.2-1
		C295.7,45.5,295.4,44.6,295.4,43.3L295.4,43.3z M297.4,43.5c0,0.7,0.1,1.2,0.4,1.6c0.3,0.4,0.6,0.6,1.1,0.6c0.6,0,1-0.2,1.3-0.7
		v-3.1c-0.3-0.5-0.7-0.7-1.3-0.7c-0.5,0-0.8,0.2-1.1,0.6C297.5,42.1,297.4,42.7,297.4,43.5z"/>
	<path class="st7" d="M307.9,47.1c-0.1-0.2-0.2-0.4-0.2-0.7c-0.5,0.5-1.1,0.8-1.9,0.8c-0.7,0-1.3-0.2-1.8-0.6
		c-0.5-0.4-0.7-0.9-0.7-1.6c0-0.8,0.3-1.4,0.9-1.8s1.4-0.6,2.5-0.6h0.9v-0.4c0-0.3-0.1-0.6-0.3-0.8c-0.2-0.2-0.5-0.3-0.8-0.3
		c-0.3,0-0.6,0.1-0.8,0.2c-0.2,0.2-0.3,0.4-0.3,0.7h-2c0-0.4,0.1-0.8,0.4-1.2c0.3-0.4,0.6-0.7,1.1-0.9c0.5-0.2,1-0.3,1.6-0.3
		c0.9,0,1.6,0.2,2.2,0.7c0.5,0.5,0.8,1.1,0.8,1.9v3.2c0,0.7,0.1,1.2,0.3,1.6v0.1H307.9z M306.3,45.7c0.3,0,0.6-0.1,0.8-0.2
		c0.2-0.1,0.4-0.3,0.5-0.5v-1.3h-0.7c-1,0-1.5,0.3-1.6,1l0,0.1c0,0.2,0.1,0.4,0.3,0.6C305.8,45.6,306,45.7,306.3,45.7z"/>
	<path class="st7" d="M310.8,43.3c0-1.2,0.3-2.1,0.8-2.8c0.5-0.7,1.2-1,2.1-1c0.7,0,1.3,0.3,1.8,0.8v-3.8h2v10.5h-1.8l-0.1-0.8
		c-0.5,0.6-1.1,0.9-1.9,0.9c-0.9,0-1.6-0.3-2.1-1C311.1,45.5,310.8,44.6,310.8,43.3z M312.8,43.5c0,0.7,0.1,1.2,0.4,1.6
		c0.2,0.4,0.6,0.6,1.1,0.6c0.6,0,1-0.3,1.3-0.8v-2.9c-0.2-0.5-0.7-0.8-1.3-0.8C313.3,41.2,312.8,41.9,312.8,43.5z"/>
	<path class="st7" d="M323.3,47.1c-0.1-0.2-0.2-0.4-0.2-0.7c-0.5,0.5-1.1,0.8-1.9,0.8c-0.7,0-1.3-0.2-1.8-0.6
		c-0.5-0.4-0.7-0.9-0.7-1.6c0-0.8,0.3-1.4,0.9-1.8s1.4-0.6,2.5-0.6h0.9v-0.4c0-0.3-0.1-0.6-0.3-0.8c-0.2-0.2-0.5-0.3-0.8-0.3
		c-0.3,0-0.6,0.1-0.8,0.2c-0.2,0.2-0.3,0.4-0.3,0.7h-2c0-0.4,0.1-0.8,0.4-1.2c0.3-0.4,0.6-0.7,1.1-0.9c0.5-0.2,1-0.3,1.6-0.3
		c0.9,0,1.6,0.2,2.2,0.7c0.5,0.5,0.8,1.1,0.8,1.9v3.2c0,0.7,0.1,1.2,0.3,1.6v0.1H323.3z M321.7,45.7c0.3,0,0.6-0.1,0.8-0.2
		c0.2-0.1,0.4-0.3,0.5-0.5v-1.3h-0.7c-1,0-1.5,0.3-1.6,1l0,0.1c0,0.2,0.1,0.4,0.3,0.6C321.1,45.6,321.4,45.7,321.7,45.7z"/>
</g>
<line class="st8" x1="60.1" y1="136.1" x2="60.1" y2="101.3"/>
<line class="st8" x1="252.2" y1="96.6" x2="252.2" y2="53.2"/>
<g>
	<g class="st6">
		<path class="st7" d="M259.7,148.4l0.6-5.1h5.6v1.6h-4l-0.2,2.1c0.5-0.3,1-0.4,1.5-0.4c0.9,0,1.7,0.3,2.2,0.9
			c0.5,0.6,0.8,1.4,0.8,2.5c0,0.6-0.1,1.2-0.4,1.7c-0.3,0.5-0.7,0.9-1.2,1.2c-0.5,0.3-1.1,0.4-1.8,0.4c-0.6,0-1.2-0.1-1.7-0.4
			c-0.5-0.2-0.9-0.6-1.2-1c-0.3-0.4-0.5-0.9-0.5-1.5h2c0,0.4,0.2,0.7,0.4,1c0.2,0.2,0.6,0.3,1,0.3c0.4,0,0.8-0.2,1-0.5
			c0.2-0.3,0.4-0.8,0.4-1.4c0-0.6-0.1-1-0.4-1.3c-0.3-0.3-0.7-0.5-1.2-0.5c-0.5,0-0.9,0.1-1.1,0.4l-0.2,0.2L259.7,148.4z"/>
		<path class="st7" d="M270.7,149.5c0-1.2,0.3-2.1,0.8-2.8c0.5-0.7,1.2-1,2.1-1c0.7,0,1.3,0.3,1.8,0.8v-3.8h2v10.5h-1.8l-0.1-0.8
			c-0.5,0.6-1.1,0.9-1.9,0.9c-0.9,0-1.6-0.3-2.1-1C271,151.7,270.7,150.7,270.7,149.5z M272.7,149.6c0,0.7,0.1,1.2,0.4,1.6
			c0.2,0.4,0.6,0.6,1.1,0.6c0.6,0,1-0.3,1.3-0.8v-2.9c-0.2-0.5-0.7-0.8-1.3-0.8C273.2,147.3,272.7,148.1,272.7,149.6z"/>
		<path class="st7" d="M281.1,153.3h-2v-7.4h2V153.3z M280.5,142.9h2.2l-1.9,2.1h-1.6L280.5,142.9z"/>
		<path class="st7" d="M287.1,153.3c-0.1-0.2-0.2-0.4-0.2-0.7c-0.5,0.5-1.1,0.8-1.9,0.8c-0.7,0-1.3-0.2-1.8-0.6
			c-0.5-0.4-0.7-0.9-0.7-1.6c0-0.8,0.3-1.4,0.9-1.8s1.4-0.6,2.5-0.6h0.9v-0.4c0-0.3-0.1-0.6-0.3-0.8c-0.2-0.2-0.5-0.3-0.8-0.3
			c-0.3,0-0.6,0.1-0.8,0.2c-0.2,0.2-0.3,0.4-0.3,0.7h-2c0-0.4,0.1-0.8,0.4-1.2c0.3-0.4,0.6-0.7,1.1-0.9c0.5-0.2,1-0.3,1.6-0.3
			c0.9,0,1.6,0.2,2.2,0.7c0.5,0.5,0.8,1.1,0.8,1.9v3.2c0,0.7,0.1,1.2,0.3,1.6v0.1H287.1z M285.4,151.9c0.3,0,0.6-0.1,0.8-0.2
			c0.2-0.1,0.4-0.3,0.5-0.5v-1.3H286c-1,0-1.5,0.3-1.6,1l0,0.1c0,0.2,0.1,0.4,0.3,0.6C284.9,151.8,285.1,151.9,285.4,151.9z"/>
		<path class="st7" d="M294.3,151.2c0-0.2-0.1-0.4-0.4-0.6c-0.2-0.1-0.6-0.3-1.2-0.4c-1.8-0.4-2.6-1.1-2.6-2.2
			c0-0.7,0.3-1.2,0.8-1.6c0.5-0.4,1.3-0.7,2.1-0.7c0.9,0,1.7,0.2,2.3,0.7c0.6,0.4,0.8,1,0.8,1.7h-2c0-0.3-0.1-0.5-0.3-0.7
			c-0.2-0.2-0.5-0.3-0.9-0.3c-0.3,0-0.6,0.1-0.8,0.2c-0.2,0.2-0.3,0.3-0.3,0.6c0,0.2,0.1,0.4,0.3,0.5c0.2,0.1,0.6,0.2,1,0.3
			c0.5,0.1,0.9,0.2,1.2,0.3c1,0.4,1.6,1,1.6,2c0,0.7-0.3,1.2-0.9,1.6c-0.6,0.4-1.3,0.6-2.2,0.6c-0.6,0-1.2-0.1-1.7-0.3
			c-0.5-0.2-0.9-0.5-1.1-0.9c-0.3-0.4-0.4-0.8-0.4-1.2h1.9c0,0.4,0.1,0.6,0.4,0.8c0.2,0.2,0.6,0.3,1,0.3c0.4,0,0.7-0.1,0.9-0.2
			C294.2,151.6,294.3,151.4,294.3,151.2z"/>
		<path class="st7" d="M304,151.8c0.4,0,0.7-0.1,0.9-0.3c0.2-0.2,0.3-0.5,0.4-0.8h1.9c0,0.5-0.1,1-0.4,1.4c-0.3,0.4-0.6,0.7-1.1,1
			c-0.5,0.2-1,0.3-1.5,0.3c-1.1,0-1.9-0.3-2.5-1c-0.6-0.7-0.9-1.6-0.9-2.8v-0.1c0-1.1,0.3-2,0.9-2.7c0.6-0.7,1.4-1,2.5-1
			c0.9,0,1.7,0.3,2.2,0.8c0.6,0.5,0.8,1.2,0.9,2.1h-1.9c0-0.4-0.1-0.7-0.4-0.9c-0.2-0.2-0.5-0.4-0.9-0.4c-0.5,0-0.8,0.2-1,0.5
			c-0.2,0.3-0.4,0.9-0.4,1.6v0.2c0,0.8,0.1,1.3,0.3,1.6S303.6,151.8,304,151.8z"/>
		<path class="st7" d="M308,149.5c0-0.7,0.1-1.4,0.4-2c0.3-0.6,0.7-1,1.2-1.3c0.5-0.3,1.1-0.5,1.8-0.5c1,0,1.8,0.3,2.4,0.9
			c0.6,0.6,1,1.4,1.1,2.5l0,0.5c0,1.1-0.3,2-1,2.7c-0.6,0.7-1.5,1-2.5,1s-1.9-0.3-2.6-1S308,150.7,308,149.5L308,149.5z
			 M309.9,149.6c0,0.7,0.1,1.2,0.4,1.6c0.3,0.4,0.6,0.6,1.1,0.6c0.5,0,0.9-0.2,1.1-0.6c0.3-0.4,0.4-1,0.4-1.8c0-0.7-0.1-1.2-0.4-1.6
			c-0.3-0.4-0.6-0.6-1.1-0.6c-0.5,0-0.9,0.2-1.1,0.6C310.1,148.3,309.9,148.8,309.9,149.6z"/>
		<path class="st7" d="M318,145.9l0.1,0.9c0.5-0.7,1.2-1,2.1-1c0.8,0,1.4,0.2,1.8,0.7s0.6,1.1,0.6,2.1v4.8h-2v-4.7
			c0-0.4-0.1-0.7-0.3-0.9c-0.2-0.2-0.5-0.3-0.9-0.3c-0.6,0-1,0.2-1.3,0.7v5.2h-2v-7.4H318z"/>
		<path class="st7" d="M326.4,144v1.8h1.3v1.4h-1.3v3.7c0,0.3,0.1,0.5,0.2,0.6c0.1,0.1,0.3,0.2,0.6,0.2c0.2,0,0.4,0,0.6,0v1.5
			c-0.4,0.1-0.8,0.2-1.2,0.2c-1.4,0-2.1-0.7-2.1-2.1v-4h-1.1v-1.4h1.1V144H326.4z"/>
		<path class="st7" d="M328.7,143.9c0-0.3,0.1-0.5,0.3-0.7s0.5-0.3,0.8-0.3c0.3,0,0.6,0.1,0.8,0.3c0.2,0.2,0.3,0.4,0.3,0.7
			c0,0.3-0.1,0.5-0.3,0.7c-0.2,0.2-0.5,0.3-0.8,0.3c-0.3,0-0.6-0.1-0.8-0.3C328.8,144.5,328.7,144.2,328.7,143.9z M330.8,153.3h-2
			v-7.4h2V153.3z"/>
		<path class="st7" d="M334.3,145.9l0.1,0.9c0.5-0.7,1.2-1,2.1-1c0.8,0,1.4,0.2,1.8,0.7s0.6,1.1,0.6,2.1v4.8h-2v-4.7
			c0-0.4-0.1-0.7-0.3-0.9c-0.2-0.2-0.5-0.3-0.9-0.3c-0.6,0-1,0.2-1.3,0.7v5.2h-2v-7.4H334.3z"/>
		<path class="st7" d="M344.7,152.5c-0.5,0.6-1.2,0.9-2,0.9c-0.8,0-1.4-0.2-1.8-0.7s-0.6-1.1-0.6-2v-4.8h2v4.8
			c0,0.8,0.4,1.2,1.1,1.2c0.7,0,1.1-0.2,1.4-0.7v-5.2h2v7.4h-1.9L344.7,152.5z"/>
		<path class="st7" d="M347.8,149.5c0-0.7,0.1-1.4,0.4-2c0.3-0.6,0.7-1,1.2-1.3c0.5-0.3,1.1-0.5,1.8-0.5c1,0,1.8,0.3,2.4,0.9
			c0.6,0.6,1,1.4,1.1,2.5l0,0.5c0,1.1-0.3,2-1,2.7c-0.6,0.7-1.5,1-2.5,1s-1.9-0.3-2.6-1S347.8,150.7,347.8,149.5L347.8,149.5z
			 M349.8,149.6c0,0.7,0.1,1.2,0.4,1.6c0.3,0.4,0.6,0.6,1.1,0.6c0.5,0,0.9-0.2,1.1-0.6c0.3-0.4,0.4-1,0.4-1.8c0-0.7-0.1-1.2-0.4-1.6
			c-0.3-0.4-0.6-0.6-1.1-0.6c-0.5,0-0.9,0.2-1.1,0.6C349.9,148.3,349.8,148.8,349.8,149.6z"/>
		<path class="st7" d="M360.1,151.2c0-0.2-0.1-0.4-0.4-0.6c-0.2-0.1-0.6-0.3-1.2-0.4c-1.8-0.4-2.6-1.1-2.6-2.2
			c0-0.7,0.3-1.2,0.8-1.6c0.5-0.4,1.3-0.7,2.1-0.7c0.9,0,1.7,0.2,2.3,0.7c0.6,0.4,0.8,1,0.8,1.7h-2c0-0.3-0.1-0.5-0.3-0.7
			c-0.2-0.2-0.5-0.3-0.9-0.3c-0.3,0-0.6,0.1-0.8,0.2c-0.2,0.2-0.3,0.3-0.3,0.6c0,0.2,0.1,0.4,0.3,0.5c0.2,0.1,0.6,0.2,1,0.3
			c0.5,0.1,0.9,0.2,1.2,0.3c1,0.4,1.6,1,1.6,2c0,0.7-0.3,1.2-0.9,1.6c-0.6,0.4-1.3,0.6-2.2,0.6c-0.6,0-1.2-0.1-1.7-0.3
			c-0.5-0.2-0.9-0.5-1.1-0.9c-0.3-0.4-0.4-0.8-0.4-1.2h1.9c0,0.4,0.1,0.6,0.4,0.8c0.2,0.2,0.6,0.3,1,0.3c0.4,0,0.7-0.1,0.9-0.2
			C360,151.6,360.1,151.4,360.1,151.2z"/>
		<path class="st7" d="M366.4,149.5c0-1.2,0.3-2.1,0.8-2.8c0.5-0.7,1.2-1,2.1-1c0.7,0,1.3,0.3,1.8,0.8v-3.8h2v10.5h-1.8l-0.1-0.8
			c-0.5,0.6-1.1,0.9-1.9,0.9c-0.9,0-1.6-0.3-2.1-1C366.7,151.7,366.4,150.7,366.4,149.5z M368.4,149.6c0,0.7,0.1,1.2,0.4,1.6
			c0.2,0.4,0.6,0.6,1.1,0.6c0.6,0,1-0.3,1.3-0.8v-2.9c-0.2-0.5-0.7-0.8-1.3-0.8C368.9,147.3,368.4,148.1,368.4,149.6z"/>
		<path class="st7" d="M378,153.4c-1.1,0-2-0.3-2.6-1c-0.7-0.7-1-1.6-1-2.7v-0.2c0-0.7,0.1-1.4,0.4-2c0.3-0.6,0.7-1,1.2-1.4
			c0.5-0.3,1.1-0.5,1.8-0.5c1,0,1.8,0.3,2.4,1s0.9,1.5,0.9,2.7v0.8h-4.7c0.1,0.5,0.3,0.9,0.6,1.2s0.7,0.4,1.2,0.4
			c0.8,0,1.4-0.3,1.8-0.8l1,1.1c-0.3,0.4-0.7,0.7-1.2,1C379.2,153.3,378.6,153.4,378,153.4z M377.8,147.3c-0.4,0-0.7,0.1-1,0.4
			c-0.2,0.3-0.4,0.6-0.5,1.1h2.7v-0.2c0-0.4-0.1-0.8-0.4-1C378.5,147.4,378.2,147.3,377.8,147.3z"/>
		<path class="st7" d="M257,162.7l0.1,0.8c0.5-0.6,1.2-1,2.1-1c1,0,1.6,0.4,2,1.1c0.5-0.8,1.3-1.1,2.2-1.1c0.8,0,1.4,0.2,1.8,0.7
			c0.4,0.5,0.6,1.2,0.6,2.1v4.7h-2v-4.7c0-0.4-0.1-0.7-0.2-0.9c-0.2-0.2-0.5-0.3-0.9-0.3c-0.6,0-1,0.3-1.2,0.8l0,5.1h-2v-4.7
			c0-0.4-0.1-0.7-0.3-0.9c-0.2-0.2-0.5-0.3-0.9-0.3c-0.6,0-1,0.2-1.2,0.7v5.2h-2v-7.4H257z"/>
		<path class="st7" d="M271.6,170.1c-0.1-0.2-0.2-0.4-0.2-0.7c-0.5,0.5-1.1,0.8-1.9,0.8c-0.7,0-1.3-0.2-1.8-0.6
			c-0.5-0.4-0.7-0.9-0.7-1.6c0-0.8,0.3-1.4,0.9-1.8s1.4-0.6,2.5-0.6h0.9v-0.4c0-0.3-0.1-0.6-0.3-0.8c-0.2-0.2-0.5-0.3-0.8-0.3
			c-0.3,0-0.6,0.1-0.8,0.2c-0.2,0.2-0.3,0.4-0.3,0.7h-2c0-0.4,0.1-0.8,0.4-1.2c0.3-0.4,0.6-0.7,1.1-0.9c0.5-0.2,1-0.3,1.6-0.3
			c0.9,0,1.6,0.2,2.2,0.7c0.5,0.5,0.8,1.1,0.8,1.9v3.2c0,0.7,0.1,1.2,0.3,1.6v0.1H271.6z M269.9,168.7c0.3,0,0.6-0.1,0.8-0.2
			c0.2-0.1,0.4-0.3,0.5-0.5v-1.3h-0.7c-1,0-1.5,0.3-1.6,1l0,0.1c0,0.2,0.1,0.4,0.3,0.6C269.4,168.6,269.6,168.7,269.9,168.7z"/>
		<path class="st7" d="M276.6,162.7l0.1,0.9c0.5-0.7,1.2-1,2.1-1c0.8,0,1.4,0.2,1.8,0.7s0.6,1.1,0.6,2.1v4.8h-2v-4.7
			c0-0.4-0.1-0.7-0.3-0.9c-0.2-0.2-0.5-0.3-0.9-0.3c-0.6,0-1,0.2-1.3,0.7v5.2h-2v-7.4H276.6z"/>
		<path class="st7" d="M282.6,160.7c0-0.3,0.1-0.5,0.3-0.7s0.5-0.3,0.8-0.3c0.3,0,0.6,0.1,0.8,0.3c0.2,0.2,0.3,0.4,0.3,0.7
			c0,0.3-0.1,0.5-0.3,0.7c-0.2,0.2-0.5,0.3-0.8,0.3c-0.3,0-0.6-0.1-0.8-0.3C282.7,161.3,282.6,161,282.6,160.7z M284.7,170.1h-2
			v-7.4h2V170.1z"/>
		<path class="st7" d="M286.9,170.1v-5.9h-1.1v-1.4h1.1V162c0-0.8,0.2-1.5,0.7-1.9c0.5-0.5,1.1-0.7,2-0.7c0.3,0,0.6,0,1,0.1l0,1.5
			c-0.2,0-0.4-0.1-0.6-0.1c-0.7,0-1.1,0.3-1.1,1v0.6h1.5v1.4h-1.5v5.9H286.9z"/>
		<path class="st7" d="M294.6,170.2c-1.1,0-2-0.3-2.6-1c-0.7-0.7-1-1.6-1-2.7v-0.2c0-0.7,0.1-1.4,0.4-2c0.3-0.6,0.7-1,1.2-1.4
			c0.5-0.3,1.1-0.5,1.8-0.5c1,0,1.8,0.3,2.4,1s0.9,1.5,0.9,2.7v0.8h-4.7c0.1,0.5,0.3,0.9,0.6,1.2s0.7,0.4,1.2,0.4
			c0.8,0,1.4-0.3,1.8-0.8l1,1.1c-0.3,0.4-0.7,0.7-1.2,1C295.8,170.1,295.2,170.2,294.6,170.2z M294.4,164.1c-0.4,0-0.7,0.1-1,0.4
			c-0.2,0.3-0.4,0.6-0.5,1.1h2.7v-0.2c0-0.4-0.1-0.8-0.4-1C295.1,164.2,294.8,164.1,294.4,164.1z"/>
		<path class="st7" d="M302.8,168c0-0.2-0.1-0.4-0.4-0.6c-0.2-0.1-0.6-0.3-1.2-0.4c-1.8-0.4-2.6-1.1-2.6-2.2c0-0.7,0.3-1.2,0.8-1.6
			c0.5-0.4,1.3-0.7,2.1-0.7c0.9,0,1.7,0.2,2.3,0.7c0.6,0.4,0.8,1,0.8,1.7h-2c0-0.3-0.1-0.5-0.3-0.7c-0.2-0.2-0.5-0.3-0.9-0.3
			c-0.3,0-0.6,0.1-0.8,0.2c-0.2,0.2-0.3,0.3-0.3,0.6c0,0.2,0.1,0.4,0.3,0.5c0.2,0.1,0.6,0.2,1,0.3c0.5,0.1,0.9,0.2,1.2,0.3
			c1,0.4,1.6,1,1.6,2c0,0.7-0.3,1.2-0.9,1.6c-0.6,0.4-1.3,0.6-2.2,0.6c-0.6,0-1.2-0.1-1.7-0.3c-0.5-0.2-0.9-0.5-1.1-0.9
			c-0.3-0.4-0.4-0.8-0.4-1.2h1.9c0,0.4,0.1,0.6,0.4,0.8c0.2,0.2,0.6,0.3,1,0.3c0.4,0,0.7-0.1,0.9-0.2
			C302.7,168.4,302.8,168.2,302.8,168z"/>
		<path class="st7" d="M308.3,160.8v1.8h1.3v1.4h-1.3v3.7c0,0.3,0.1,0.5,0.2,0.6c0.1,0.1,0.3,0.2,0.6,0.2c0.2,0,0.4,0,0.6,0v1.5
			c-0.4,0.1-0.8,0.2-1.2,0.2c-1.4,0-2.1-0.7-2.1-2.1v-4h-1.1v-1.4h1.1v-1.8H308.3z"/>
		<path class="st7" d="M315,170.1c-0.1-0.2-0.2-0.4-0.2-0.7c-0.5,0.5-1.1,0.8-1.9,0.8c-0.7,0-1.3-0.2-1.8-0.6
			c-0.5-0.4-0.7-0.9-0.7-1.6c0-0.8,0.3-1.4,0.9-1.8s1.4-0.6,2.5-0.6h0.9v-0.4c0-0.3-0.1-0.6-0.3-0.8c-0.2-0.2-0.5-0.3-0.8-0.3
			c-0.3,0-0.6,0.1-0.8,0.2c-0.2,0.2-0.3,0.4-0.3,0.7h-2c0-0.4,0.1-0.8,0.4-1.2c0.3-0.4,0.6-0.7,1.1-0.9c0.5-0.2,1-0.3,1.6-0.3
			c0.9,0,1.6,0.2,2.2,0.7c0.5,0.5,0.8,1.1,0.8,1.9v3.2c0,0.7,0.1,1.2,0.3,1.6v0.1H315z M313.4,168.7c0.3,0,0.6-0.1,0.8-0.2
			c0.2-0.1,0.4-0.3,0.5-0.5v-1.3H314c-1,0-1.5,0.3-1.6,1l0,0.1c0,0.2,0.1,0.4,0.3,0.6C312.8,168.6,313.1,168.7,313.4,168.7z"/>
		<path class="st7" d="M321.3,168.6c0.4,0,0.7-0.1,0.9-0.3c0.2-0.2,0.3-0.5,0.4-0.8h1.9c0,0.5-0.1,1-0.4,1.4c-0.3,0.4-0.6,0.7-1.1,1
			c-0.5,0.2-1,0.3-1.5,0.3c-1.1,0-1.9-0.3-2.5-1c-0.6-0.7-0.9-1.6-0.9-2.8v-0.1c0-1.1,0.3-2,0.9-2.7c0.6-0.7,1.4-1,2.5-1
			c0.9,0,1.7,0.3,2.2,0.8c0.6,0.5,0.8,1.2,0.9,2.1h-1.9c0-0.4-0.1-0.7-0.4-0.9c-0.2-0.2-0.5-0.4-0.9-0.4c-0.5,0-0.8,0.2-1,0.5
			c-0.2,0.3-0.4,0.9-0.4,1.6v0.2c0,0.8,0.1,1.3,0.3,1.6S320.8,168.6,321.3,168.6z"/>
		<path class="st7" d="M325.5,160.7c0-0.3,0.1-0.5,0.3-0.7s0.5-0.3,0.8-0.3c0.3,0,0.6,0.1,0.8,0.3c0.2,0.2,0.3,0.4,0.3,0.7
			c0,0.3-0.1,0.5-0.3,0.7c-0.2,0.2-0.5,0.3-0.8,0.3c-0.3,0-0.6-0.1-0.8-0.3C325.6,161.3,325.5,161,325.5,160.7z M327.6,170.1h-2
			v-7.4h2V170.1z"/>
		<path class="st7" d="M328.9,166.3c0-0.7,0.1-1.4,0.4-2c0.3-0.6,0.7-1,1.2-1.3c0.5-0.3,1.1-0.5,1.8-0.5c1,0,1.8,0.3,2.4,0.9
			c0.6,0.6,1,1.4,1.1,2.5l0,0.5c0,1.1-0.3,2-1,2.7c-0.6,0.7-1.5,1-2.5,1s-1.9-0.3-2.6-1S328.9,167.5,328.9,166.3L328.9,166.3z
			 M330.9,166.4c0,0.7,0.1,1.2,0.4,1.6c0.3,0.4,0.6,0.6,1.1,0.6c0.5,0,0.9-0.2,1.1-0.6c0.3-0.4,0.4-1,0.4-1.8c0-0.7-0.1-1.2-0.4-1.6
			c-0.3-0.4-0.6-0.6-1.1-0.6c-0.5,0-0.9,0.2-1.1,0.6C331,165.1,330.9,165.6,330.9,166.4z"/>
		<path class="st7" d="M339,162.7l0.1,0.9c0.5-0.7,1.2-1,2.1-1c0.8,0,1.4,0.2,1.8,0.7s0.6,1.1,0.6,2.1v4.8h-2v-4.7
			c0-0.4-0.1-0.7-0.3-0.9c-0.2-0.2-0.5-0.3-0.9-0.3c-0.6,0-1,0.2-1.3,0.7v5.2h-2v-7.4H339z"/>
		<path class="st7" d="M348.4,170.2c-1.1,0-2-0.3-2.6-1c-0.7-0.7-1-1.6-1-2.7v-0.2c0-0.7,0.1-1.4,0.4-2c0.3-0.6,0.7-1,1.2-1.4
			c0.5-0.3,1.1-0.5,1.8-0.5c1,0,1.8,0.3,2.4,1s0.9,1.5,0.9,2.7v0.8h-4.7c0.1,0.5,0.3,0.9,0.6,1.2s0.7,0.4,1.2,0.4
			c0.8,0,1.4-0.3,1.8-0.8l1,1.1c-0.3,0.4-0.7,0.7-1.2,1C349.6,170.1,349,170.2,348.4,170.2z M348.2,164.1c-0.4,0-0.7,0.1-1,0.4
			c-0.2,0.3-0.4,0.6-0.5,1.1h2.7v-0.2c0-0.4-0.1-0.8-0.4-1C348.9,164.2,348.6,164.1,348.2,164.1z"/>
		<path class="st7" d="M356.6,168c0-0.2-0.1-0.4-0.4-0.6c-0.2-0.1-0.6-0.3-1.2-0.4c-1.8-0.4-2.6-1.1-2.6-2.2c0-0.7,0.3-1.2,0.8-1.6
			c0.5-0.4,1.3-0.7,2.1-0.7c0.9,0,1.7,0.2,2.3,0.7c0.6,0.4,0.8,1,0.8,1.7h-2c0-0.3-0.1-0.5-0.3-0.7c-0.2-0.2-0.5-0.3-0.9-0.3
			c-0.3,0-0.6,0.1-0.8,0.2c-0.2,0.2-0.3,0.3-0.3,0.6c0,0.2,0.1,0.4,0.3,0.5c0.2,0.1,0.6,0.2,1,0.3c0.5,0.1,0.9,0.2,1.2,0.3
			c1,0.4,1.6,1,1.6,2c0,0.7-0.3,1.2-0.9,1.6c-0.6,0.4-1.3,0.6-2.2,0.6c-0.6,0-1.2-0.1-1.7-0.3c-0.5-0.2-0.9-0.5-1.1-0.9
			c-0.3-0.4-0.4-0.8-0.4-1.2h1.9c0,0.4,0.1,0.6,0.4,0.8c0.2,0.2,0.6,0.3,1,0.3c0.4,0,0.7-0.1,0.9-0.2
			C356.5,168.4,356.6,168.2,356.6,168z"/>
		<path class="st7" d="M362.9,166.3c0-1.2,0.3-2.1,0.8-2.8c0.5-0.7,1.2-1,2.1-1c0.8,0,1.4,0.3,1.9,0.9l0.1-0.8h1.7v10.2h-2v-3.5
			c-0.5,0.5-1.1,0.8-1.8,0.8c-0.9,0-1.6-0.3-2.1-1C363.2,168.5,362.9,167.5,362.9,166.3z M364.9,166.4c0,0.7,0.1,1.2,0.4,1.6
			c0.2,0.4,0.6,0.6,1,0.6c0.6,0,1-0.2,1.3-0.7v-3.1c-0.2-0.5-0.7-0.7-1.3-0.7c-0.5,0-0.8,0.2-1.1,0.6
			C365,165,364.9,165.6,364.9,166.4z"/>
		<path class="st7" d="M375.6,169.3c-0.5,0.6-1.2,0.9-2,0.9c-0.8,0-1.4-0.2-1.8-0.7s-0.6-1.1-0.6-2v-4.8h2v4.8
			c0,0.8,0.4,1.2,1.1,1.2c0.7,0,1.1-0.2,1.4-0.7v-5.2h2v7.4h-1.9L375.6,169.3z"/>
		<path class="st7" d="M382.4,170.2c-1.1,0-2-0.3-2.6-1c-0.7-0.7-1-1.6-1-2.7v-0.2c0-0.7,0.1-1.4,0.4-2c0.3-0.6,0.7-1,1.2-1.4
			c0.5-0.3,1.1-0.5,1.8-0.5c1,0,1.8,0.3,2.4,1s0.9,1.5,0.9,2.7v0.8h-4.7c0.1,0.5,0.3,0.9,0.6,1.2s0.7,0.4,1.2,0.4
			c0.8,0,1.4-0.3,1.8-0.8l1,1.1c-0.3,0.4-0.7,0.7-1.2,1C383.6,170.1,383,170.2,382.4,170.2z M382.2,164.1c-0.4,0-0.7,0.1-1,0.4
			c-0.2,0.3-0.4,0.6-0.5,1.1h2.7v-0.2c0-0.4-0.1-0.8-0.4-1C382.9,164.2,382.6,164.1,382.2,164.1z"/>
		<path class="st7" d="M257.1,177.6v1.8h1.3v1.4h-1.3v3.7c0,0.3,0.1,0.5,0.2,0.6c0.1,0.1,0.3,0.2,0.6,0.2c0.2,0,0.4,0,0.6,0v1.5
			c-0.4,0.1-0.8,0.2-1.2,0.2c-1.4,0-2.1-0.7-2.1-2.1v-4h-1.1v-1.4h1.1v-1.8H257.1z"/>
		<path class="st7" d="M262.9,187c-1.1,0-2-0.3-2.6-1c-0.7-0.7-1-1.6-1-2.7v-0.2c0-0.7,0.1-1.4,0.4-2c0.3-0.6,0.7-1,1.2-1.4
			c0.5-0.3,1.1-0.5,1.8-0.5c1,0,1.8,0.3,2.4,1s0.9,1.5,0.9,2.7v0.8h-4.7c0.1,0.5,0.3,0.9,0.6,1.2s0.7,0.4,1.2,0.4
			c0.8,0,1.4-0.3,1.8-0.8l1,1.1c-0.3,0.4-0.7,0.7-1.2,1C264.1,186.9,263.5,187,262.9,187z M262.7,180.9c-0.4,0-0.7,0.1-1,0.4
			c-0.2,0.3-0.4,0.6-0.5,1.1h2.7v-0.2c0-0.4-0.1-0.8-0.4-1C263.4,181,263.1,180.9,262.7,180.9z"/>
		<path class="st7" d="M271.2,181.3c-0.3,0-0.5-0.1-0.7-0.1c-0.7,0-1.2,0.3-1.5,0.8v4.8h-2v-7.4h1.9l0.1,0.9c0.4-0.7,0.9-1,1.6-1
			c0.2,0,0.4,0,0.6,0.1L271.2,181.3z"/>
		<path class="st7" d="M274,179.5l0.1,0.8c0.5-0.6,1.2-1,2.1-1c1,0,1.6,0.4,2,1.1c0.5-0.8,1.3-1.1,2.2-1.1c0.8,0,1.4,0.2,1.8,0.7
			c0.4,0.5,0.6,1.2,0.6,2.1v4.7h-2v-4.7c0-0.4-0.1-0.7-0.2-0.9c-0.2-0.2-0.5-0.3-0.9-0.3c-0.6,0-1,0.3-1.2,0.8l0,5.1h-2v-4.7
			c0-0.4-0.1-0.7-0.3-0.9c-0.2-0.2-0.5-0.3-0.9-0.3c-0.6,0-1,0.2-1.2,0.7v5.2h-2v-7.4H274z"/>
		<path class="st7" d="M284.3,177.5c0-0.3,0.1-0.5,0.3-0.7s0.5-0.3,0.8-0.3c0.3,0,0.6,0.1,0.8,0.3c0.2,0.2,0.3,0.4,0.3,0.7
			c0,0.3-0.1,0.5-0.3,0.7c-0.2,0.2-0.5,0.3-0.8,0.3c-0.3,0-0.6-0.1-0.8-0.3C284.4,178.1,284.3,177.8,284.3,177.5z M286.4,186.8h-2
			v-7.4h2V186.8z"/>
		<path class="st7" d="M289.8,179.5l0.1,0.9c0.5-0.7,1.2-1,2.1-1c0.8,0,1.4,0.2,1.8,0.7s0.6,1.1,0.6,2.1v4.8h-2v-4.7
			c0-0.4-0.1-0.7-0.3-0.9c-0.2-0.2-0.5-0.3-0.9-0.3c-0.6,0-1,0.2-1.3,0.7v5.2h-2v-7.4H289.8z"/>
		<path class="st7" d="M300.1,186.8c-0.1-0.2-0.2-0.4-0.2-0.7c-0.5,0.5-1.1,0.8-1.9,0.8c-0.7,0-1.3-0.2-1.8-0.6
			c-0.5-0.4-0.7-0.9-0.7-1.6c0-0.8,0.3-1.4,0.9-1.8s1.4-0.6,2.5-0.6h0.9v-0.4c0-0.3-0.1-0.6-0.3-0.8c-0.2-0.2-0.5-0.3-0.8-0.3
			c-0.3,0-0.6,0.1-0.8,0.2c-0.2,0.2-0.3,0.4-0.3,0.7h-2c0-0.4,0.1-0.8,0.4-1.2c0.3-0.4,0.6-0.7,1.1-0.9c0.5-0.2,1-0.3,1.6-0.3
			c0.9,0,1.6,0.2,2.2,0.7c0.5,0.5,0.8,1.1,0.8,1.9v3.2c0,0.7,0.1,1.2,0.3,1.6v0.1H300.1z M298.5,185.5c0.3,0,0.6-0.1,0.8-0.2
			c0.2-0.1,0.4-0.3,0.5-0.5v-1.3h-0.7c-1,0-1.5,0.3-1.6,1l0,0.1c0,0.2,0.1,0.4,0.3,0.6C297.9,185.4,298.2,185.5,298.5,185.5z"/>
		<path class="st7" d="M305.2,179.5l0.1,0.9c0.5-0.7,1.2-1,2.1-1c0.8,0,1.4,0.2,1.8,0.7s0.6,1.1,0.6,2.1v4.8h-2v-4.7
			c0-0.4-0.1-0.7-0.3-0.9c-0.2-0.2-0.5-0.3-0.9-0.3c-0.6,0-1,0.2-1.3,0.7v5.2h-2v-7.4H305.2z"/>
		<path class="st7" d="M317.7,185.4c0.4,0,0.7-0.1,0.9-0.3c0.2-0.2,0.3-0.5,0.4-0.8h1.9c0,0.5-0.1,1-0.4,1.4c-0.3,0.4-0.6,0.7-1.1,1
			c-0.5,0.2-1,0.3-1.5,0.3c-1.1,0-1.9-0.3-2.5-1c-0.6-0.7-0.9-1.6-0.9-2.8v-0.1c0-1.1,0.3-2,0.9-2.7c0.6-0.7,1.4-1,2.5-1
			c0.9,0,1.7,0.3,2.2,0.8c0.6,0.5,0.8,1.2,0.9,2.1H319c0-0.4-0.1-0.7-0.4-0.9c-0.2-0.2-0.5-0.4-0.9-0.4c-0.5,0-0.8,0.2-1,0.5
			c-0.2,0.3-0.4,0.9-0.4,1.6v0.2c0,0.8,0.1,1.3,0.3,1.6S317.3,185.4,317.7,185.4z"/>
		<path class="st7" d="M321.7,183.1c0-0.7,0.1-1.4,0.4-2c0.3-0.6,0.7-1,1.2-1.3c0.5-0.3,1.1-0.5,1.8-0.5c1,0,1.8,0.3,2.4,0.9
			c0.6,0.6,1,1.4,1.1,2.5l0,0.5c0,1.1-0.3,2-1,2.7c-0.6,0.7-1.5,1-2.5,1s-1.9-0.3-2.6-1S321.7,184.3,321.7,183.1L321.7,183.1z
			 M323.6,183.2c0,0.7,0.1,1.2,0.4,1.6c0.3,0.4,0.6,0.6,1.1,0.6c0.5,0,0.9-0.2,1.1-0.6c0.3-0.4,0.4-1,0.4-1.8c0-0.7-0.1-1.2-0.4-1.6
			c-0.3-0.4-0.6-0.6-1.1-0.6c-0.5,0-0.9,0.2-1.1,0.6C323.8,181.9,323.6,182.4,323.6,183.2z"/>
		<path class="st7" d="M331.7,179.5l0.1,0.9c0.5-0.7,1.2-1,2.1-1c0.8,0,1.4,0.2,1.8,0.7s0.6,1.1,0.6,2.1v4.8h-2v-4.7
			c0-0.4-0.1-0.7-0.3-0.9c-0.2-0.2-0.5-0.3-0.9-0.3c-0.6,0-1,0.2-1.3,0.7v5.2h-2v-7.4H331.7z"/>
		<path class="st7" d="M343.1,179.5l0.1,0.8c0.5-0.6,1.2-1,2.1-1c1,0,1.6,0.4,2,1.1c0.5-0.8,1.3-1.1,2.2-1.1c0.8,0,1.4,0.2,1.8,0.7
			c0.4,0.5,0.6,1.2,0.6,2.1v4.7h-2v-4.7c0-0.4-0.1-0.7-0.2-0.9c-0.2-0.2-0.5-0.3-0.9-0.3c-0.6,0-1,0.3-1.2,0.8l0,5.1h-2v-4.7
			c0-0.4-0.1-0.7-0.3-0.9c-0.2-0.2-0.5-0.3-0.9-0.3c-0.6,0-1,0.2-1.2,0.7v5.2h-2v-7.4H343.1z"/>
		<path class="st7" d="M357.6,186.8c-0.1-0.2-0.2-0.4-0.2-0.7c-0.5,0.5-1.1,0.8-1.9,0.8c-0.7,0-1.3-0.2-1.8-0.6
			c-0.5-0.4-0.7-0.9-0.7-1.6c0-0.8,0.3-1.4,0.9-1.8s1.4-0.6,2.5-0.6h0.9v-0.4c0-0.3-0.1-0.6-0.3-0.8c-0.2-0.2-0.5-0.3-0.8-0.3
			c-0.3,0-0.6,0.1-0.8,0.2c-0.2,0.2-0.3,0.4-0.3,0.7h-2c0-0.4,0.1-0.8,0.4-1.2c0.3-0.4,0.6-0.7,1.1-0.9c0.5-0.2,1-0.3,1.6-0.3
			c0.9,0,1.6,0.2,2.2,0.7c0.5,0.5,0.8,1.1,0.8,1.9v3.2c0,0.7,0.1,1.2,0.3,1.6v0.1H357.6z M356,185.5c0.3,0,0.6-0.1,0.8-0.2
			c0.2-0.1,0.4-0.3,0.5-0.5v-1.3h-0.7c-1,0-1.5,0.3-1.6,1l0,0.1c0,0.2,0.1,0.4,0.3,0.6C355.4,185.4,355.7,185.5,356,185.5z
			 M356.7,176.3h2.2l-1.9,2.1h-1.6L356.7,176.3z"/>
		<path class="st7" d="M364.8,184.8c0-0.2-0.1-0.4-0.4-0.6c-0.2-0.1-0.6-0.3-1.2-0.4c-1.8-0.4-2.6-1.1-2.6-2.2
			c0-0.7,0.3-1.2,0.8-1.6c0.5-0.4,1.3-0.7,2.1-0.7c0.9,0,1.7,0.2,2.3,0.7c0.6,0.4,0.8,1,0.8,1.7h-2c0-0.3-0.1-0.5-0.3-0.7
			c-0.2-0.2-0.5-0.3-0.9-0.3c-0.3,0-0.6,0.1-0.8,0.2c-0.2,0.2-0.3,0.3-0.3,0.6c0,0.2,0.1,0.4,0.3,0.5c0.2,0.1,0.6,0.2,1,0.3
			c0.5,0.1,0.9,0.2,1.2,0.3c1,0.4,1.6,1,1.6,2c0,0.7-0.3,1.2-0.9,1.6c-0.6,0.4-1.3,0.6-2.2,0.6c-0.6,0-1.2-0.1-1.7-0.3
			c-0.5-0.2-0.9-0.5-1.1-0.9c-0.3-0.4-0.4-0.8-0.4-1.2h1.9c0,0.4,0.1,0.6,0.4,0.8c0.2,0.2,0.6,0.3,1,0.3c0.4,0,0.7-0.1,0.9-0.2
			C364.7,185.2,364.8,185,364.8,184.8z"/>
		<path class="st7" d="M371.2,183.1c0-1.2,0.3-2.1,0.8-2.8c0.5-0.7,1.2-1,2.1-1c0.7,0,1.3,0.3,1.8,0.8v-3.8h2v10.5h-1.8l-0.1-0.8
			c-0.5,0.6-1.1,0.9-1.9,0.9c-0.9,0-1.6-0.3-2.1-1C371.5,185.3,371.2,184.3,371.2,183.1z M373.2,183.2c0,0.7,0.1,1.2,0.4,1.6
			c0.2,0.4,0.6,0.6,1.1,0.6c0.6,0,1-0.3,1.3-0.8v-2.9c-0.2-0.5-0.7-0.8-1.3-0.8C373.7,180.9,373.2,181.7,373.2,183.2z"/>
		<path class="st7" d="M382.8,187c-1.1,0-2-0.3-2.6-1c-0.7-0.7-1-1.6-1-2.7v-0.2c0-0.7,0.1-1.4,0.4-2c0.3-0.6,0.7-1,1.2-1.4
			c0.5-0.3,1.1-0.5,1.8-0.5c1,0,1.8,0.3,2.4,1s0.9,1.5,0.9,2.7v0.8h-4.7c0.1,0.5,0.3,0.9,0.6,1.2s0.7,0.4,1.2,0.4
			c0.8,0,1.4-0.3,1.8-0.8l1,1.1c-0.3,0.4-0.7,0.7-1.2,1C384,186.9,383.4,187,382.8,187z M382.6,180.9c-0.4,0-0.7,0.1-1,0.4
			c-0.2,0.3-0.4,0.6-0.5,1.1h2.7v-0.2c0-0.4-0.1-0.8-0.4-1C383.3,181,383,180.9,382.6,180.9z"/>
		<path class="st7" d="M249,197.8h1.1c0.5,0,0.9-0.1,1.1-0.4c0.2-0.3,0.4-0.6,0.4-1c0-0.4-0.1-0.7-0.4-0.9s-0.6-0.3-1-0.3
			c-0.4,0-0.7,0.1-1,0.3c-0.3,0.2-0.4,0.5-0.4,0.8h-2c0-0.5,0.1-1,0.4-1.4c0.3-0.4,0.7-0.7,1.2-1c0.5-0.2,1.1-0.3,1.7-0.3
			c1.1,0,1.9,0.3,2.5,0.8c0.6,0.5,0.9,1.2,0.9,2.1c0,0.5-0.1,0.9-0.4,1.3c-0.3,0.4-0.6,0.7-1.1,0.9c0.6,0.2,1,0.5,1.3,0.9
			c0.3,0.4,0.4,0.9,0.4,1.4c0,0.9-0.3,1.6-1,2.1c-0.6,0.5-1.5,0.8-2.6,0.8c-1,0-1.8-0.3-2.4-0.8c-0.6-0.5-0.9-1.2-0.9-2.1h2
			c0,0.4,0.1,0.7,0.4,0.9s0.6,0.4,1,0.4c0.5,0,0.8-0.1,1.1-0.4c0.3-0.2,0.4-0.6,0.4-1c0-1-0.5-1.5-1.6-1.5h-1V197.8z"/>
		<path class="st7" d="M261.7,199.5c0,1.4-0.3,2.4-0.9,3.2c-0.6,0.7-1.4,1.1-2.5,1.1c-1.1,0-1.9-0.4-2.5-1.1s-0.9-1.7-0.9-3.1v-1.8
			c0-1.4,0.3-2.4,0.9-3.2c0.6-0.7,1.4-1.1,2.5-1.1c1.1,0,1.9,0.4,2.5,1.1c0.6,0.7,0.9,1.7,0.9,3.1V199.5z M259.7,197.5
			c0-0.8-0.1-1.4-0.3-1.8s-0.6-0.6-1.1-0.6c-0.5,0-0.8,0.2-1,0.5c-0.2,0.4-0.3,0.9-0.4,1.7v2.4c0,0.8,0.1,1.4,0.3,1.8
			c0.2,0.4,0.6,0.6,1.1,0.6c0.5,0,0.8-0.2,1-0.6c0.2-0.4,0.3-1,0.3-1.7V197.5z"/>
		<path class="st7" d="M269.7,199.5c0,1.4-0.3,2.4-0.9,3.2c-0.6,0.7-1.4,1.1-2.5,1.1c-1.1,0-1.9-0.4-2.5-1.1s-0.9-1.7-0.9-3.1v-1.8
			c0-1.4,0.3-2.4,0.9-3.2c0.6-0.7,1.4-1.1,2.5-1.1c1.1,0,1.9,0.4,2.5,1.1c0.6,0.7,0.9,1.7,0.9,3.1V199.5z M267.8,197.5
			c0-0.8-0.1-1.4-0.3-1.8s-0.6-0.6-1.1-0.6c-0.5,0-0.8,0.2-1,0.5c-0.2,0.4-0.3,0.9-0.4,1.7v2.4c0,0.8,0.1,1.4,0.3,1.8
			c0.2,0.4,0.6,0.6,1.1,0.6c0.5,0,0.8-0.2,1-0.6c0.2-0.4,0.3-1,0.3-1.7V197.5z"/>
		<path class="st7" d="M277.4,201.2l1.4-5h2.1l-2.5,7.4h-1.9l-2.5-7.4h2.1L277.4,201.2z"/>
		<path class="st7" d="M286.1,202.9c-0.5,0.6-1.2,0.9-2,0.9c-0.8,0-1.4-0.2-1.8-0.7s-0.6-1.1-0.6-2v-4.8h2v4.8
			c0,0.8,0.4,1.2,1.1,1.2c0.7,0,1.1-0.2,1.4-0.7v-5.2h2v7.4h-1.9L286.1,202.9z"/>
		<path class="st7" d="M293,203.8c-1.1,0-2-0.3-2.6-1c-0.7-0.7-1-1.6-1-2.7v-0.2c0-0.7,0.1-1.4,0.4-2c0.3-0.6,0.7-1,1.2-1.4
			c0.5-0.3,1.1-0.5,1.8-0.5c1,0,1.8,0.3,2.4,1s0.9,1.5,0.9,2.7v0.8h-4.7c0.1,0.5,0.3,0.9,0.6,1.2s0.7,0.4,1.2,0.4
			c0.8,0,1.4-0.3,1.8-0.8l1,1.1c-0.3,0.4-0.7,0.7-1.2,1C294.1,203.7,293.6,203.8,293,203.8z M292.7,197.7c-0.4,0-0.7,0.1-1,0.4
			c-0.2,0.3-0.4,0.6-0.5,1.1h2.7v-0.2c0-0.4-0.1-0.8-0.4-1C293.5,197.8,293.2,197.7,292.7,197.7z"/>
		<path class="st7" d="M299.2,203.7h-2v-10.5h2V203.7z"/>
		<path class="st7" d="M300.5,199.9c0-0.7,0.1-1.4,0.4-2c0.3-0.6,0.7-1,1.2-1.3c0.5-0.3,1.1-0.5,1.8-0.5c1,0,1.8,0.3,2.4,0.9
			c0.6,0.6,1,1.4,1.1,2.5l0,0.5c0,1.1-0.3,2-1,2.7c-0.6,0.7-1.5,1-2.5,1s-1.9-0.3-2.6-1S300.5,201.1,300.5,199.9L300.5,199.9z
			 M302.5,200c0,0.7,0.1,1.2,0.4,1.6c0.3,0.4,0.6,0.6,1.1,0.6c0.5,0,0.9-0.2,1.1-0.6c0.3-0.4,0.4-1,0.4-1.8c0-0.7-0.1-1.2-0.4-1.6
			c-0.3-0.4-0.6-0.6-1.1-0.6c-0.5,0-0.9,0.2-1.1,0.6C302.6,198.7,302.5,199.2,302.5,200z"/>
		<path class="st7" d="M312.8,201.6c0-0.2-0.1-0.4-0.4-0.6c-0.2-0.1-0.6-0.3-1.2-0.4c-1.8-0.4-2.6-1.1-2.6-2.2
			c0-0.7,0.3-1.2,0.8-1.6c0.5-0.4,1.3-0.7,2.1-0.7c0.9,0,1.7,0.2,2.3,0.7c0.6,0.4,0.8,1,0.8,1.7h-2c0-0.3-0.1-0.5-0.3-0.7
			c-0.2-0.2-0.5-0.3-0.9-0.3c-0.3,0-0.6,0.1-0.8,0.2c-0.2,0.2-0.3,0.3-0.3,0.6c0,0.2,0.1,0.4,0.3,0.5c0.2,0.1,0.6,0.2,1,0.3
			c0.5,0.1,0.9,0.2,1.2,0.3c1,0.4,1.6,1,1.6,2c0,0.7-0.3,1.2-0.9,1.6c-0.6,0.4-1.3,0.6-2.2,0.6c-0.6,0-1.2-0.1-1.7-0.3
			c-0.5-0.2-0.9-0.5-1.1-0.9c-0.3-0.4-0.4-0.8-0.4-1.2h1.9c0,0.4,0.1,0.6,0.4,0.8c0.2,0.2,0.6,0.3,1,0.3c0.4,0,0.7-0.1,0.9-0.2
			C312.7,202,312.8,201.8,312.8,201.6z"/>
		<path class="st7" d="M322.5,202.2c0.4,0,0.7-0.1,0.9-0.3c0.2-0.2,0.3-0.5,0.4-0.8h1.9c0,0.5-0.1,1-0.4,1.4c-0.3,0.4-0.6,0.7-1.1,1
			c-0.5,0.2-1,0.3-1.5,0.3c-1.1,0-1.9-0.3-2.5-1c-0.6-0.7-0.9-1.6-0.9-2.8v-0.1c0-1.1,0.3-2,0.9-2.7c0.6-0.7,1.4-1,2.5-1
			c0.9,0,1.7,0.3,2.2,0.8c0.6,0.5,0.8,1.2,0.9,2.1h-1.9c0-0.4-0.1-0.7-0.4-0.9c-0.2-0.2-0.5-0.4-0.9-0.4c-0.5,0-0.8,0.2-1,0.5
			c-0.2,0.3-0.4,0.9-0.4,1.6v0.2c0,0.8,0.1,1.3,0.3,1.6S322,202.2,322.5,202.2z"/>
		<path class="st7" d="M331,203.7c-0.1-0.2-0.2-0.4-0.2-0.7c-0.5,0.5-1.1,0.8-1.9,0.8c-0.7,0-1.3-0.2-1.8-0.6
			c-0.5-0.4-0.7-0.9-0.7-1.6c0-0.8,0.3-1.4,0.9-1.8s1.4-0.6,2.5-0.6h0.9v-0.4c0-0.3-0.1-0.6-0.3-0.8c-0.2-0.2-0.5-0.3-0.8-0.3
			c-0.3,0-0.6,0.1-0.8,0.2c-0.2,0.2-0.3,0.4-0.3,0.7h-2c0-0.4,0.1-0.8,0.4-1.2c0.3-0.4,0.6-0.7,1.1-0.9c0.5-0.2,1-0.3,1.6-0.3
			c0.9,0,1.6,0.2,2.2,0.7c0.5,0.5,0.8,1.1,0.8,1.9v3.2c0,0.7,0.1,1.2,0.3,1.6v0.1H331z M329.4,202.3c0.3,0,0.6-0.1,0.8-0.2
			c0.2-0.1,0.4-0.3,0.5-0.5v-1.3H330c-1,0-1.5,0.3-1.6,1l0,0.1c0,0.2,0.1,0.4,0.3,0.6C328.8,202.2,329.1,202.3,329.4,202.3z"/>
		<path class="st7" d="M336.1,196.3l0.1,0.9c0.5-0.7,1.2-1,2.1-1c0.8,0,1.4,0.2,1.8,0.7s0.6,1.1,0.6,2.1v4.8h-2v-4.7
			c0-0.4-0.1-0.7-0.3-0.9c-0.2-0.2-0.5-0.3-0.9-0.3c-0.6,0-1,0.2-1.3,0.7v5.2h-2v-7.4H336.1z"/>
		<path class="st7" d="M345.2,202.2c0.4,0,0.7-0.1,0.9-0.3c0.2-0.2,0.3-0.5,0.4-0.8h1.9c0,0.5-0.1,1-0.4,1.4c-0.3,0.4-0.6,0.7-1.1,1
			c-0.5,0.2-1,0.3-1.5,0.3c-1.1,0-1.9-0.3-2.5-1c-0.6-0.7-0.9-1.6-0.9-2.8v-0.1c0-1.1,0.3-2,0.9-2.7c0.6-0.7,1.4-1,2.5-1
			c0.9,0,1.7,0.3,2.2,0.8c0.6,0.5,0.8,1.2,0.9,2.1h-1.9c0-0.4-0.1-0.7-0.4-0.9c-0.2-0.2-0.5-0.4-0.9-0.4c-0.5,0-0.8,0.2-1,0.5
			c-0.2,0.3-0.4,0.9-0.4,1.6v0.2c0,0.8,0.1,1.3,0.3,1.6S344.7,202.2,345.2,202.2z"/>
		<path class="st7" d="M352.8,203.8c-1.1,0-2-0.3-2.6-1c-0.7-0.7-1-1.6-1-2.7v-0.2c0-0.7,0.1-1.4,0.4-2c0.3-0.6,0.7-1,1.2-1.4
			c0.5-0.3,1.1-0.5,1.8-0.5c1,0,1.8,0.3,2.4,1s0.9,1.5,0.9,2.7v0.8h-4.7c0.1,0.5,0.3,0.9,0.6,1.2s0.7,0.4,1.2,0.4
			c0.8,0,1.4-0.3,1.8-0.8l1,1.1c-0.3,0.4-0.7,0.7-1.2,1C354,203.7,353.4,203.8,352.8,203.8z M352.6,197.7c-0.4,0-0.7,0.1-1,0.4
			c-0.2,0.3-0.4,0.6-0.5,1.1h2.7v-0.2c0-0.4-0.1-0.8-0.4-1C353.3,197.8,353,197.7,352.6,197.7z"/>
		<path class="st7" d="M359,203.7h-2v-10.5h2V203.7z"/>
		<path class="st7" d="M364.9,203.7c-0.1-0.2-0.2-0.4-0.2-0.7c-0.5,0.5-1.1,0.8-1.9,0.8c-0.7,0-1.3-0.2-1.8-0.6
			c-0.5-0.4-0.7-0.9-0.7-1.6c0-0.8,0.3-1.4,0.9-1.8s1.4-0.6,2.5-0.6h0.9v-0.4c0-0.3-0.1-0.6-0.3-0.8c-0.2-0.2-0.5-0.3-0.8-0.3
			c-0.3,0-0.6,0.1-0.8,0.2c-0.2,0.2-0.3,0.4-0.3,0.7h-2c0-0.4,0.1-0.8,0.4-1.2c0.3-0.4,0.6-0.7,1.1-0.9c0.5-0.2,1-0.3,1.6-0.3
			c0.9,0,1.6,0.2,2.2,0.7c0.5,0.5,0.8,1.1,0.8,1.9v3.2c0,0.7,0.1,1.2,0.3,1.6v0.1H364.9z M363.3,202.3c0.3,0,0.6-0.1,0.8-0.2
			c0.2-0.1,0.4-0.3,0.5-0.5v-1.3h-0.7c-1,0-1.5,0.3-1.6,1l0,0.1c0,0.2,0.1,0.4,0.3,0.6C362.8,202.2,363,202.3,363.3,202.3z"/>
		<path class="st7" d="M367.9,199.9c0-1.2,0.3-2.1,0.8-2.8c0.5-0.7,1.2-1,2.1-1c0.7,0,1.3,0.3,1.8,0.8v-3.8h2v10.5h-1.8l-0.1-0.8
			c-0.5,0.6-1.1,0.9-1.9,0.9c-0.9,0-1.6-0.3-2.1-1C368.1,202.1,367.9,201.1,367.9,199.9z M369.8,200c0,0.7,0.1,1.2,0.4,1.6
			c0.2,0.4,0.6,0.6,1.1,0.6c0.6,0,1-0.3,1.3-0.8v-2.9c-0.2-0.5-0.7-0.8-1.3-0.8C370.3,197.7,369.8,198.5,369.8,200z"/>
		<path class="st7" d="M375.7,199.9c0-0.7,0.1-1.4,0.4-2c0.3-0.6,0.7-1,1.2-1.3c0.5-0.3,1.1-0.5,1.8-0.5c1,0,1.8,0.3,2.4,0.9
			c0.6,0.6,1,1.4,1.1,2.5l0,0.5c0,1.1-0.3,2-1,2.7c-0.6,0.7-1.5,1-2.5,1s-1.9-0.3-2.6-1S375.7,201.1,375.7,199.9L375.7,199.9z
			 M377.7,200c0,0.7,0.1,1.2,0.4,1.6c0.3,0.4,0.6,0.6,1.1,0.6c0.5,0,0.9-0.2,1.1-0.6c0.3-0.4,0.4-1,0.4-1.8c0-0.7-0.1-1.2-0.4-1.6
			c-0.3-0.4-0.6-0.6-1.1-0.6c-0.5,0-0.9,0.2-1.1,0.6C377.9,198.7,377.7,199.2,377.7,200z"/>
		<path class="st7" d="M388,201.6c0-0.2-0.1-0.4-0.4-0.6c-0.2-0.1-0.6-0.3-1.2-0.4c-1.8-0.4-2.6-1.1-2.6-2.2c0-0.7,0.3-1.2,0.8-1.6
			c0.5-0.4,1.3-0.7,2.1-0.7c0.9,0,1.7,0.2,2.3,0.7c0.6,0.4,0.8,1,0.8,1.7h-2c0-0.3-0.1-0.5-0.3-0.7c-0.2-0.2-0.5-0.3-0.9-0.3
			c-0.3,0-0.6,0.1-0.8,0.2c-0.2,0.2-0.3,0.3-0.3,0.6c0,0.2,0.1,0.4,0.3,0.5c0.2,0.1,0.6,0.2,1,0.3c0.5,0.1,0.9,0.2,1.2,0.3
			c1,0.4,1.6,1,1.6,2c0,0.7-0.3,1.2-0.9,1.6c-0.6,0.4-1.3,0.6-2.2,0.6c-0.6,0-1.2-0.1-1.7-0.3c-0.5-0.2-0.9-0.5-1.1-0.9
			c-0.3-0.4-0.4-0.8-0.4-1.2h1.9c0,0.4,0.1,0.6,0.4,0.8c0.2,0.2,0.6,0.3,1,0.3c0.4,0,0.7-0.1,0.9-0.2C387.9,202,388,201.8,388,201.6
			z"/>
	</g>
</g>
<line class="st8" x1="320.6" y1="136.1" x2="320.6" y2="102.5"/>
<g>
	<circle class="st4" cx="59.2" cy="99.2" r="3.9"/>
	<path class="st3" d="M59.2,95.8c1.8,0,3.3,1.4,3.3,3.3c0,1.8-1.4,3.3-3.3,3.3s-3.2-1.5-3.2-3.3C55.9,97.3,57.4,95.8,59.2,95.8
		 M59.2,94.6c-2.5,0-4.5,2-4.5,4.5s2,4.5,4.5,4.5s4.5-2,4.5-4.5S61.6,94.6,59.2,94.6L59.2,94.6z"/>
</g>
</svg>
