<?xml version="1.0" encoding="utf-8"?>
<!-- Generator: Adobe Illustrator 25.4.1, SVG Export Plug-In . SVG Version: 6.00 Build 0)  -->
<svg version="1.1" id="Layer_1" xmlns="http://www.w3.org/2000/svg" xmlns:xlink="http://www.w3.org/1999/xlink" x="0px" y="0px"
	 viewBox="0 0 480.3 373.5" style="enable-background:new 0 0 480.3 373.5;" xml:space="preserve">
<style type="text/css">
	.st0{opacity:0.5;}
	.st1{fill:#231F20;stroke:#231F20;stroke-miterlimit:10;}
	.st2{fill:none;stroke:#000000;stroke-width:0.5;stroke-linecap:square;stroke-miterlimit:1;}
	.st3{enable-background:new    ;}
	.st4{fill:#231F20;}
	.st5{fill:#77787B;}
</style>
<image style="overflow:visible;" width="1037" height="925" xlink:href="D7FFB25E.jpg"  transform="matrix(0.4867 0 0 0.4867 451.2758 -71.8636)">
</image>
<image style="overflow:visible;" width="970" height="925" xlink:href="D7FFB25D.jpg"  transform="matrix(0.4862 0 0 0.4862 8.7511 -71.3775)">
</image>
<path class="st1" d="M270,199.1c-1.4,0-2.5,1.1-2.5,2.5s1.1,2.5,2.5,2.5s2.5-1.1,2.5-2.5C272.5,200.2,271.4,199.1,270,199.1"/>
<g>
	<g>
		<g>
			<path class="st2" d="M204.4,215.7c-2.3-12.6-14.2-21.1-26.9-19.1"/>
			<g>
				<polygon points="206,213.6 205.6,213.4 204.3,215.5 202.3,214.1 202,214.5 204.5,216.2 				"/>
			</g>
		</g>
	</g>
	<path class="st1" d="M227.9,55c-1.4,0-2.5,1.1-2.5,2.5s1.1,2.5,2.5,2.5s2.5-1.1,2.5-2.5S229.3,55,227.9,55"/>
	<path class="st1" d="M418.4,98.5c-1.4,0-2.5,1.1-2.5,2.5s1.1,2.5,2.5,2.5s2.5-1.1,2.5-2.5S419.8,98.5,418.4,98.5"/>
	<path class="st1" d="M98.7,296.6c-1.4,0-2.5,1.1-2.5,2.5s1.1,2.5,2.5,2.5s2.5-1.1,2.5-2.5S100.1,296.6,98.7,296.6"/>
	<path class="st1" d="M314.2,79.5c-1.4,0-2.5,1.1-2.5,2.5s1.1,2.5,2.5,2.5s2.5-1.1,2.5-2.5S315.6,79.5,314.2,79.5"/>
	<g class="st3">
		<path class="st4" d="M237.4,58.2v4.1h-0.8v-10h3.4c1,0,1.9,0.3,2.5,0.8s0.9,1.3,0.9,2.2c0,0.9-0.3,1.7-0.9,2.2
			c-0.6,0.5-1.4,0.8-2.5,0.8H237.4z M237.4,57.5h2.5c0.8,0,1.4-0.2,1.9-0.6s0.6-0.9,0.6-1.6c0-0.7-0.2-1.2-0.6-1.6
			c-0.4-0.4-1-0.6-1.8-0.6h-2.6V57.5z"/>
		<path class="st4" d="M247.8,62.4c-0.6,0-1.2-0.2-1.7-0.5s-0.9-0.7-1.2-1.3c-0.3-0.6-0.4-1.2-0.4-1.9v-0.3c0-0.7,0.1-1.4,0.4-1.9
			s0.7-1,1.2-1.3c0.5-0.3,1-0.5,1.6-0.5c0.9,0,1.6,0.3,2.1,0.9c0.5,0.6,0.8,1.5,0.8,2.5v0.5h-5.3v0.2c0,0.8,0.2,1.5,0.7,2.1
			c0.5,0.6,1.1,0.8,1.8,0.8c0.4,0,0.8-0.1,1.2-0.2s0.6-0.4,0.9-0.8l0.5,0.4C249.8,62,248.9,62.4,247.8,62.4z M247.6,55.5
			c-0.6,0-1.1,0.2-1.6,0.7s-0.7,1.1-0.8,1.8h4.4v-0.1c0-0.7-0.2-1.3-0.6-1.7S248.2,55.5,247.6,55.5z"/>
		<path class="st4" d="M253.9,58.6l-0.9,0.9v2.8h-0.8V51.8h0.8v6.7l0.8-0.8l2.8-2.8h1l-3.1,3.1l3.4,4.3h-1L253.9,58.6z"/>
		<path class="st4" d="M260.3,51.9h1l-1.6,1.9l-0.7,0L260.3,51.9z M259.9,62.3h-0.8v-7.4h0.8V62.3z"/>
		<path class="st4" d="M262.9,54.9l0,1.3c0.3-0.5,0.6-0.8,1-1c0.4-0.2,0.9-0.4,1.4-0.4c0.8,0,1.4,0.2,1.8,0.7s0.6,1.1,0.6,2v4.9
			h-0.8v-4.9c0-0.7-0.1-1.2-0.4-1.5s-0.7-0.5-1.3-0.5c-0.5,0-1,0.2-1.3,0.5c-0.4,0.3-0.7,0.7-0.9,1.3v5.1h-0.8v-7.4H262.9z"/>
	</g>
	<g class="st3">
		<path class="st5" d="M39.8,303.3v-10h2.9c1.1,0,1.9,0.2,2.4,0.7c0.6,0.4,0.8,1.1,0.8,1.9c0,0.5-0.1,1-0.4,1.3s-0.7,0.7-1.2,0.8
			c0.6,0.1,1,0.4,1.4,0.9c0.4,0.4,0.5,1,0.5,1.5c0,0.9-0.3,1.6-0.9,2.1s-1.4,0.7-2.4,0.7H39.8z M40.6,297.8h2.3
			c0.7,0,1.2-0.2,1.6-0.5c0.4-0.3,0.6-0.8,0.6-1.4c0-0.6-0.2-1.1-0.6-1.4c-0.4-0.3-1-0.5-1.8-0.5h-2.1V297.8z M40.6,298.5v4.1h2.5
			c0.7,0,1.3-0.2,1.7-0.5c0.4-0.4,0.6-0.9,0.6-1.5c0-0.6-0.2-1.1-0.6-1.5c-0.4-0.4-1-0.5-1.7-0.5H40.6z"/>
		<path class="st5" d="M52.8,303.3c-0.1-0.2-0.1-0.6-0.2-1c-0.3,0.4-0.7,0.7-1.1,0.9c-0.4,0.2-0.9,0.3-1.4,0.3
			c-0.7,0-1.3-0.2-1.7-0.6c-0.4-0.4-0.7-0.9-0.7-1.5c0-0.7,0.3-1.3,0.9-1.7c0.6-0.4,1.4-0.6,2.5-0.6h1.5v-0.8c0-0.5-0.2-0.9-0.5-1.2
			c-0.3-0.3-0.8-0.5-1.4-0.5c-0.6,0-1,0.1-1.4,0.4c-0.4,0.3-0.6,0.6-0.6,1.1l-0.8,0c0-0.6,0.3-1.1,0.8-1.5c0.5-0.4,1.2-0.6,2-0.6
			c0.8,0,1.5,0.2,2,0.6c0.5,0.4,0.7,1,0.7,1.7v3.5c0,0.7,0.1,1.3,0.2,1.6v0.1H52.8z M50.2,302.7c0.5,0,1-0.1,1.5-0.4
			s0.7-0.6,0.9-1.1v-1.6h-1.5c-0.8,0-1.5,0.2-1.9,0.4c-0.5,0.3-0.7,0.7-0.7,1.2c0,0.4,0.2,0.8,0.5,1S49.7,302.7,50.2,302.7z"/>
		<path class="st5" d="M56.4,295.9l0,1.3c0.3-0.5,0.6-0.8,1-1c0.4-0.2,0.9-0.4,1.4-0.4c0.8,0,1.4,0.2,1.8,0.7c0.4,0.4,0.6,1.1,0.6,2
			v4.9h-0.8v-4.9c0-0.7-0.1-1.2-0.4-1.5c-0.3-0.3-0.7-0.5-1.3-0.5c-0.5,0-1,0.2-1.3,0.5c-0.4,0.3-0.7,0.7-0.9,1.3v5.1h-0.8v-7.4
			H56.4z"/>
		<path class="st5" d="M63,299.5c0-1.2,0.3-2.1,0.8-2.8c0.5-0.7,1.2-1,2.1-1c1,0,1.8,0.4,2.3,1.2l0-1.1H69v7.2c0,1-0.3,1.7-0.8,2.3
			s-1.3,0.8-2.2,0.8c-0.5,0-1-0.1-1.5-0.3c-0.5-0.2-0.8-0.5-1.1-0.9l0.5-0.5c0.6,0.7,1.3,1.1,2.1,1.1c0.7,0,1.2-0.2,1.6-0.6
			c0.4-0.4,0.6-1,0.6-1.7v-0.9c-0.5,0.7-1.3,1.1-2.3,1.1c-0.9,0-1.5-0.3-2.1-1s-0.8-1.6-0.8-2.8V299.5z M63.8,299.6
			c0,0.9,0.2,1.7,0.6,2.2c0.4,0.5,0.9,0.8,1.6,0.8c1,0,1.7-0.5,2.1-1.4v-3.4c-0.2-0.5-0.5-0.8-0.8-1.1c-0.4-0.2-0.8-0.4-1.3-0.4
			c-0.7,0-1.2,0.3-1.6,0.8C64,297.8,63.8,298.6,63.8,299.6z"/>
		<path class="st5" d="M72.9,299.5l-0.9,0.9v2.8h-0.8v-10.5h0.8v6.7l0.8-0.8l2.8-2.8h1l-3.1,3.1l3.4,4.3h-1L72.9,299.5z"/>
		<path class="st5" d="M77.5,299.5c0-0.7,0.1-1.4,0.4-1.9c0.3-0.6,0.7-1,1.2-1.3c0.5-0.3,1.1-0.5,1.7-0.5c1,0,1.8,0.3,2.4,1
			c0.6,0.7,0.9,1.6,0.9,2.7v0.2c0,0.7-0.1,1.4-0.4,1.9c-0.3,0.6-0.7,1-1.2,1.3c-0.5,0.3-1.1,0.5-1.7,0.5c-1,0-1.8-0.3-2.4-1
			c-0.6-0.7-0.9-1.6-0.9-2.7V299.5z M78.3,299.7c0,0.9,0.2,1.6,0.7,2.2c0.5,0.6,1.1,0.9,1.8,0.9c0.7,0,1.3-0.3,1.8-0.9
			c0.5-0.6,0.7-1.3,0.7-2.2v-0.2c0-0.6-0.1-1.1-0.3-1.6c-0.2-0.5-0.5-0.8-0.9-1.1c-0.4-0.3-0.8-0.4-1.3-0.4c-0.7,0-1.3,0.3-1.8,0.9
			c-0.5,0.6-0.7,1.3-0.7,2.2V299.7z"/>
		<path class="st5" d="M87.5,299.5l-0.9,0.9v2.8h-0.8v-10.5h0.8v6.7l0.8-0.8l2.8-2.8h1l-3.1,3.1l3.4,4.3h-1L87.5,299.5z"/>
	</g>
	<g>
		<g class="st3">
			<path class="st5" d="M431.3,96.3h-3.4v9.2h-0.8v-9.2h-3.4v-0.7h7.7V96.3z"/>
			<path class="st5" d="M431.6,101.7c0-0.7,0.1-1.4,0.4-1.9c0.3-0.6,0.7-1,1.2-1.3c0.5-0.3,1.1-0.5,1.7-0.5c1,0,1.8,0.3,2.4,1
				c0.6,0.7,0.9,1.6,0.9,2.7v0.2c0,0.7-0.1,1.4-0.4,1.9c-0.3,0.6-0.7,1-1.2,1.3c-0.5,0.3-1.1,0.5-1.7,0.5c-1,0-1.8-0.3-2.4-1
				c-0.6-0.7-0.9-1.6-0.9-2.7V101.7z M432.4,101.9c0,0.9,0.2,1.6,0.7,2.2c0.5,0.6,1.1,0.9,1.8,0.9c0.7,0,1.3-0.3,1.8-0.9
				c0.5-0.6,0.7-1.3,0.7-2.2v-0.2c0-0.6-0.1-1.1-0.3-1.6c-0.2-0.5-0.5-0.8-0.9-1.1c-0.4-0.3-0.8-0.4-1.3-0.4c-0.7,0-1.3,0.3-1.8,0.9
				c-0.5,0.6-0.7,1.3-0.7,2.2V101.9z"/>
			<path class="st5" d="M441.7,101.8l-0.9,0.9v2.8h-0.8V95h0.8v6.7l0.8-0.8l2.8-2.8h1l-3.1,3.1l3.4,4.3h-1L441.7,101.8z"/>
			<path class="st5" d="M446.7,96c0-0.2,0-0.3,0.2-0.4c0.1-0.1,0.2-0.2,0.4-0.2c0.2,0,0.3,0.1,0.4,0.2c0.1,0.1,0.2,0.2,0.2,0.4
				c0,0.2-0.1,0.3-0.2,0.4s-0.2,0.2-0.4,0.2c-0.2,0-0.3-0.1-0.4-0.2C446.8,96.2,446.7,96.1,446.7,96z M447.7,105.5h-0.8v-7.4h0.8
				V105.5z"/>
			<path class="st5" d="M449.4,101.7c0-0.7,0.1-1.4,0.4-1.9c0.3-0.6,0.7-1,1.2-1.3c0.5-0.3,1.1-0.5,1.7-0.5c1,0,1.8,0.3,2.4,1
				c0.6,0.7,0.9,1.6,0.9,2.7v0.2c0,0.7-0.1,1.4-0.4,1.9c-0.3,0.6-0.7,1-1.2,1.3c-0.5,0.3-1.1,0.5-1.7,0.5c-1,0-1.8-0.3-2.4-1
				c-0.6-0.7-0.9-1.6-0.9-2.7V101.7z M450.3,101.9c0,0.9,0.2,1.6,0.7,2.2c0.5,0.6,1.1,0.9,1.8,0.9c0.7,0,1.3-0.3,1.8-0.9
				c0.5-0.6,0.7-1.3,0.7-2.2v-0.2c0-0.6-0.1-1.1-0.3-1.6c-0.2-0.5-0.5-0.8-0.9-1.1c-0.4-0.3-0.8-0.4-1.3-0.4c-0.7,0-1.3,0.3-1.8,0.9
				c-0.5,0.6-0.7,1.3-0.7,2.2V101.9z"/>
		</g>
	</g>
	<g class="st3">
		<path class="st4" d="M109.3,198.4h-0.8v-4.8h-5.7v4.8h-0.8v-10h0.8v4.5h5.7v-4.5h0.8V198.4z"/>
		<path class="st4" d="M111.1,194.6c0-0.7,0.1-1.4,0.4-1.9c0.3-0.6,0.7-1,1.2-1.3c0.5-0.3,1.1-0.5,1.7-0.5c1,0,1.8,0.3,2.4,1
			c0.6,0.7,0.9,1.6,0.9,2.7v0.2c0,0.7-0.1,1.4-0.4,1.9c-0.3,0.6-0.7,1-1.2,1.3c-0.5,0.3-1.1,0.5-1.7,0.5c-1,0-1.8-0.3-2.4-1
			c-0.6-0.7-0.9-1.6-0.9-2.7V194.6z M112,194.8c0,0.9,0.2,1.6,0.7,2.2c0.5,0.6,1.1,0.9,1.8,0.9c0.7,0,1.3-0.3,1.8-0.9
			c0.5-0.6,0.7-1.3,0.7-2.2v-0.2c0-0.6-0.1-1.1-0.3-1.6c-0.2-0.5-0.5-0.8-0.9-1.1c-0.4-0.3-0.8-0.4-1.3-0.4c-0.7,0-1.3,0.3-1.8,0.9
			c-0.5,0.6-0.7,1.3-0.7,2.2V194.8z"/>
		<path class="st4" d="M120.2,191l0,1.3c0.3-0.5,0.6-0.8,1-1c0.4-0.2,0.9-0.4,1.4-0.4c0.8,0,1.4,0.2,1.8,0.7c0.4,0.4,0.6,1.1,0.6,2
			v4.9h-0.8v-4.9c0-0.7-0.1-1.2-0.4-1.5c-0.3-0.3-0.7-0.5-1.3-0.5c-0.5,0-1,0.2-1.3,0.5c-0.4,0.3-0.7,0.7-0.9,1.3v5.1h-0.8V191
			H120.2z"/>
		<path class="st4" d="M126.8,194.7c0-1.2,0.3-2.1,0.8-2.8c0.5-0.7,1.2-1,2.1-1c1,0,1.8,0.4,2.3,1.2l0-1.1h0.8v7.2
			c0,1-0.3,1.7-0.8,2.3s-1.3,0.8-2.2,0.8c-0.5,0-1-0.1-1.5-0.3c-0.5-0.2-0.8-0.5-1.1-0.9l0.5-0.5c0.6,0.7,1.3,1.1,2.1,1.1
			c0.7,0,1.2-0.2,1.6-0.6c0.4-0.4,0.6-1,0.6-1.7v-0.9c-0.5,0.7-1.3,1.1-2.3,1.1c-0.9,0-1.5-0.3-2.1-1s-0.8-1.6-0.8-2.8V194.7z
			 M127.6,194.8c0,0.9,0.2,1.7,0.6,2.2c0.4,0.5,0.9,0.8,1.6,0.8c1,0,1.7-0.5,2.1-1.4v-3.4c-0.2-0.5-0.5-0.8-0.8-1.1
			c-0.4-0.2-0.8-0.4-1.3-0.4c-0.7,0-1.2,0.3-1.6,0.8C127.8,193,127.6,193.8,127.6,194.8z"/>
		<path class="st4" d="M140.7,193.5l-1.4,1.4v3.6h-0.8v-10h0.8v5.4l5.1-5.4h1.1l-4.2,4.4l4.5,5.5h-1L140.7,193.5z"/>
		<path class="st4" d="M146.5,194.6c0-0.7,0.1-1.4,0.4-1.9c0.3-0.6,0.7-1,1.2-1.3c0.5-0.3,1.1-0.5,1.7-0.5c1,0,1.8,0.3,2.4,1
			c0.6,0.7,0.9,1.6,0.9,2.7v0.2c0,0.7-0.1,1.4-0.4,1.9c-0.3,0.6-0.7,1-1.2,1.3c-0.5,0.3-1.1,0.5-1.7,0.5c-1,0-1.8-0.3-2.4-1
			c-0.6-0.7-0.9-1.6-0.9-2.7V194.6z M147.3,194.8c0,0.9,0.2,1.6,0.7,2.2c0.5,0.6,1.1,0.9,1.8,0.9c0.7,0,1.3-0.3,1.8-0.9
			c0.5-0.6,0.7-1.3,0.7-2.2v-0.2c0-0.6-0.1-1.1-0.3-1.6c-0.2-0.5-0.5-0.8-0.9-1.1c-0.4-0.3-0.8-0.4-1.3-0.4c-0.7,0-1.3,0.3-1.8,0.9
			c-0.5,0.6-0.7,1.3-0.7,2.2V194.8z"/>
		<path class="st4" d="M155.6,191l0,1.3c0.3-0.5,0.6-0.8,1-1c0.4-0.2,0.9-0.4,1.4-0.4c0.8,0,1.4,0.2,1.8,0.7c0.4,0.4,0.6,1.1,0.6,2
			v4.9h-0.8v-4.9c0-0.7-0.1-1.2-0.4-1.5c-0.3-0.3-0.7-0.5-1.3-0.5c-0.5,0-1,0.2-1.3,0.5c-0.4,0.3-0.7,0.7-0.9,1.3v5.1h-0.8V191
			H155.6z"/>
		<path class="st4" d="M162.2,194.7c0-1.2,0.3-2.1,0.8-2.8c0.5-0.7,1.2-1,2.1-1c1,0,1.8,0.4,2.3,1.2l0-1.1h0.8v7.2
			c0,1-0.3,1.7-0.8,2.3s-1.3,0.8-2.2,0.8c-0.5,0-1-0.1-1.5-0.3c-0.5-0.2-0.8-0.5-1.1-0.9l0.5-0.5c0.6,0.7,1.3,1.1,2.1,1.1
			c0.7,0,1.2-0.2,1.6-0.6c0.4-0.4,0.6-1,0.6-1.7v-0.9c-0.5,0.7-1.3,1.1-2.3,1.1c-0.9,0-1.5-0.3-2.1-1s-0.8-1.6-0.8-2.8V194.7z
			 M163,194.8c0,0.9,0.2,1.7,0.6,2.2c0.4,0.5,0.9,0.8,1.6,0.8c1,0,1.7-0.5,2.1-1.4v-3.4c-0.2-0.5-0.5-0.8-0.8-1.1
			c-0.4-0.2-0.8-0.4-1.3-0.4c-0.7,0-1.2,0.3-1.6,0.8C163.2,193,163,193.8,163,194.8z"/>
	</g>
</g>
</svg>
