<?xml version="1.0" encoding="utf-8"?>
<!-- Generator: Adobe Illustrator 25.4.1, SVG Export Plug-In . SVG Version: 6.00 Build 0)  -->
<svg version="1.1" id="Layer_1" xmlns="http://www.w3.org/2000/svg" xmlns:xlink="http://www.w3.org/1999/xlink" x="0px" y="0px"
	 viewBox="0 0 487.2 373.5" style="enable-background:new 0 0 487.2 373.5;" xml:space="preserve">
<style type="text/css">
	.st0{fill:none;stroke:#000000;stroke-width:0.5;stroke-linecap:square;stroke-miterlimit:1;}
	.st1{fill:#231F20;stroke:#231F20;stroke-miterlimit:10;}
	.st2{enable-background:new    ;}
	.st3{fill:#231F20;}
	.st4{fill:#77787B;}
</style>
<image style="overflow:visible;enable-background:new    ;" width="1038" height="927" xlink:href="920E06A0.jpg"  transform="matrix(0.486 0 0 0.486 -28.9264 -72.0135)">
</image>
<g>
	<g>
		<g>
			<path class="st0" d="M204.4,217.4c-1.2-6-7-10.1-13.1-9.1"/>
			<g>
				<polygon points="206,215.3 205.5,215 204.3,217.2 202.3,215.9 202,216.3 204.5,217.9 				"/>
			</g>
		</g>
	</g>
	<path class="st1" d="M226.1,53c-1.4,0-2.5,1.1-2.5,2.5s1.1,2.5,2.5,2.5s2.5-1.1,2.5-2.5S227.4,53,226.1,53"/>
	<path class="st1" d="M268.2,197.1c-1.4,0-2.5,1.1-2.5,2.5s1.1,2.5,2.5,2.5s2.5-1.1,2.5-2.5C270.7,198.2,269.6,197.1,268.2,197.1"/>
	<path class="st1" d="M96.9,294.6c-1.4,0-2.5,1.1-2.5,2.5s1.1,2.5,2.5,2.5s2.5-1.1,2.5-2.5S98.2,294.6,96.9,294.6"/>
	<path class="st1" d="M312.4,77.5c-1.4,0-2.5,1.1-2.5,2.5s1.1,2.5,2.5,2.5s2.5-1.1,2.5-2.5S313.8,77.5,312.4,77.5"/>
	<g class="st2">
		<path class="st3" d="M233.5,56.2v4.1h-0.8v-10h3.4c1,0,1.9,0.3,2.5,0.8s0.9,1.3,0.9,2.2s-0.3,1.7-0.9,2.2
			c-0.6,0.5-1.4,0.8-2.5,0.8L233.5,56.2L233.5,56.2z M233.5,55.5h2.5c0.8,0,1.4-0.2,1.9-0.6c0.4-0.4,0.6-0.9,0.6-1.6
			c0-0.7-0.2-1.2-0.6-1.6c-0.4-0.4-1-0.6-1.8-0.6h-2.6L233.5,55.5L233.5,55.5z"/>
		<path class="st3" d="M243.9,60.4c-0.6,0-1.2-0.2-1.7-0.5s-0.9-0.7-1.2-1.3s-0.4-1.2-0.4-1.9v-0.3c0-0.7,0.1-1.4,0.4-1.9
			c0.3-0.6,0.7-1,1.2-1.3s1-0.5,1.6-0.5c0.9,0,1.6,0.3,2.1,0.9c0.5,0.6,0.8,1.5,0.8,2.5v0.5h-5.3v0.2c0,0.8,0.2,1.5,0.7,2.1
			s1.1,0.8,1.8,0.8c0.4,0,0.8-0.1,1.2-0.2s0.6-0.4,0.9-0.8l0.5,0.4C245.9,60,245.1,60.4,243.9,60.4z M243.8,53.5
			c-0.6,0-1.1,0.2-1.6,0.7c-0.4,0.5-0.7,1.1-0.8,1.8h4.4v-0.1c0-0.7-0.2-1.3-0.6-1.7S244.4,53.5,243.8,53.5z"/>
		<path class="st3" d="M250,56.6l-0.9,0.9v2.8h-0.8V49.8h0.8v6.7l0.8-0.8l2.8-2.8h1l-3.1,3.1l3.4,4.3h-1L250,56.6z"/>
		<path class="st3" d="M256.5,49.9h1l-1.6,1.9h-0.7L256.5,49.9z M256,60.3h-0.8v-7.4h0.8V60.3z"/>
		<path class="st3" d="M259,52.9v1.3c0.3-0.5,0.6-0.8,1-1s0.9-0.4,1.4-0.4c0.8,0,1.4,0.2,1.8,0.7c0.4,0.4,0.6,1.1,0.6,2v4.9H263
			v-4.9c0-0.7-0.1-1.2-0.4-1.5s-0.7-0.5-1.3-0.5c-0.5,0-1,0.2-1.3,0.5c-0.4,0.3-0.7,0.7-0.9,1.3v5.1h-0.8V53L259,52.9L259,52.9z"/>
	</g>
	<g>
		<g class="st2">
			<path class="st4" d="M430.5,94.3H427v9.2h-0.8v-9.2h-3.4v-0.7h7.7L430.5,94.3L430.5,94.3z"/>
			<path class="st4" d="M430.7,99.7c0-0.7,0.1-1.4,0.4-1.9c0.3-0.6,0.7-1,1.2-1.3s1.1-0.5,1.7-0.5c1,0,1.8,0.3,2.4,1
				s0.9,1.6,0.9,2.7v0.2c0,0.7-0.1,1.4-0.4,1.9c-0.3,0.6-0.7,1-1.2,1.3s-1.1,0.5-1.7,0.5c-1,0-1.8-0.3-2.4-1s-0.9-1.6-0.9-2.7V99.7z
				 M431.6,99.9c0,0.9,0.2,1.6,0.7,2.2s1.1,0.9,1.8,0.9c0.7,0,1.3-0.3,1.8-0.9s0.7-1.3,0.7-2.2v-0.2c0-0.6-0.1-1.1-0.3-1.6
				c-0.2-0.5-0.5-0.8-0.9-1.1c-0.4-0.3-0.8-0.4-1.3-0.4c-0.7,0-1.3,0.3-1.8,0.9s-0.7,1.3-0.7,2.2L431.6,99.9L431.6,99.9z"/>
			<path class="st4" d="M440.8,99.8l-0.9,0.9v2.8H439V93h0.8v6.7l0.8-0.8l2.8-2.8h1l-3.1,3.1l3.4,4.3h-1L440.8,99.8z"/>
			<path class="st4" d="M445.8,94c0-0.2,0-0.3,0.2-0.4c0.1-0.1,0.2-0.2,0.4-0.2c0.2,0,0.3,0.1,0.4,0.2s0.2,0.2,0.2,0.4
				c0,0.2-0.1,0.3-0.2,0.4s-0.2,0.2-0.4,0.2c-0.2,0-0.3-0.1-0.4-0.2C445.9,94.2,445.8,94.1,445.8,94z M446.8,103.5H446v-7.4h0.8
				V103.5z"/>
			<path class="st4" d="M448.6,99.7c0-0.7,0.1-1.4,0.4-1.9c0.3-0.6,0.7-1,1.2-1.3s1.1-0.5,1.7-0.5c1,0,1.8,0.3,2.4,1
				s0.9,1.6,0.9,2.7v0.2c0,0.7-0.1,1.4-0.4,1.9c-0.3,0.6-0.7,1-1.2,1.3s-1.1,0.5-1.7,0.5c-1,0-1.8-0.3-2.4-1s-0.9-1.6-0.9-2.7V99.7z
				 M449.4,99.9c0,0.9,0.2,1.6,0.7,2.2s1.1,0.9,1.8,0.9c0.7,0,1.3-0.3,1.8-0.9s0.7-1.3,0.7-2.2v-0.2c0-0.6-0.1-1.1-0.3-1.6
				c-0.2-0.5-0.5-0.8-0.9-1.1c-0.4-0.3-0.8-0.4-1.3-0.4c-0.7,0-1.3,0.3-1.8,0.9s-0.7,1.3-0.7,2.2L449.4,99.9L449.4,99.9z"/>
		</g>
	</g>
	<g class="st2">
		<path class="st4" d="M37.9,301.3v-10h2.9c1.1,0,1.9,0.2,2.4,0.7s0.8,1.1,0.8,1.9c0,0.5-0.1,1-0.4,1.3c-0.3,0.4-0.7,0.7-1.2,0.8
			c0.6,0.1,1,0.4,1.4,0.9c0.4,0.4,0.5,1,0.5,1.5c0,0.9-0.3,1.6-0.9,2.1c-0.6,0.5-1.4,0.7-2.4,0.7h-3.1V301.3z M38.7,295.8H41
			c0.7,0,1.2-0.2,1.6-0.5c0.4-0.3,0.6-0.8,0.6-1.4s-0.2-1.1-0.6-1.4c-0.4-0.3-1-0.5-1.8-0.5h-2.1V295.8z M38.7,296.5v4.1h2.5
			c0.7,0,1.3-0.2,1.7-0.5c0.4-0.4,0.6-0.9,0.6-1.5s-0.2-1.1-0.6-1.5c-0.4-0.4-1-0.5-1.7-0.5h-2.5V296.5z"/>
		<path class="st4" d="M50.9,301.3c-0.1-0.2-0.1-0.6-0.2-1c-0.3,0.4-0.7,0.7-1.1,0.9c-0.4,0.2-0.9,0.3-1.4,0.3
			c-0.7,0-1.3-0.2-1.7-0.6s-0.7-0.9-0.7-1.5c0-0.7,0.3-1.3,0.9-1.7c0.6-0.4,1.4-0.6,2.5-0.6h1.5v-0.8c0-0.5-0.2-0.9-0.5-1.2
			c-0.3-0.3-0.8-0.5-1.4-0.5c-0.6,0-1,0.1-1.4,0.4s-0.6,0.6-0.6,1.1H46c0-0.6,0.3-1.1,0.8-1.5s1.2-0.6,2-0.6s1.5,0.2,2,0.6
			s0.7,1,0.7,1.7v3.5c0,0.7,0.1,1.3,0.2,1.6v0.1h-0.8V301.3z M48.4,300.7c0.5,0,1-0.1,1.5-0.4c0.4-0.3,0.7-0.6,0.9-1.1v-1.6h-1.5
			c-0.8,0-1.5,0.2-1.9,0.4c-0.5,0.3-0.7,0.7-0.7,1.2c0,0.4,0.2,0.8,0.5,1C47.5,300.5,47.9,300.7,48.4,300.7z"/>
		<path class="st4" d="M54.6,293.9v1.3c0.3-0.5,0.6-0.8,1-1s0.9-0.4,1.4-0.4c0.8,0,1.4,0.2,1.8,0.7s0.6,1.1,0.6,2v4.9h-0.8v-4.9
			c0-0.7-0.1-1.2-0.4-1.5c-0.3-0.3-0.7-0.5-1.3-0.5c-0.5,0-1,0.2-1.3,0.5c-0.4,0.3-0.7,0.7-0.9,1.3v5.1h-0.8V294h0.7V293.9z"/>
		<path class="st4" d="M61.1,297.5c0-1.2,0.3-2.1,0.8-2.8c0.5-0.7,1.2-1,2.1-1c1,0,1.8,0.4,2.3,1.2v-1.1h0.8v7.2
			c0,1-0.3,1.7-0.8,2.3s-1.3,0.8-2.2,0.8c-0.5,0-1-0.1-1.5-0.3c-0.5-0.2-0.8-0.5-1.1-0.9l0.5-0.5c0.6,0.7,1.3,1.1,2.1,1.1
			c0.7,0,1.2-0.2,1.6-0.6s0.6-1,0.6-1.7v-0.9c-0.5,0.7-1.3,1.1-2.3,1.1c-0.9,0-1.5-0.3-2.1-1s-0.8-1.6-0.8-2.8V297.5z M62,297.6
			c0,0.9,0.2,1.7,0.6,2.2c0.4,0.5,0.9,0.8,1.6,0.8c1,0,1.7-0.5,2.1-1.4v-3.4c-0.2-0.5-0.5-0.8-0.8-1.1c-0.4-0.2-0.8-0.4-1.3-0.4
			c-0.7,0-1.2,0.3-1.6,0.8C62.2,295.8,62,296.6,62,297.6z"/>
		<path class="st4" d="M71,297.5l-0.9,0.9v2.8h-0.8v-10.5h0.8v6.7l0.8-0.8l2.8-2.8h1l-3.1,3.1l3.4,4.3h-1L71,297.5z"/>
		<path class="st4" d="M75.6,297.5c0-0.7,0.1-1.4,0.4-1.9c0.3-0.6,0.7-1,1.2-1.3s1.1-0.5,1.7-0.5c1,0,1.8,0.3,2.4,1s0.9,1.6,0.9,2.7
			v0.2c0,0.7-0.1,1.4-0.4,1.9c-0.3,0.6-0.7,1-1.2,1.3s-1.1,0.5-1.7,0.5c-1,0-1.8-0.3-2.4-1s-0.9-1.6-0.9-2.7V297.5z M76.5,297.7
			c0,0.9,0.2,1.6,0.7,2.2s1.1,0.9,1.8,0.9c0.7,0,1.3-0.3,1.8-0.9s0.7-1.3,0.7-2.2v-0.2c0-0.6-0.1-1.1-0.3-1.6s-0.5-0.8-0.9-1.1
			c-0.4-0.3-0.8-0.4-1.3-0.4c-0.7,0-1.3,0.3-1.8,0.9s-0.7,1.3-0.7,2.2C76.5,297.5,76.5,297.7,76.5,297.7z"/>
		<path class="st4" d="M85.7,297.5l-0.9,0.9v2.8H84v-10.5h0.8v6.7l0.8-0.8l2.8-2.8h1l-3.1,3.1l3.4,4.3h-1L85.7,297.5z"/>
	</g>
	<g class="st2">
		<path class="st3" d="M127.3,211.1h-0.8v-4.8h-5.7v4.8H120v-10h0.8v4.5h5.7v-4.5h0.8V211.1z"/>
		<path class="st3" d="M129.1,207.3c0-0.7,0.1-1.4,0.4-1.9c0.3-0.6,0.7-1,1.2-1.3s1.1-0.5,1.7-0.5c1,0,1.8,0.3,2.4,1
			c0.6,0.7,0.9,1.6,0.9,2.7v0.2c0,0.7-0.1,1.4-0.4,1.9c-0.3,0.6-0.7,1-1.2,1.3s-1.1,0.5-1.7,0.5c-1,0-1.8-0.3-2.4-1
			c-0.6-0.7-0.9-1.6-0.9-2.7V207.3z M130,207.6c0,0.9,0.2,1.6,0.7,2.2c0.5,0.6,1.1,0.9,1.8,0.9s1.3-0.3,1.8-0.9
			c0.5-0.6,0.7-1.3,0.7-2.2v-0.2c0-0.6-0.1-1.1-0.3-1.6s-0.5-0.8-0.9-1.1s-0.8-0.4-1.3-0.4c-0.7,0-1.3,0.3-1.8,0.9
			c-0.5,0.6-0.7,1.3-0.7,2.2V207.6z"/>
		<path class="st3" d="M138.2,203.7v1.3c0.3-0.5,0.6-0.8,1-1s0.9-0.4,1.4-0.4c0.8,0,1.4,0.2,1.8,0.7c0.4,0.4,0.6,1.1,0.6,2v4.9h-0.8
			v-4.9c0-0.7-0.1-1.2-0.4-1.5c-0.3-0.3-0.7-0.5-1.3-0.5c-0.5,0-1,0.2-1.3,0.5c-0.4,0.3-0.7,0.7-0.9,1.3v5.1h-0.8v-7.4h0.7V203.7z"
			/>
		<path class="st3" d="M144.8,207.4c0-1.2,0.3-2.1,0.8-2.8s1.2-1,2.1-1c1,0,1.8,0.4,2.3,1.2v-1.1h0.8v7.2c0,1-0.3,1.7-0.8,2.3
			s-1.3,0.8-2.2,0.8c-0.5,0-1-0.1-1.5-0.3s-0.8-0.5-1.1-0.9l0.5-0.5c0.6,0.7,1.3,1.1,2.1,1.1c0.7,0,1.2-0.2,1.6-0.6
			c0.4-0.4,0.6-1,0.6-1.7v-0.9c-0.5,0.7-1.3,1.1-2.3,1.1c-0.9,0-1.5-0.3-2.1-1s-0.8-1.6-0.8-2.8L144.8,207.4L144.8,207.4z
			 M145.6,207.5c0,0.9,0.2,1.7,0.6,2.2c0.4,0.5,0.9,0.8,1.6,0.8c1,0,1.7-0.5,2.1-1.4v-3.4c-0.2-0.5-0.5-0.8-0.8-1.1
			c-0.4-0.2-0.8-0.4-1.3-0.4c-0.7,0-1.2,0.3-1.6,0.8C145.8,205.7,145.6,206.5,145.6,207.5z"/>
		<path class="st3" d="M158.7,206.2l-1.4,1.4v3.6h-0.8v-10h0.8v5.4l5.1-5.4h1.1l-4.2,4.4l4.5,5.5h-1L158.7,206.2z"/>
		<path class="st3" d="M164.5,207.3c0-0.7,0.1-1.4,0.4-1.9c0.3-0.6,0.7-1,1.2-1.3s1.1-0.5,1.7-0.5c1,0,1.8,0.3,2.4,1
			c0.6,0.7,0.9,1.6,0.9,2.7v0.2c0,0.7-0.1,1.4-0.4,1.9c-0.3,0.6-0.7,1-1.2,1.3s-1.1,0.5-1.7,0.5c-1,0-1.8-0.3-2.4-1
			c-0.6-0.7-0.9-1.6-0.9-2.7V207.3z M165.3,207.6c0,0.9,0.2,1.6,0.7,2.2c0.5,0.6,1.1,0.9,1.8,0.9s1.3-0.3,1.8-0.9
			c0.5-0.6,0.7-1.3,0.7-2.2v-0.2c0-0.6-0.1-1.1-0.3-1.6s-0.5-0.8-0.9-1.1s-0.8-0.4-1.3-0.4c-0.7,0-1.3,0.3-1.8,0.9
			c-0.5,0.6-0.7,1.3-0.7,2.2V207.6z"/>
		<path class="st3" d="M173.6,203.7v1.3c0.3-0.5,0.6-0.8,1-1s0.9-0.4,1.4-0.4c0.8,0,1.4,0.2,1.8,0.7c0.4,0.4,0.6,1.1,0.6,2v4.9h-0.8
			v-4.9c0-0.7-0.1-1.2-0.4-1.5c-0.3-0.3-0.7-0.5-1.3-0.5c-0.5,0-1,0.2-1.3,0.5c-0.4,0.3-0.7,0.7-0.9,1.3v5.1h-0.8v-7.4h0.7V203.7z"
			/>
		<path class="st3" d="M180.1,207.4c0-1.2,0.3-2.1,0.8-2.8s1.2-1,2.1-1c1,0,1.8,0.4,2.3,1.2v-1.1h0.8v7.2c0,1-0.3,1.7-0.8,2.3
			s-1.3,0.8-2.2,0.8c-0.5,0-1-0.1-1.5-0.3s-0.8-0.5-1.1-0.9l0.5-0.5c0.6,0.7,1.3,1.1,2.1,1.1c0.7,0,1.2-0.2,1.6-0.6
			c0.4-0.4,0.6-1,0.6-1.7v-0.9c-0.5,0.7-1.3,1.1-2.3,1.1c-0.9,0-1.5-0.3-2.1-1s-0.8-1.6-0.8-2.8L180.1,207.4L180.1,207.4z
			 M181,207.5c0,0.9,0.2,1.7,0.6,2.2c0.4,0.5,0.9,0.8,1.6,0.8c1,0,1.7-0.5,2.1-1.4v-3.4c-0.2-0.5-0.5-0.8-0.8-1.1
			c-0.4-0.2-0.8-0.4-1.3-0.4c-0.7,0-1.2,0.3-1.6,0.8C181.2,205.7,181,206.5,181,207.5z"/>
	</g>
</g>
<g class="st2">
	<path class="st4" d="M287.9,81.2c0-0.6-0.2-1-0.6-1.3c-0.4-0.3-1.1-0.6-2.1-0.9c-1-0.3-1.8-0.6-2.3-0.9c-0.7-0.5-1-1.1-1-1.9
		c0-0.8,0.3-1.4,0.9-1.9c0.6-0.5,1.4-0.7,2.4-0.7c0.7,0,1.3,0.1,1.8,0.4c0.5,0.3,0.9,0.6,1.2,1.1s0.4,1,0.4,1.5h-0.8
		c0-0.7-0.2-1.2-0.7-1.6c-0.5-0.4-1.1-0.6-1.9-0.6c-0.8,0-1.4,0.2-1.8,0.5c-0.5,0.3-0.7,0.8-0.7,1.3c0,0.5,0.2,0.9,0.6,1.2
		c0.4,0.3,1.1,0.6,1.9,0.8c0.9,0.2,1.6,0.5,2,0.8c0.5,0.3,0.8,0.6,1,0.9s0.3,0.8,0.3,1.3c0,0.8-0.3,1.4-0.9,1.9
		c-0.6,0.5-1.5,0.7-2.5,0.7c-0.7,0-1.3-0.1-1.9-0.4c-0.6-0.3-1-0.6-1.3-1.1c-0.3-0.5-0.5-1-0.5-1.6h0.8c0,0.7,0.3,1.3,0.8,1.7
		c0.5,0.4,1.2,0.6,2.1,0.6c0.8,0,1.4-0.2,1.9-0.5C287.6,82.3,287.9,81.8,287.9,81.2z"/>
	<path class="st4" d="M293.2,83.8c-0.6,0-1.2-0.2-1.7-0.5c-0.5-0.3-0.9-0.7-1.2-1.3c-0.3-0.6-0.4-1.2-0.4-1.9v-0.3
		c0-0.7,0.1-1.4,0.4-1.9c0.3-0.6,0.7-1,1.2-1.3c0.5-0.3,1-0.5,1.6-0.5c0.9,0,1.6,0.3,2.1,0.9c0.5,0.6,0.8,1.5,0.8,2.5V80h-5.3v0.2
		c0,0.8,0.2,1.5,0.7,2.1c0.5,0.6,1.1,0.8,1.8,0.8c0.4,0,0.8-0.1,1.2-0.2s0.6-0.4,0.9-0.8l0.5,0.4C295.2,83.4,294.3,83.8,293.2,83.8z
		 M293,76.8c-0.6,0-1.1,0.2-1.6,0.7c-0.4,0.5-0.7,1.1-0.8,1.8h4.4v-0.1c0-0.7-0.2-1.3-0.6-1.7S293.7,76.8,293,76.8z"/>
	<path class="st4" d="M302.3,82.7c-0.5,0.7-1.3,1.1-2.4,1.1c-0.8,0-1.4-0.2-1.8-0.7c-0.4-0.5-0.6-1.1-0.6-2v-4.8h0.8V81
		c0,1.4,0.6,2.1,1.7,2.1c1.2,0,1.9-0.5,2.2-1.5v-5.4h0.8v7.4h-0.8L302.3,82.7z M301.2,73.2h1l-1.6,1.9l-0.7,0L301.2,73.2z"/>
	<path class="st4" d="M306.2,83.7h-0.8V73.2h0.8V83.7z"/>
</g>
</svg>
