<?xml version="1.0" encoding="utf-8"?>
<!-- Generator: Adobe Illustrator 25.4.1, SVG Export Plug-In . SVG Version: 6.00 Build 0)  -->
<svg version="1.1" id="Layer_1" xmlns="http://www.w3.org/2000/svg" xmlns:xlink="http://www.w3.org/1999/xlink" x="0px" y="0px"
	 viewBox="0 0 339 438.8" style="enable-background:new 0 0 339 438.8;" xml:space="preserve">
<style type="text/css">
	.st0{opacity:0.5;enable-background:new    ;}
	.st1{opacity:0.5;fill:none;stroke:#FF513F;stroke-width:1.5;stroke-miterlimit:10;enable-background:new    ;}
	.st2{fill:none;stroke:#C4C5C7;stroke-width:2;stroke-miterlimit:10;}
	.st3{enable-background:new    ;}
	.st4{opacity:0.5;}
	.st5{fill:none;stroke:url(#SVGID_1_);stroke-width:4;stroke-miterlimit:10;}
	.st6{fill:url(#SVGID_00000063618064842570805690000004326487316770154173_);}
	.st7{fill:none;stroke:url(#SVGID_00000046298919094678191880000004511426857766578590_);stroke-width:4;stroke-miterlimit:10;}
	.st8{fill:url(#SVGID_00000013173728979314577900000003815673822574155196_);}
	.st9{fill:none;stroke:url(#SVGID_00000041986743491614162600000017053058690676868739_);stroke-width:4;stroke-miterlimit:10;}
	.st10{fill:url(#SVGID_00000175282076488111032030000001193415930344983719_);}
	.st11{fill:url(#SVGID_00000014623818281754949060000003749643912011917483_);}
	.st12{fill:url(#SVGID_00000182503949001617173020000018052144214855092891_);}
</style>
<image style="overflow:visible;" width="1201" height="1457" xlink:href="D7295724.jpg"  transform="matrix(0.3012 0 0 0.3012 -9.941 -0.1097)">
</image>
<g class="st0">
	<path d="M147.8,90.6c0-0.5-0.2-0.8-0.5-1.1s-0.9-0.5-1.8-0.8s-1.5-0.5-1.9-0.8c-0.6-0.4-0.9-1-0.9-1.6c0-0.7,0.3-1.2,0.8-1.6
		s1.2-0.6,2.1-0.6c0.6,0,1.1,0.1,1.5,0.3s0.8,0.5,1,0.9s0.4,0.8,0.4,1.3h-0.7c0-0.6-0.2-1.1-0.6-1.4s-0.9-0.5-1.6-0.5
		c-0.7,0-1.2,0.1-1.6,0.4c-0.4,0.3-0.6,0.7-0.6,1.1c0,0.4,0.2,0.8,0.5,1.1c0.3,0.3,0.9,0.5,1.7,0.7c0.8,0.2,1.3,0.4,1.7,0.7
		s0.7,0.5,0.9,0.8s0.3,0.7,0.3,1.1c0,0.7-0.3,1.2-0.8,1.6s-1.2,0.6-2.1,0.6c-0.6,0-1.2-0.1-1.7-0.3s-0.9-0.5-1.1-0.9
		s-0.4-0.8-0.4-1.3h0.7c0,0.6,0.2,1.1,0.7,1.4s1,0.5,1.8,0.5c0.7,0,1.2-0.1,1.6-0.4S147.8,91.1,147.8,90.6z"/>
	<path d="M156.4,92.7h-0.7v-4.1h-4.9v4.1h-0.7v-8.5h0.7V88h4.9v-3.8h0.7V92.7z"/>
	<path d="M163.3,88.6h-4v3.5h4.6v0.6h-5.3v-8.5h5.3v0.6h-4.6V88h4V88.6z"/>
	<path d="M171.7,92.7H171l-4.9-7.3v7.3h-0.7v-8.5h0.7l4.9,7.3v-7.3h0.7V92.7z"/>
	<path d="M174.2,92.1h5.3v0.6h-6.1v-0.5l5.1-7.4h-4.9v-0.6h5.8v0.5L174.2,92.1z"/>
	<path d="M187.4,92.7h-0.7v-4.1h-4.9v4.1h-0.7v-8.5h0.7V88h4.9v-3.8h0.7V92.7z"/>
	<path d="M194.3,88.6h-4v3.5h4.6v0.6h-5.3v-8.5h5.3v0.6h-4.6V88h4V88.6z"/>
	<path d="M202.7,92.7H202l-4.9-7.3v7.3h-0.7v-8.5h0.7l4.9,7.3v-7.3h0.7V92.7z"/>
</g>
<path class="st1" d="M152.5,197.8l-45.3,16.8c-4.8,1.8-7.5,7-6.2,11.9l51.5,194.4"/>
<path class="st1" d="M152.5,197.8L108,215.4c-4.8,1.9-7.3,7.1-5.9,12l54.4,193.5"/>
<path class="st1" d="M152.5,198.9l-44.4,16.7c-4.8,1.8-7.4,6.9-6.2,11.8l9,35.9c1.4,5.7,7.4,8.9,12.9,7.1l24.1-8.1
	c2-0.7,3.7-2,5-3.7L339,0"/>
<path class="st1" d="M152.5,198.9l-45.1,15.7c-4.9,1.7-7.7,7-6.4,12l10.1,38.1c1.4,5.1,6.4,8.3,11.6,7.2l25.8-5.1
	c2.6-0.5,4.8-2,6.3-4.1L339,4"/>
<path class="st1" d="M152.5,197.8L108.7,215c-4.6,1.8-7.2,6.8-6.1,11.6l11.1,47.5c0.7,2.8,2.5,5.2,5.1,6.6L339,396.9"/>
<path class="st1" d="M152.5,197.8L108,215.4c-4.8,1.9-7.3,7.1-5.9,12l58.4,193.5"/>
<circle cx="152.3" cy="197.9" r="3"/>
<path class="st2" d="M190.4,130.6l5.1-2.1l1.8-2.1l2.6-4.1l2.1-3.2l2.6-0.5l2.9,0.2l4,2.4l5-2.6l6.9-2.6l2.1-4.1l3.7-1.5l4.7,1.5
	l4.5-0.3l4.5,0.9l7.2,1.9"/>
<g>
	<g class="st3">
		<path d="M122.9,185.2h-4.1l-0.8,2.3h-2.5l4.2-11.4h2.2l4.3,11.4h-2.5L122.9,185.2z M119.5,183.3h2.8l-1.4-4.3L119.5,183.3z"/>
		<path d="M131,187.7c-1.2,0-2.2-0.4-3-1.1s-1.2-1.8-1.2-3v-0.2c0-0.8,0.2-1.6,0.5-2.3s0.8-1.2,1.4-1.5s1.3-0.5,2.1-0.5
			c1.2,0,2.1,0.4,2.7,1.1s1,1.8,1,3.1v0.9h-5.4c0.1,0.6,0.3,1,0.7,1.3s0.8,0.5,1.4,0.5c0.9,0,1.5-0.3,2-0.9l1.1,1.2
			c-0.3,0.5-0.8,0.9-1.4,1.1S131.7,187.7,131,187.7z M130.8,180.8c-0.4,0-0.8,0.2-1.1,0.5s-0.5,0.7-0.5,1.3h3.1v-0.2
			c0-0.5-0.1-0.9-0.4-1.2S131.2,180.8,130.8,180.8z"/>
		<path d="M140.5,181.2c-0.3,0-0.6-0.1-0.8-0.1c-0.9,0-1.4,0.3-1.7,0.9v5.5h-2.3v-8.5h2.1l0.1,1c0.5-0.8,1.1-1.2,1.9-1.2
			c0.2,0,0.5,0,0.7,0.1L140.5,181.2z"/>
		<path d="M141,183.3c0-0.8,0.2-1.6,0.5-2.2s0.8-1.2,1.4-1.5s1.3-0.5,2.1-0.5c1.1,0,2.1,0.3,2.8,1s1.1,1.6,1.2,2.8l0,0.6
			c0,1.3-0.4,2.3-1.1,3.1s-1.7,1.2-2.9,1.2s-2.2-0.4-2.9-1.2s-1.1-1.8-1.1-3.2V183.3z M143.2,183.4c0,0.8,0.2,1.4,0.5,1.8
			s0.7,0.6,1.3,0.6c0.5,0,1-0.2,1.3-0.6s0.5-1.1,0.5-2c0-0.8-0.2-1.4-0.5-1.8s-0.7-0.6-1.3-0.6c-0.6,0-1,0.2-1.3,0.6
			S143.2,182.5,143.2,183.4z"/>
		<path d="M158,183.4c0,1.3-0.3,2.3-0.9,3.1s-1.4,1.2-2.4,1.2c-0.9,0-1.5-0.3-2.1-0.9v4h-2.3v-11.7h2.1l0.1,0.8c0.5-0.7,1.3-1,2.1-1
			c1,0,1.9,0.4,2.4,1.2s0.9,1.8,0.9,3.2V183.4z M155.7,183.3c0-0.8-0.1-1.4-0.4-1.8s-0.7-0.6-1.2-0.6c-0.7,0-1.2,0.3-1.5,0.8v3.5
			c0.3,0.6,0.8,0.8,1.5,0.8C155.2,185.9,155.7,185,155.7,183.3z"/>
		<path d="M164.5,186.7c-0.6,0.7-1.3,1-2.3,1c-0.9,0-1.6-0.3-2.1-0.8s-0.7-1.3-0.7-2.3v-5.5h2.3v5.5c0,0.9,0.4,1.3,1.2,1.3
			c0.8,0,1.3-0.3,1.6-0.8v-6h2.3v8.5h-2.1L164.5,186.7z"/>
		<path d="M172.2,187.7c-1.2,0-2.2-0.4-3-1.1s-1.2-1.8-1.2-3v-0.2c0-0.8,0.2-1.6,0.5-2.3s0.8-1.2,1.4-1.5s1.3-0.5,2.1-0.5
			c1.2,0,2.1,0.4,2.7,1.1s1,1.8,1,3.1v0.9h-5.4c0.1,0.6,0.3,1,0.7,1.3s0.8,0.5,1.4,0.5c0.9,0,1.5-0.3,2-0.9l1.1,1.2
			c-0.3,0.5-0.8,0.9-1.4,1.1S172.9,187.7,172.2,187.7z M172,180.8c-0.4,0-0.8,0.2-1.1,0.5s-0.5,0.7-0.5,1.3h3.1v-0.2
			c0-0.5-0.1-0.9-0.4-1.2S172.5,180.8,172,180.8z"/>
		<path d="M181.7,181.2c-0.3,0-0.6-0.1-0.8-0.1c-0.9,0-1.4,0.3-1.7,0.9v5.5H177v-8.5h2.1l0.1,1c0.5-0.8,1.1-1.2,1.9-1.2
			c0.2,0,0.5,0,0.7,0.1L181.7,181.2z"/>
		<path d="M185.9,177v2.1h1.4v1.7h-1.4v4.2c0,0.3,0.1,0.5,0.2,0.7s0.3,0.2,0.7,0.2c0.2,0,0.5,0,0.7-0.1v1.7
			c-0.4,0.1-0.9,0.2-1.4,0.2c-1.6,0-2.4-0.8-2.4-2.4v-4.6h-1.2v-1.7h1.2V177H185.9z"/>
		<path d="M188,183.3c0-0.8,0.2-1.6,0.5-2.2s0.8-1.2,1.4-1.5s1.3-0.5,2.1-0.5c1.1,0,2.1,0.3,2.8,1s1.1,1.6,1.2,2.8l0,0.6
			c0,1.3-0.4,2.3-1.1,3.1s-1.7,1.2-2.9,1.2s-2.2-0.4-2.9-1.2s-1.1-1.8-1.1-3.2V183.3z M190.3,183.4c0,0.8,0.2,1.4,0.5,1.8
			s0.7,0.6,1.3,0.6c0.5,0,1-0.2,1.3-0.6s0.5-1.1,0.5-2c0-0.8-0.2-1.4-0.5-1.8s-0.7-0.6-1.3-0.6c-0.6,0-1,0.2-1.3,0.6
			S190.3,182.5,190.3,183.4z"/>
	</g>
</g>
<g class="st4">
	<g class="st3">
		<path d="M228.8,380.9l1.5,6.3l3.6-6.3h0.8l-1.2,7.1h-0.6l0.5-3.1l0.6-3.1l-3.6,6.2h-0.5l-1.5-6.2l-0.5,3.2l-0.5,3.1h-0.6l1.2-7.1
			H228.8z"/>
		<path d="M239.4,386h-3.1l-1.1,2h-0.6l3.8-7.1h0.6l1.4,7.1h-0.6L239.4,386z M236.5,385.5h2.7l-0.7-3.9L236.5,385.5z"/>
		<path d="M244.5,385h-2l-0.5,3h-0.6l1.2-7.1l2.1,0c0.7,0,1.3,0.2,1.6,0.6c0.4,0.4,0.5,0.9,0.5,1.5c0,0.5-0.2,0.9-0.5,1.2
			s-0.7,0.6-1.2,0.8l1.2,3l0,0.1h-0.6L244.5,385z M242.6,384.5l1.8,0c0.5,0,0.9-0.1,1.3-0.4c0.4-0.3,0.6-0.7,0.6-1.2
			c0.1-0.5,0-0.8-0.3-1.1c-0.3-0.3-0.6-0.4-1.1-0.4l-1.7,0L242.6,384.5z"/>
		<path d="M250,388l1.2-7.1l1.9,0c0.6,0,1,0.1,1.4,0.4c0.4,0.3,0.7,0.7,0.9,1.2c0.2,0.5,0.2,1,0.2,1.6l-0.1,0.6
			c-0.1,1-0.5,1.8-1.2,2.4c-0.6,0.6-1.4,0.9-2.3,0.9H250z M251.8,381.4l-1.1,6.1l1.3,0c0.5,0,1-0.1,1.4-0.3s0.8-0.5,1-1
			c0.3-0.4,0.4-0.9,0.5-1.4c0.1-0.5,0.1-0.9,0.1-1.1s0-0.4,0-0.6c-0.1-0.5-0.3-0.9-0.6-1.2s-0.7-0.5-1.2-0.5L251.8,381.4z"/>
		<path d="M260.8,384.6h-3.2l-0.5,2.9h3.7l-0.1,0.5h-4.3l1.2-7.1h4.3l-0.1,0.5h-3.7l-0.5,2.7h3.2L260.8,384.6z"/>
		<path d="M262.7,387.5h3.4L266,388h-4l1.2-7.1h0.6L262.7,387.5z"/>
	</g>
	<g class="st3">
		<path d="M222.4,398.2c0.1-0.6-0.3-1.1-1-1.3l-0.9-0.3l-0.3-0.1c-0.9-0.4-1.4-1-1.3-1.7c0-0.4,0.2-0.7,0.4-1s0.6-0.5,0.9-0.7
			c0.4-0.2,0.8-0.2,1.2-0.2c0.4,0,0.8,0.1,1.1,0.3c0.3,0.2,0.6,0.4,0.7,0.8c0.2,0.3,0.2,0.7,0.2,1.1h-0.6c0-0.5-0.1-0.9-0.3-1.2
			c-0.3-0.3-0.7-0.4-1.2-0.5c-0.5,0-1,0.1-1.3,0.4c-0.4,0.2-0.6,0.6-0.6,1c0,0.3,0.1,0.6,0.3,0.9c0.2,0.2,0.7,0.4,1.2,0.6
			c0.8,0.2,1.3,0.5,1.6,0.9c0.3,0.3,0.4,0.7,0.4,1.2c0,0.4-0.2,0.7-0.4,1c-0.2,0.3-0.6,0.5-1,0.7s-0.8,0.2-1.3,0.2
			c-0.5,0-0.9-0.1-1.2-0.3c-0.4-0.2-0.6-0.4-0.8-0.7c-0.2-0.3-0.3-0.7-0.2-1.1h0.6c0,0.5,0.1,0.9,0.4,1.2c0.3,0.3,0.7,0.4,1.3,0.4
			s1-0.1,1.4-0.4C222.1,399,222.3,398.6,222.4,398.2z"/>
		<path d="M230,392.9l-0.8,4.8c-0.1,0.7-0.4,1.3-0.9,1.8s-1.1,0.6-1.9,0.6c-0.5,0-0.9-0.1-1.2-0.3c-0.3-0.2-0.6-0.5-0.7-0.8
			c-0.2-0.4-0.2-0.8-0.1-1.2l0.8-4.8h0.6l-0.8,4.8c-0.1,0.5,0,1,0.3,1.3c0.3,0.3,0.7,0.5,1.2,0.5c0.5,0,1-0.1,1.4-0.5
			c0.4-0.3,0.6-0.8,0.8-1.3l0.8-4.9H230z"/>
		<path d="M233.5,397h-2l-0.5,3h-0.6l1.2-7.1l2.1,0c0.7,0,1.3,0.2,1.6,0.6c0.4,0.4,0.5,0.9,0.5,1.5c0,0.5-0.2,0.9-0.5,1.2
			c-0.3,0.3-0.7,0.6-1.2,0.8l1.2,3l0,0.1h-0.6L233.5,397z M231.6,396.5l1.8,0c0.5,0,0.9-0.1,1.3-0.4c0.4-0.3,0.6-0.7,0.6-1.2
			c0.1-0.5,0-0.8-0.3-1.1s-0.6-0.4-1.1-0.4l-1.7,0L231.6,396.5z"/>
		<path d="M239,400l1.2-7.1l1.9,0c0.5,0,1,0.1,1.4,0.4c0.4,0.3,0.7,0.7,0.9,1.2c0.2,0.5,0.2,1,0.2,1.6l-0.1,0.6
			c-0.2,1-0.5,1.8-1.2,2.4s-1.4,0.9-2.3,0.9H239z M240.8,393.4l-1.1,6.1l1.3,0c0.5,0,1-0.1,1.4-0.3s0.8-0.5,1-1
			c0.3-0.4,0.4-0.9,0.5-1.4c0.1-0.5,0.1-0.9,0.1-1.1c0-0.2,0-0.4,0-0.6c-0.1-0.5-0.3-0.9-0.6-1.2s-0.7-0.5-1.2-0.5L240.8,393.4z"/>
		<path d="M249.8,396.6h-3.2l-0.5,2.9h3.7l-0.1,0.5h-4.3l1.2-7.1h4.3l-0.1,0.5h-3.7l-0.5,2.7h3.2L249.8,396.6z"/>
		<path d="M258.6,397.8c-0.2,0.7-0.5,1.3-1,1.7c-0.5,0.4-1.1,0.6-1.9,0.6c-0.6,0-1.1-0.2-1.5-0.7c-0.4-0.4-0.6-1-0.6-1.8
			c0-0.3,0-0.5,0-0.8l0.1-0.9c0.1-0.7,0.3-1.2,0.6-1.7c0.3-0.5,0.7-0.9,1.1-1.1s0.9-0.4,1.4-0.4c0.7,0,1.2,0.2,1.6,0.6
			s0.6,1,0.6,1.7l-0.6,0c0-0.6-0.1-1-0.4-1.3c-0.3-0.3-0.7-0.5-1.2-0.5c-0.6,0-1.2,0.2-1.6,0.7c-0.5,0.5-0.7,1.2-0.9,2.1l-0.1,1
			l0,0.4c0,0.4,0,0.7,0.2,1.1c0.1,0.3,0.3,0.6,0.5,0.8s0.5,0.3,0.9,0.3c0.6,0,1-0.1,1.4-0.4c0.4-0.3,0.7-0.8,0.8-1.4L258.6,397.8z"
			/>
		<path d="M264.9,400h-0.6l0.6-3.4h-3.9l-0.6,3.4h-0.6l1.2-7.1h0.6l-0.6,3.2h3.9l0.6-3.2h0.6L264.9,400z"/>
		<path d="M267.4,400h-0.6l1.2-7.1h0.6L267.4,400z"/>
		<path d="M274.4,400h-0.6l-2.9-6.1l-1.1,6.1h-0.6l1.2-7.1h0.6l2.9,6.1l1.1-6.1h0.6L274.4,400z"/>
		<path d="M280.4,398h-3.1l-1.1,2h-0.6l3.8-7.1h0.6l1.4,7.1h-0.6L280.4,398z M277.5,397.5h2.7l-0.7-3.9L277.5,397.5z"/>
	</g>
</g>
<g class="st4">
	<g>
		
			<linearGradient id="SVGID_1_" gradientUnits="userSpaceOnUse" x1="116.5" y1="9600.6084" x2="116.5" y2="9555.5918" gradientTransform="matrix(1 0 0 1 0 -9220.7871)">
			<stop  offset="0" style="stop-color:#000000"/>
			<stop  offset="0.8777" style="stop-color:#000000;stop-opacity:0.1223"/>
			<stop  offset="1" style="stop-color:#000000;stop-opacity:0"/>
		</linearGradient>
		<line class="st5" x1="111.3" y1="335.4" x2="121.7" y2="371"/>
		<g>
			
				<linearGradient id="SVGID_00000119096039837687618010000005996372650350519975_" gradientUnits="userSpaceOnUse" x1="121.25" y1="9600.6084" x2="121.25" y2="9555.5918" gradientTransform="matrix(1 0 0 1 0 -9220.7871)">
				<stop  offset="0" style="stop-color:#000000"/>
				<stop  offset="0.8777" style="stop-color:#000000;stop-opacity:0.1223"/>
				<stop  offset="1" style="stop-color:#000000;stop-opacity:0"/>
			</linearGradient>
			<polygon style="fill:url(#SVGID_00000119096039837687618010000005996372650350519975_);" points="115.5,371 124.1,379.3 
				127,367.6 			"/>
		</g>
	</g>
</g>
<g class="st4">
	<g>
		
			<linearGradient id="SVGID_00000026874016321796412840000015560903951027937208_" gradientUnits="userSpaceOnUse" x1="277.1297" y1="9578.8564" x2="244.8283" y2="9547.501" gradientTransform="matrix(1 0 0 1 0 -9220.7871)">
			<stop  offset="0" style="stop-color:#000000"/>
			<stop  offset="0.8777" style="stop-color:#000000;stop-opacity:0.1223"/>
			<stop  offset="1" style="stop-color:#000000;stop-opacity:0"/>
		</linearGradient>
		
			<line style="fill:none;stroke:url(#SVGID_00000026874016321796412840000015560903951027937208_);stroke-width:4;stroke-miterlimit:10;" x1="241.6" y1="330.8" x2="274.4" y2="348.2"/>
		<g>
			
				<linearGradient id="SVGID_00000021116204931216667030000006790841405694184084_" gradientUnits="userSpaceOnUse" x1="280.4356" y1="9575.4521" x2="248.1342" y2="9544.0967" gradientTransform="matrix(1 0 0 1 0 -9220.7871)">
				<stop  offset="0" style="stop-color:#000000"/>
				<stop  offset="0.8777" style="stop-color:#000000;stop-opacity:0.1223"/>
				<stop  offset="1" style="stop-color:#000000;stop-opacity:0"/>
			</linearGradient>
			<polygon style="fill:url(#SVGID_00000021116204931216667030000006790841405694184084_);" points="270.1,352.6 282,352.2 
				275.7,342.1 			"/>
		</g>
	</g>
</g>
<g class="st4">
	<g>
		
			<linearGradient id="SVGID_00000157996408875755092200000011455549534805032334_" gradientUnits="userSpaceOnUse" x1="327.1782" y1="9272.0781" x2="292.9741" y2="9301.3467" gradientTransform="matrix(1 0 0 1 0 -9220.7871)">
			<stop  offset="0" style="stop-color:#000000"/>
			<stop  offset="0.8777" style="stop-color:#000000;stop-opacity:0.1223"/>
			<stop  offset="1" style="stop-color:#000000;stop-opacity:0"/>
		</linearGradient>
		
			<line style="fill:none;stroke:url(#SVGID_00000157996408875755092200000011455549534805032334_);stroke-width:4;stroke-miterlimit:10;" x1="296.8" y1="84.1" x2="317.1" y2="53.1"/>
		<g>
			
				<linearGradient id="SVGID_00000144323423930982027510000010712780958828469183_" gradientUnits="userSpaceOnUse" x1="324.1055" y1="9268.4873" x2="289.9015" y2="9297.7549" gradientTransform="matrix(1 0 0 1 0 -9220.7871)">
				<stop  offset="0" style="stop-color:#000000"/>
				<stop  offset="0.8777" style="stop-color:#000000;stop-opacity:0.1223"/>
				<stop  offset="1" style="stop-color:#000000;stop-opacity:0"/>
			</linearGradient>
			<polygon style="fill:url(#SVGID_00000144323423930982027510000010712780958828469183_);" points="321.1,57.8 321.8,45.9 
				311.1,51.3 			"/>
		</g>
	</g>
</g>
<linearGradient id="SVGID_00000016785134258491212600000014211237437901827007_" gradientUnits="userSpaceOnUse" x1="-6777.0796" y1="7363.7383" x2="-6777.0796" y2="7329.9385" gradientTransform="matrix(6.123234e-17 -1 1 6.123234e-17 -7025.0381 -6405.7295)">
	<stop  offset="0" style="stop-color:#FFFFFF"/>
	<stop  offset="1" style="stop-color:#FFFFFF;stop-opacity:0"/>
</linearGradient>
<polygon style="fill:url(#SVGID_00000016785134258491212600000014211237437901827007_);" points="304.9,309.4 304.9,433.3 
	338.7,433.3 338.7,309.4 "/>
<linearGradient id="SVGID_00000145737459531418306250000005235541209949879742_" gradientUnits="userSpaceOnUse" x1="-3269.5793" y1="7525.7383" x2="-3269.5793" y2="7491.938" gradientTransform="matrix(1 0 0 1 3411.4294 -7103.8379)">
	<stop  offset="0" style="stop-color:#FFFFFF"/>
	<stop  offset="1" style="stop-color:#FFFFFF;stop-opacity:0"/>
</linearGradient>
<polygon style="fill:url(#SVGID_00000145737459531418306250000005235541209949879742_);" points="203.8,388.1 79.9,388.1 
	79.9,421.9 203.8,421.9 "/>
<g class="st0">
	<path d="M218.4,264.2h-2.3v-4.9h-4.6v4.9h-2.3v-11.4h2.3v4.6h4.6v-4.6h2.3V264.2z"/>
	<path d="M229.8,258.7c0,1.1-0.2,2.1-0.6,2.9c-0.4,0.8-1,1.5-1.7,2c-0.7,0.5-1.6,0.7-2.5,0.7c-0.9,0-1.8-0.2-2.5-0.7
		c-0.7-0.5-1.3-1.1-1.7-1.9s-0.6-1.8-0.6-2.9v-0.6c0-1.1,0.2-2.1,0.6-3c0.4-0.9,1-1.5,1.7-2c0.7-0.5,1.6-0.7,2.5-0.7
		c0.9,0,1.8,0.2,2.5,0.7c0.7,0.5,1.3,1.1,1.7,2c0.4,0.9,0.6,1.8,0.6,2.9V258.7z M227.4,258.2c0-1.2-0.2-2.1-0.6-2.7
		c-0.4-0.6-1-0.9-1.8-0.9c-0.8,0-1.4,0.3-1.8,0.9c-0.4,0.6-0.6,1.5-0.6,2.7v0.6c0,1.2,0.2,2.1,0.6,2.7c0.4,0.6,1,1,1.8,1
		c0.8,0,1.4-0.3,1.8-0.9s0.6-1.5,0.6-2.7V258.2z"/>
	<path d="M240.7,264.2h-2.3l-4.6-7.5v7.5h-2.3v-11.4h2.3l4.6,7.5v-7.5h2.3V264.2z"/>
	<path d="M251.8,262.7c-0.4,0.5-1,0.9-1.8,1.2c-0.8,0.3-1.6,0.4-2.6,0.4c-1,0-1.8-0.2-2.6-0.6s-1.3-1.1-1.7-1.9
		c-0.4-0.8-0.6-1.8-0.6-2.9v-0.8c0-1.1,0.2-2.1,0.6-2.9s0.9-1.5,1.7-1.9c0.7-0.4,1.6-0.7,2.5-0.7c1.3,0,2.4,0.3,3.2,1
		c0.8,0.6,1.2,1.6,1.4,2.8h-2.3c-0.1-0.7-0.3-1.1-0.7-1.4c-0.4-0.3-0.8-0.5-1.5-0.5c-0.8,0-1.4,0.3-1.8,0.9
		c-0.4,0.6-0.6,1.5-0.6,2.7v0.7c0,1.2,0.2,2.1,0.7,2.7s1.1,0.9,2,0.9c0.9,0,1.5-0.2,1.9-0.6v-2h-2.1v-1.7h4.5V262.7z"/>
	<path d="M261.2,259.6l-1.2,1.3v3.2h-2.3v-11.4h2.3v5.2l1-1.4l2.9-3.7h2.9l-4,5.1l4.2,6.3h-2.8L261.2,259.6z"/>
	<path d="M276.9,258.7c0,1.1-0.2,2.1-0.6,2.9c-0.4,0.8-1,1.5-1.7,2c-0.7,0.5-1.6,0.7-2.5,0.7c-0.9,0-1.8-0.2-2.5-0.7
		c-0.7-0.5-1.3-1.1-1.7-1.9s-0.6-1.8-0.6-2.9v-0.6c0-1.1,0.2-2.1,0.6-3c0.4-0.9,1-1.5,1.7-2c0.7-0.5,1.6-0.7,2.5-0.7
		c0.9,0,1.8,0.2,2.5,0.7c0.7,0.5,1.3,1.1,1.7,2c0.4,0.9,0.6,1.8,0.6,2.9V258.7z M274.6,258.2c0-1.2-0.2-2.1-0.6-2.7
		c-0.4-0.6-1-0.9-1.8-0.9c-0.8,0-1.4,0.3-1.8,0.9c-0.4,0.6-0.6,1.5-0.6,2.7v0.6c0,1.2,0.2,2.1,0.6,2.7c0.4,0.6,1,1,1.8,1
		c0.8,0,1.4-0.3,1.8-0.9s0.6-1.5,0.6-2.7V258.2z"/>
	<path d="M287.9,264.2h-2.3l-4.6-7.5v7.5h-2.3v-11.4h2.3l4.6,7.5v-7.5h2.3V264.2z"/>
	<path d="M298.9,262.7c-0.4,0.5-1,0.9-1.8,1.2c-0.8,0.3-1.6,0.4-2.6,0.4c-1,0-1.8-0.2-2.6-0.6s-1.3-1.1-1.7-1.9
		c-0.4-0.8-0.6-1.8-0.6-2.9v-0.8c0-1.1,0.2-2.1,0.6-2.9s0.9-1.5,1.7-1.9c0.7-0.4,1.6-0.7,2.5-0.7c1.3,0,2.4,0.3,3.2,1
		c0.8,0.6,1.2,1.6,1.4,2.8h-2.3c-0.1-0.7-0.3-1.1-0.7-1.4c-0.4-0.3-0.8-0.5-1.5-0.5c-0.8,0-1.4,0.3-1.8,0.9
		c-0.4,0.6-0.6,1.5-0.6,2.7v0.7c0,1.2,0.2,2.1,0.7,2.7s1.1,0.9,2,0.9c0.9,0,1.5-0.2,1.9-0.6v-2h-2.1v-1.7h4.5V262.7z"/>
</g>
</svg>
