<?xml version="1.0" encoding="utf-8"?>
<!-- Generator: Adobe Illustrator 25.4.1, SVG Export Plug-In . SVG Version: 6.00 Build 0)  -->
<svg version="1.1" id="Layer_1" xmlns="http://www.w3.org/2000/svg" xmlns:xlink="http://www.w3.org/1999/xlink" x="0px" y="0px"
	 viewBox="0 0 339 439.9" style="enable-background:new 0 0 339 439.9;" xml:space="preserve">
<style type="text/css">
	.st0{fill:none;stroke:#C3C4C6;stroke-width:2;stroke-miterlimit:10;}
	.st1{opacity:0.5;enable-background:new    ;}
	.st2{fill:url(#SVGID_1_);}
	.st3{fill:none;stroke:#000000;stroke-width:0.5;stroke-linecap:square;stroke-miterlimit:1;}
	.st4{enable-background:new    ;}
	.st5{fill:#383838;}
	.st6{opacity:0.5;}
</style>
<image style="overflow:visible;" width="1201" height="1457" xlink:href="EA2E0D54.jpg"  transform="matrix(0.3012 0 0 0.3012 -10.441 0.5)">
</image>
<path class="st0" d="M190.4,131.7l5.1-2.1l1.8-2.1l2.6-4.1l2.1-3.2l2.6-0.5l2.9,0.2l4,2.4l5-2.6l6.9-2.6l2.1-4.1l3.7-1.5l4.7,1.5
	l4.5-0.3l4.5,0.9l7.2,1.9"/>
<circle cx="152.3" cy="200" r="3"/>
<g class="st1">
	<path d="M147.8,102c0-0.5-0.2-0.8-0.5-1.1s-0.9-0.5-1.8-0.8s-1.5-0.5-1.9-0.8c-0.6-0.4-0.9-1-0.9-1.6c0-0.7,0.3-1.2,0.8-1.6
		s1.2-0.6,2.1-0.6c0.6,0,1.1,0.1,1.5,0.3s0.8,0.5,1,0.9s0.4,0.8,0.4,1.3h-0.7c0-0.6-0.2-1.1-0.6-1.4s-0.9-0.5-1.6-0.5
		c-0.7,0-1.2,0.1-1.6,0.4c-0.4,0.3-0.6,0.7-0.6,1.1c0,0.4,0.2,0.8,0.5,1.1c0.3,0.3,0.9,0.5,1.7,0.7c0.8,0.2,1.3,0.4,1.7,0.7
		s0.7,0.5,0.9,0.8s0.3,0.7,0.3,1.1c0,0.7-0.3,1.2-0.8,1.6s-1.2,0.6-2.1,0.6c-0.6,0-1.2-0.1-1.7-0.3s-0.9-0.5-1.1-0.9
		s-0.4-0.8-0.4-1.3h0.7c0,0.6,0.2,1.1,0.7,1.4s1,0.5,1.8,0.5c0.7,0,1.2-0.1,1.6-0.4S147.8,102.4,147.8,102z"/>
	<path d="M156.4,104.1h-0.7V100h-4.9v4.1h-0.7v-8.5h0.7v3.8h4.9v-3.8h0.7V104.1z"/>
	<path d="M163.3,100h-4v3.5h4.6v0.6h-5.3v-8.5h5.3v0.6h-4.6v3.2h4V100z"/>
	<path d="M171.7,104.1H171l-4.9-7.3v7.3h-0.7v-8.5h0.7l4.9,7.3v-7.3h0.7V104.1z"/>
	<path d="M174.2,103.4h5.3v0.6h-6.1v-0.5l5.1-7.4h-4.9v-0.6h5.8V96L174.2,103.4z"/>
	<path d="M187.4,104.1h-0.7V100h-4.9v4.1h-0.7v-8.5h0.7v3.8h4.9v-3.8h0.7V104.1z"/>
	<path d="M194.3,100h-4v3.5h4.6v0.6h-5.3v-8.5h5.3v0.6h-4.6v3.2h4V100z"/>
	<path d="M202.7,104.1H202l-4.9-7.3v7.3h-0.7v-8.5h0.7l4.9,7.3v-7.3h0.7V104.1z"/>
</g>
<g class="st1">
	<path d="M192.6,166.8h-2.3v-4.9h-4.6v4.9h-2.3v-11.4h2.3v4.6h4.6v-4.6h2.3V166.8z"/>
	<path d="M204,161.4c0,1.1-0.2,2.1-0.6,2.9s-1,1.5-1.7,2s-1.6,0.7-2.5,0.7c-0.9,0-1.8-0.2-2.5-0.7s-1.3-1.1-1.7-1.9
		s-0.6-1.8-0.6-2.9v-0.6c0-1.1,0.2-2.1,0.6-3s1-1.5,1.7-2s1.6-0.7,2.5-0.7s1.8,0.2,2.5,0.7s1.3,1.1,1.7,2s0.6,1.8,0.6,2.9V161.4z
		 M201.6,160.8c0-1.2-0.2-2.1-0.6-2.7s-1-0.9-1.8-0.9c-0.8,0-1.4,0.3-1.8,0.9s-0.6,1.5-0.6,2.7v0.6c0,1.2,0.2,2.1,0.6,2.7s1,1,1.8,1
		c0.8,0,1.4-0.3,1.8-0.9s0.6-1.5,0.6-2.7V160.8z"/>
	<path d="M214.9,166.8h-2.3l-4.6-7.5v7.5h-2.3v-11.4h2.3l4.6,7.5v-7.5h2.3V166.8z"/>
	<path d="M226,165.4c-0.4,0.5-1,0.9-1.8,1.2s-1.6,0.4-2.6,0.4c-1,0-1.8-0.2-2.6-0.6s-1.3-1.1-1.7-1.9s-0.6-1.8-0.6-2.9v-0.8
		c0-1.1,0.2-2.1,0.6-2.9s0.9-1.5,1.7-1.9s1.6-0.7,2.5-0.7c1.3,0,2.4,0.3,3.2,1s1.2,1.6,1.4,2.8h-2.3c-0.1-0.7-0.3-1.1-0.7-1.4
		s-0.8-0.5-1.5-0.5c-0.8,0-1.4,0.3-1.8,0.9s-0.6,1.5-0.6,2.7v0.7c0,1.2,0.2,2.1,0.7,2.7s1.1,0.9,2,0.9c0.9,0,1.5-0.2,1.9-0.6v-2
		h-2.1v-1.7h4.5V165.4z"/>
	<path d="M235.4,162.2l-1.2,1.3v3.2h-2.3v-11.4h2.3v5.2l1-1.4l2.9-3.7h2.9l-4,5.1l4.2,6.3h-2.8L235.4,162.2z"/>
	<path d="M251.1,161.4c0,1.1-0.2,2.1-0.6,2.9s-1,1.5-1.7,2s-1.6,0.7-2.5,0.7c-0.9,0-1.8-0.2-2.5-0.7s-1.3-1.1-1.7-1.9
		s-0.6-1.8-0.6-2.9v-0.6c0-1.1,0.2-2.1,0.6-3s1-1.5,1.7-2s1.6-0.7,2.5-0.7s1.8,0.2,2.5,0.7s1.3,1.1,1.7,2s0.6,1.8,0.6,2.9V161.4z
		 M248.7,160.8c0-1.2-0.2-2.1-0.6-2.7s-1-0.9-1.8-0.9c-0.8,0-1.4,0.3-1.8,0.9s-0.6,1.5-0.6,2.7v0.6c0,1.2,0.2,2.1,0.6,2.7s1,1,1.8,1
		c0.8,0,1.4-0.3,1.8-0.9s0.6-1.5,0.6-2.7V160.8z"/>
	<path d="M262.1,166.8h-2.3l-4.6-7.5v7.5h-2.3v-11.4h2.3l4.6,7.5v-7.5h2.3V166.8z"/>
	<path d="M273.1,165.4c-0.4,0.5-1,0.9-1.8,1.2s-1.6,0.4-2.6,0.4c-1,0-1.8-0.2-2.6-0.6s-1.3-1.1-1.7-1.9s-0.6-1.8-0.6-2.9v-0.8
		c0-1.1,0.2-2.1,0.6-2.9s0.9-1.5,1.7-1.9s1.6-0.7,2.5-0.7c1.3,0,2.4,0.3,3.2,1s1.2,1.6,1.4,2.8h-2.3c-0.1-0.7-0.3-1.1-0.7-1.4
		s-0.8-0.5-1.5-0.5c-0.8,0-1.4,0.3-1.8,0.9s-0.6,1.5-0.6,2.7v0.7c0,1.2,0.2,2.1,0.7,2.7s1.1,0.9,2,0.9c0.9,0,1.5-0.2,1.9-0.6v-2
		h-2.1v-1.7h4.5V165.4z"/>
</g>
<linearGradient id="SVGID_1_" gradientUnits="userSpaceOnUse" x1="147.15" y1="7244.6484" x2="147.15" y2="7210.8481" gradientTransform="matrix(1 0 0 1 0 -6820.7871)">
	<stop  offset="0" style="stop-color:#FFFFFF"/>
	<stop  offset="1" style="stop-color:#FFFFFF;stop-opacity:0"/>
</linearGradient>
<rect x="85.2" y="390.1" class="st2" width="123.9" height="33.8"/>
<g>
	<g>
		<path class="st3" d="M156.4,212.3c3.8,21,23.6,35.1,44.8,31.8"/>
		<g>
			<polygon points="153.7,215.8 154.4,216.1 156.6,212.7 159.9,215 160.4,214.3 156.2,211.5 			"/>
		</g>
	</g>
</g>
<g>
	<g class="st4">
		<path class="st5" d="M214,246.4c0-0.4-0.1-0.7-0.4-0.9c-0.3-0.2-0.8-0.4-1.5-0.7c-0.7-0.2-1.3-0.5-1.7-0.7
			c-1.1-0.6-1.7-1.4-1.7-2.5c0-0.5,0.2-1,0.5-1.4c0.3-0.4,0.7-0.8,1.3-1c0.6-0.2,1.2-0.4,1.9-0.4c0.7,0,1.3,0.1,1.9,0.4
			c0.6,0.3,1,0.6,1.3,1.1c0.3,0.5,0.5,1,0.5,1.6h-2.1c0-0.5-0.1-0.8-0.4-1.1c-0.3-0.3-0.7-0.4-1.2-0.4c-0.5,0-0.9,0.1-1.2,0.3
			c-0.3,0.2-0.4,0.5-0.4,0.8c0,0.3,0.2,0.6,0.5,0.8c0.3,0.2,0.8,0.4,1.4,0.6c1.2,0.4,2,0.8,2.5,1.3s0.8,1.2,0.8,1.9
			c0,0.9-0.3,1.5-1,2c-0.7,0.5-1.5,0.7-2.6,0.7c-0.8,0-1.5-0.1-2.1-0.4c-0.6-0.3-1.1-0.7-1.4-1.2c-0.3-0.5-0.5-1.1-0.5-1.7h2.1
			c0,1.1,0.7,1.6,2,1.6c0.5,0,0.9-0.1,1.1-0.3C213.9,247.1,214,246.8,214,246.4z"/>
		<path class="st5" d="M217.4,239.8c0-0.3,0.1-0.5,0.3-0.7c0.2-0.2,0.5-0.3,0.8-0.3c0.3,0,0.6,0.1,0.8,0.3s0.3,0.4,0.3,0.7
			c0,0.3-0.1,0.5-0.3,0.7c-0.2,0.2-0.5,0.3-0.8,0.3s-0.6-0.1-0.8-0.3C217.5,240.3,217.4,240.1,217.4,239.8z M219.5,249.1h-2v-7.4h2
			V249.1z"/>
		<path class="st5" d="M222.9,241.7l0.1,0.9c0.5-0.7,1.2-1,2.1-1c0.8,0,1.4,0.2,1.8,0.7s0.6,1.1,0.6,2.1v4.8h-2v-4.7
			c0-0.4-0.1-0.7-0.3-0.9c-0.2-0.2-0.5-0.3-0.9-0.3c-0.6,0-1,0.2-1.3,0.7v5.2h-2v-7.4H222.9z"/>
		<path class="st5" d="M236.4,247c0-0.2-0.1-0.4-0.4-0.6c-0.2-0.1-0.6-0.3-1.2-0.4c-1.8-0.4-2.6-1.1-2.6-2.2c0-0.7,0.3-1.2,0.8-1.6
			c0.5-0.4,1.3-0.7,2.1-0.7c0.9,0,1.7,0.2,2.3,0.7c0.6,0.4,0.8,1,0.8,1.7h-2c0-0.3-0.1-0.5-0.3-0.7c-0.2-0.2-0.5-0.3-0.9-0.3
			c-0.3,0-0.6,0.1-0.8,0.2s-0.3,0.3-0.3,0.6c0,0.2,0.1,0.4,0.3,0.5c0.2,0.1,0.6,0.2,1,0.3c0.5,0.1,0.9,0.2,1.2,0.3
			c1,0.4,1.6,1,1.6,2c0,0.7-0.3,1.2-0.9,1.6c-0.6,0.4-1.3,0.6-2.2,0.6c-0.6,0-1.2-0.1-1.7-0.3c-0.5-0.2-0.9-0.5-1.1-0.9
			c-0.3-0.4-0.4-0.8-0.4-1.2h1.9c0,0.4,0.1,0.6,0.4,0.8s0.6,0.3,1,0.3c0.4,0,0.7-0.1,0.9-0.2C236.3,247.4,236.4,247.2,236.4,247z"/>
		<path class="st5" d="M243.9,249.1c-0.1-0.2-0.2-0.4-0.2-0.7c-0.5,0.5-1.1,0.8-1.9,0.8c-0.7,0-1.3-0.2-1.8-0.6
			c-0.5-0.4-0.7-0.9-0.7-1.6c0-0.8,0.3-1.4,0.9-1.8c0.6-0.4,1.4-0.6,2.5-0.6h0.9v-0.4c0-0.3-0.1-0.6-0.3-0.8
			c-0.2-0.2-0.5-0.3-0.8-0.3c-0.3,0-0.6,0.1-0.8,0.2c-0.2,0.2-0.3,0.4-0.3,0.7h-2c0-0.4,0.1-0.8,0.4-1.2s0.6-0.7,1.1-0.9
			c0.5-0.2,1-0.3,1.6-0.3c0.9,0,1.6,0.2,2.2,0.7c0.5,0.5,0.8,1.1,0.8,1.9v3.2c0,0.7,0.1,1.2,0.3,1.6v0.1H243.9z M242.3,247.7
			c0.3,0,0.6-0.1,0.8-0.2c0.2-0.1,0.4-0.3,0.5-0.5v-1.3h-0.7c-1,0-1.5,0.3-1.6,1l0,0.1c0,0.2,0.1,0.4,0.3,0.6S242,247.7,242.3,247.7
			z"/>
		<path class="st5" d="M249.2,249.1h-2v-10.5h2V249.1z"/>
		<path class="st5" d="M250.8,239.8c0-0.3,0.1-0.5,0.3-0.7c0.2-0.2,0.5-0.3,0.8-0.3c0.3,0,0.6,0.1,0.8,0.3s0.3,0.4,0.3,0.7
			c0,0.3-0.1,0.5-0.3,0.7c-0.2,0.2-0.5,0.3-0.8,0.3s-0.6-0.1-0.8-0.3C250.9,240.3,250.8,240.1,250.8,239.8z M252.9,249.1h-2v-7.4h2
			V249.1z"/>
		<path class="st5" d="M254.2,245.3c0-1.2,0.3-2.1,0.8-2.8c0.5-0.7,1.2-1,2.1-1c0.7,0,1.3,0.3,1.8,0.8v-3.8h2v10.5h-1.8l-0.1-0.8
			c-0.5,0.6-1.1,0.9-1.9,0.9c-0.9,0-1.6-0.3-2.1-1C254.5,247.5,254.2,246.5,254.2,245.3z M256.2,245.5c0,0.7,0.1,1.2,0.4,1.6
			c0.2,0.4,0.6,0.6,1.1,0.6c0.6,0,1-0.3,1.3-0.8v-2.9c-0.2-0.5-0.7-0.8-1.3-0.8C256.7,243.1,256.2,243.9,256.2,245.5z"/>
		<path class="st5" d="M266.7,249.1c-0.1-0.2-0.2-0.4-0.2-0.7c-0.5,0.5-1.1,0.8-1.9,0.8c-0.7,0-1.3-0.2-1.8-0.6
			c-0.5-0.4-0.7-0.9-0.7-1.6c0-0.8,0.3-1.4,0.9-1.8c0.6-0.4,1.4-0.6,2.5-0.6h0.9v-0.4c0-0.3-0.1-0.6-0.3-0.8
			c-0.2-0.2-0.5-0.3-0.8-0.3c-0.3,0-0.6,0.1-0.8,0.2c-0.2,0.2-0.3,0.4-0.3,0.7h-2c0-0.4,0.1-0.8,0.4-1.2s0.6-0.7,1.1-0.9
			c0.5-0.2,1-0.3,1.6-0.3c0.9,0,1.6,0.2,2.2,0.7c0.5,0.5,0.8,1.1,0.8,1.9v3.2c0,0.7,0.1,1.2,0.3,1.6v0.1H266.7z M265.1,247.7
			c0.3,0,0.6-0.1,0.8-0.2c0.2-0.1,0.4-0.3,0.5-0.5v-1.3h-0.7c-1,0-1.5,0.3-1.6,1l0,0.1c0,0.2,0.1,0.4,0.3,0.6
			S264.8,247.7,265.1,247.7z"/>
		<path class="st5" d="M273.9,247c0-0.2-0.1-0.4-0.4-0.6c-0.2-0.1-0.6-0.3-1.2-0.4c-1.8-0.4-2.6-1.1-2.6-2.2c0-0.7,0.3-1.2,0.8-1.6
			c0.5-0.4,1.3-0.7,2.1-0.7c0.9,0,1.7,0.2,2.3,0.7c0.6,0.4,0.8,1,0.8,1.7h-2c0-0.3-0.1-0.5-0.3-0.7c-0.2-0.2-0.5-0.3-0.9-0.3
			c-0.3,0-0.6,0.1-0.8,0.2s-0.3,0.3-0.3,0.6c0,0.2,0.1,0.4,0.3,0.5c0.2,0.1,0.6,0.2,1,0.3c0.5,0.1,0.9,0.2,1.2,0.3
			c1,0.4,1.6,1,1.6,2c0,0.7-0.3,1.2-0.9,1.6c-0.6,0.4-1.3,0.6-2.2,0.6c-0.6,0-1.2-0.1-1.7-0.3c-0.5-0.2-0.9-0.5-1.1-0.9
			c-0.3-0.4-0.4-0.8-0.4-1.2h1.9c0,0.4,0.1,0.6,0.4,0.8s0.6,0.3,1,0.3c0.4,0,0.7-0.1,0.9-0.2C273.8,247.4,273.9,247.2,273.9,247z"/>
	</g>
</g>
<g>
	<g class="st4">
		<path d="M122.9,185.2h-4.1l-0.8,2.3h-2.5l4.2-11.4h2.2l4.3,11.4h-2.5L122.9,185.2z M119.5,183.3h2.8l-1.4-4.3L119.5,183.3z"/>
		<path d="M131,187.7c-1.2,0-2.2-0.4-3-1.1s-1.2-1.8-1.2-3v-0.2c0-0.8,0.2-1.6,0.5-2.3s0.8-1.2,1.4-1.5s1.3-0.5,2.1-0.5
			c1.2,0,2.1,0.4,2.7,1.1s1,1.8,1,3.1v0.9h-5.4c0.1,0.6,0.3,1,0.7,1.3s0.8,0.5,1.4,0.5c0.9,0,1.5-0.3,2-0.9l1.1,1.2
			c-0.3,0.5-0.8,0.9-1.4,1.1S131.7,187.7,131,187.7z M130.8,180.8c-0.4,0-0.8,0.2-1.1,0.5s-0.5,0.7-0.5,1.3h3.1v-0.2
			c0-0.5-0.1-0.9-0.4-1.2S131.2,180.8,130.8,180.8z"/>
		<path d="M140.5,181.2c-0.3,0-0.6-0.1-0.8-0.1c-0.9,0-1.4,0.3-1.7,0.9v5.5h-2.3v-8.5h2.1l0.1,1c0.5-0.8,1.1-1.2,1.9-1.2
			c0.2,0,0.5,0,0.7,0.1L140.5,181.2z"/>
		<path d="M141,183.3c0-0.8,0.2-1.6,0.5-2.2s0.8-1.2,1.4-1.5s1.3-0.5,2.1-0.5c1.1,0,2.1,0.3,2.8,1s1.1,1.6,1.2,2.8l0,0.6
			c0,1.3-0.4,2.3-1.1,3.1s-1.7,1.2-2.9,1.2s-2.2-0.4-2.9-1.2s-1.1-1.8-1.1-3.2V183.3z M143.2,183.4c0,0.8,0.2,1.4,0.5,1.8
			s0.7,0.6,1.3,0.6c0.5,0,1-0.2,1.3-0.6s0.5-1.1,0.5-2c0-0.8-0.2-1.4-0.5-1.8s-0.7-0.6-1.3-0.6c-0.6,0-1,0.2-1.3,0.6
			S143.2,182.5,143.2,183.4z"/>
		<path d="M158,183.4c0,1.3-0.3,2.3-0.9,3.1s-1.4,1.2-2.4,1.2c-0.9,0-1.5-0.3-2.1-0.9v4h-2.3v-11.7h2.1l0.1,0.8c0.5-0.7,1.3-1,2.1-1
			c1,0,1.9,0.4,2.4,1.2s0.9,1.8,0.9,3.2V183.4z M155.7,183.3c0-0.8-0.1-1.4-0.4-1.8s-0.7-0.6-1.2-0.6c-0.7,0-1.2,0.3-1.5,0.8v3.5
			c0.3,0.6,0.8,0.8,1.5,0.8C155.2,185.9,155.7,185,155.7,183.3z"/>
		<path d="M164.5,186.7c-0.6,0.7-1.3,1-2.3,1c-0.9,0-1.6-0.3-2.1-0.8s-0.7-1.3-0.7-2.3v-5.5h2.3v5.5c0,0.9,0.4,1.3,1.2,1.3
			c0.8,0,1.3-0.3,1.6-0.8v-6h2.3v8.5h-2.1L164.5,186.7z"/>
		<path d="M172.2,187.7c-1.2,0-2.2-0.4-3-1.1s-1.2-1.8-1.2-3v-0.2c0-0.8,0.2-1.6,0.5-2.3s0.8-1.2,1.4-1.5s1.3-0.5,2.1-0.5
			c1.2,0,2.1,0.4,2.7,1.1s1,1.8,1,3.1v0.9h-5.4c0.1,0.6,0.3,1,0.7,1.3s0.8,0.5,1.4,0.5c0.9,0,1.5-0.3,2-0.9l1.1,1.2
			c-0.3,0.5-0.8,0.9-1.4,1.1S172.9,187.7,172.2,187.7z M172,180.8c-0.4,0-0.8,0.2-1.1,0.5s-0.5,0.7-0.5,1.3h3.1v-0.2
			c0-0.5-0.1-0.9-0.4-1.2S172.5,180.8,172,180.8z"/>
		<path d="M181.7,181.2c-0.3,0-0.6-0.1-0.8-0.1c-0.9,0-1.4,0.3-1.7,0.9v5.5H177v-8.5h2.1l0.1,1c0.5-0.8,1.1-1.2,1.9-1.2
			c0.2,0,0.5,0,0.7,0.1L181.7,181.2z"/>
		<path d="M185.9,177v2.1h1.4v1.7h-1.4v4.2c0,0.3,0.1,0.5,0.2,0.7s0.3,0.2,0.7,0.2c0.2,0,0.5,0,0.7-0.1v1.7
			c-0.4,0.1-0.9,0.2-1.4,0.2c-1.6,0-2.4-0.8-2.4-2.4v-4.6h-1.2v-1.7h1.2V177H185.9z"/>
		<path d="M188,183.3c0-0.8,0.2-1.6,0.5-2.2s0.8-1.2,1.4-1.5s1.3-0.5,2.1-0.5c1.1,0,2.1,0.3,2.8,1s1.1,1.6,1.2,2.8l0,0.6
			c0,1.3-0.4,2.3-1.1,3.1s-1.7,1.2-2.9,1.2s-2.2-0.4-2.9-1.2s-1.1-1.8-1.1-3.2V183.3z M190.3,183.4c0,0.8,0.2,1.4,0.5,1.8
			s0.7,0.6,1.3,0.6c0.5,0,1-0.2,1.3-0.6s0.5-1.1,0.5-2c0-0.8-0.2-1.4-0.5-1.8s-0.7-0.6-1.3-0.6c-0.6,0-1,0.2-1.3,0.6
			S190.3,182.5,190.3,183.4z"/>
	</g>
</g>
<g class="st6">
	<g class="st4">
		<path d="M228.8,380.9l1.5,6.3l3.6-6.3h0.8l-1.2,7.1h-0.6l0.5-3.1l0.6-3.1l-3.6,6.2h-0.5l-1.5-6.2l-0.5,3.2l-0.5,3.1h-0.6l1.2-7.1
			H228.8z"/>
		<path d="M239.4,386h-3.1l-1.1,2h-0.6l3.8-7.1h0.6l1.4,7.1h-0.6L239.4,386z M236.5,385.5h2.7l-0.7-3.9L236.5,385.5z"/>
		<path d="M244.5,385h-2l-0.5,3h-0.6l1.2-7.1l2.1,0c0.7,0,1.3,0.2,1.6,0.6c0.4,0.4,0.5,0.9,0.5,1.5c0,0.5-0.2,0.9-0.5,1.2
			s-0.7,0.6-1.2,0.8l1.2,3l0,0.1h-0.6L244.5,385z M242.6,384.5l1.8,0c0.5,0,0.9-0.1,1.3-0.4c0.4-0.3,0.6-0.7,0.6-1.2
			c0.1-0.5,0-0.8-0.3-1.1c-0.3-0.3-0.6-0.4-1.1-0.4l-1.7,0L242.6,384.5z"/>
		<path d="M250,388l1.2-7.1l1.9,0c0.6,0,1,0.1,1.4,0.4c0.4,0.3,0.7,0.7,0.9,1.2c0.2,0.5,0.2,1,0.2,1.6l-0.1,0.6
			c-0.1,1-0.5,1.8-1.2,2.4c-0.6,0.6-1.4,0.9-2.3,0.9H250z M251.8,381.4l-1.1,6.1l1.3,0c0.5,0,1-0.1,1.4-0.3s0.8-0.5,1-1
			c0.3-0.4,0.4-0.9,0.5-1.4c0.1-0.5,0.1-0.9,0.1-1.1s0-0.4,0-0.6c-0.1-0.5-0.3-0.9-0.6-1.2s-0.7-0.5-1.2-0.5L251.8,381.4z"/>
		<path d="M260.8,384.6h-3.2l-0.5,2.9h3.7l-0.1,0.5h-4.3l1.2-7.1h4.3l-0.1,0.5h-3.7l-0.5,2.7h3.2L260.8,384.6z"/>
		<path d="M262.7,387.5h3.4L266,388h-4l1.2-7.1h0.6L262.7,387.5z"/>
	</g>
	<g class="st4">
		<path d="M222.4,398.2c0.1-0.6-0.3-1.1-1-1.3l-0.9-0.3l-0.3-0.1c-0.9-0.4-1.4-1-1.3-1.7c0-0.4,0.2-0.7,0.4-1s0.6-0.5,0.9-0.7
			c0.4-0.2,0.8-0.2,1.2-0.2c0.4,0,0.8,0.1,1.1,0.3c0.3,0.2,0.6,0.4,0.7,0.8c0.2,0.3,0.2,0.7,0.2,1.1h-0.6c0-0.5-0.1-0.9-0.3-1.2
			c-0.3-0.3-0.7-0.4-1.2-0.5c-0.5,0-1,0.1-1.3,0.4c-0.4,0.2-0.6,0.6-0.6,1c0,0.3,0.1,0.6,0.3,0.9c0.2,0.2,0.7,0.4,1.2,0.6
			c0.8,0.2,1.3,0.5,1.6,0.9c0.3,0.3,0.4,0.7,0.4,1.2c0,0.4-0.2,0.7-0.4,1c-0.2,0.3-0.6,0.5-1,0.7s-0.8,0.2-1.3,0.2
			c-0.5,0-0.9-0.1-1.2-0.3c-0.4-0.2-0.6-0.4-0.8-0.7c-0.2-0.3-0.3-0.7-0.2-1.1h0.6c0,0.5,0.1,0.9,0.4,1.2c0.3,0.3,0.7,0.4,1.3,0.4
			s1-0.1,1.4-0.4C222.1,399,222.3,398.6,222.4,398.2z"/>
		<path d="M230,392.9l-0.8,4.8c-0.1,0.7-0.4,1.3-0.9,1.8s-1.1,0.6-1.9,0.6c-0.5,0-0.9-0.1-1.2-0.3c-0.3-0.2-0.6-0.5-0.7-0.8
			c-0.2-0.4-0.2-0.8-0.1-1.2l0.8-4.8h0.6l-0.8,4.8c-0.1,0.5,0,1,0.3,1.3c0.3,0.3,0.7,0.5,1.2,0.5c0.5,0,1-0.1,1.4-0.5
			c0.4-0.3,0.6-0.8,0.8-1.3l0.8-4.9H230z"/>
		<path d="M233.5,397h-2l-0.5,3h-0.6l1.2-7.1l2.1,0c0.7,0,1.3,0.2,1.6,0.6c0.4,0.4,0.5,0.9,0.5,1.5c0,0.5-0.2,0.9-0.5,1.2
			c-0.3,0.3-0.7,0.6-1.2,0.8l1.2,3l0,0.1h-0.6L233.5,397z M231.6,396.5l1.8,0c0.5,0,0.9-0.1,1.3-0.4c0.4-0.3,0.6-0.7,0.6-1.2
			c0.1-0.5,0-0.8-0.3-1.1s-0.6-0.4-1.1-0.4l-1.7,0L231.6,396.5z"/>
		<path d="M239,400l1.2-7.1l1.9,0c0.5,0,1,0.1,1.4,0.4c0.4,0.3,0.7,0.7,0.9,1.2c0.2,0.5,0.2,1,0.2,1.6l-0.1,0.6
			c-0.2,1-0.5,1.8-1.2,2.4s-1.4,0.9-2.3,0.9H239z M240.8,393.4l-1.1,6.1l1.3,0c0.5,0,1-0.1,1.4-0.3s0.8-0.5,1-1
			c0.3-0.4,0.4-0.9,0.5-1.4c0.1-0.5,0.1-0.9,0.1-1.1c0-0.2,0-0.4,0-0.6c-0.1-0.5-0.3-0.9-0.6-1.2s-0.7-0.5-1.2-0.5L240.8,393.4z"/>
		<path d="M249.8,396.6h-3.2l-0.5,2.9h3.7l-0.1,0.5h-4.3l1.2-7.1h4.3l-0.1,0.5h-3.7l-0.5,2.7h3.2L249.8,396.6z"/>
		<path d="M258.6,397.8c-0.2,0.7-0.5,1.3-1,1.7c-0.5,0.4-1.1,0.6-1.9,0.6c-0.6,0-1.1-0.2-1.5-0.7c-0.4-0.4-0.6-1-0.6-1.8
			c0-0.3,0-0.5,0-0.8l0.1-0.9c0.1-0.7,0.3-1.2,0.6-1.7c0.3-0.5,0.7-0.9,1.1-1.1s0.9-0.4,1.4-0.4c0.7,0,1.2,0.2,1.6,0.6
			s0.6,1,0.6,1.7l-0.6,0c0-0.6-0.1-1-0.4-1.3c-0.3-0.3-0.7-0.5-1.2-0.5c-0.6,0-1.2,0.2-1.6,0.7c-0.5,0.5-0.7,1.2-0.9,2.1l-0.1,1
			l0,0.4c0,0.4,0,0.7,0.2,1.1c0.1,0.3,0.3,0.6,0.5,0.8s0.5,0.3,0.9,0.3c0.6,0,1-0.1,1.4-0.4c0.4-0.3,0.7-0.8,0.8-1.4L258.6,397.8z"
			/>
		<path d="M264.9,400h-0.6l0.6-3.4h-3.9l-0.6,3.4h-0.6l1.2-7.1h0.6l-0.6,3.2h3.9l0.6-3.2h0.6L264.9,400z"/>
		<path d="M267.4,400h-0.6l1.2-7.1h0.6L267.4,400z"/>
		<path d="M274.4,400h-0.6l-2.9-6.1l-1.1,6.1h-0.6l1.2-7.1h0.6l2.9,6.1l1.1-6.1h0.6L274.4,400z"/>
		<path d="M280.4,398h-3.1l-1.1,2h-0.6l3.8-7.1h0.6l1.4,7.1h-0.6L280.4,398z M277.5,397.5h2.7l-0.7-3.9L277.5,397.5z"/>
	</g>
</g>
</svg>
