<?xml version="1.0" encoding="utf-8"?>
<!-- Generator: Adobe Illustrator 25.4.1, SVG Export Plug-In . SVG Version: 6.00 Build 0)  -->
<svg version="1.1" id="Layer_1" xmlns="http://www.w3.org/2000/svg" xmlns:xlink="http://www.w3.org/1999/xlink" x="0px" y="0px"
	 viewBox="0 0 339 438.9" style="enable-background:new 0 0 339 438.9;" xml:space="preserve">
<style type="text/css">
	.st0{fill:none;stroke:#C3C4C6;stroke-width:2;stroke-miterlimit:10;}
	.st1{opacity:0.5;fill:none;stroke:#FF513F;stroke-width:1.5;stroke-miterlimit:10;enable-background:new    ;}
	.st2{opacity:0.5;enable-background:new    ;}
	.st3{opacity:0.5;}
	.st4{fill:none;stroke:url(#SVGID_1_);stroke-width:4;stroke-miterlimit:10;}
	.st5{fill:url(#SVGID_00000034051518499046937040000000823835790807559826_);}
	.st6{fill:url(#SVGID_00000029754603836347841950000003239853587201441940_);}
	.st7{enable-background:new    ;}
</style>
<image style="overflow:visible;" width="1201" height="1457" xlink:href="60ABB23F.jpg"  transform="matrix(0.3012 0 0 0.3012 -9.941 0)">
</image>
<path class="st0" d="M190.4,130.7l5.1-2.1l1.8-2.1l2.6-4.1l2.1-3.2l2.6-0.5l2.9,0.2l4,2.4l5-2.6l6.9-2.6l2.1-4.1l3.7-1.5l4.7,1.5
	l4.5-0.3l4.5,0.9l7.2,1.9"/>
<path class="st1" d="M151.3,197.9l-42.6,15.8c-4.5,1.7-7,6.6-5.8,11.2l71.4,196.6"/>
<path class="st1" d="M153.2,197.9l-44.4,15.8c-4.5,1.7-7,6.6-5.8,11.2l73.3,196.6"/>
<path class="st1" d="M152.2,197.9l-44.4,15.8c-4.5,1.7-7,6.6-5.8,11.2l69.5,196.6"/>
<path class="st1" d="M152.2,198.8l-44.4,15.8c-4.5,1.7-7,6.6-5.8,11.2l67.6,195.6"/>
<path class="st1" d="M153.2,197.9l-44.4,15.8c-4.5,1.7-7,6.6-5.8,11.2l38.3,94.2c0.2,0.7,0.5,1.4,0.9,2l73.1,100.4"/>
<path class="st1" d="M152.2,198.4l-44.4,15.8c-4.5,1.7-7,6.6-5.8,11.2L167.6,421"/>
<g class="st2">
	<path d="M147.8,100c0-0.5-0.2-0.8-0.5-1.1s-0.9-0.5-1.8-0.8s-1.5-0.5-1.9-0.8c-0.6-0.4-0.9-1-0.9-1.6c0-0.7,0.3-1.2,0.8-1.6
		s1.2-0.6,2.1-0.6c0.6,0,1.1,0.1,1.5,0.3s0.8,0.5,1,0.9s0.4,0.8,0.4,1.3h-0.7c0-0.6-0.2-1.1-0.6-1.4s-0.9-0.5-1.6-0.5
		c-0.7,0-1.2,0.1-1.6,0.4c-0.4,0.3-0.6,0.7-0.6,1.1c0,0.4,0.2,0.8,0.5,1.1c0.3,0.3,0.9,0.5,1.7,0.7c0.8,0.2,1.3,0.4,1.7,0.7
		s0.7,0.5,0.9,0.8s0.3,0.7,0.3,1.1c0,0.7-0.3,1.2-0.8,1.6s-1.2,0.6-2.1,0.6c-0.6,0-1.2-0.1-1.7-0.3s-0.9-0.5-1.1-0.9
		s-0.4-0.8-0.4-1.3h0.7c0,0.6,0.2,1.1,0.7,1.4s1,0.5,1.8,0.5c0.7,0,1.2-0.1,1.6-0.4S147.8,100.5,147.8,100z"/>
	<path d="M156.4,102.1h-0.7V98h-4.9v4.1h-0.7v-8.5h0.7v3.8h4.9v-3.8h0.7V102.1z"/>
	<path d="M163.3,98h-4v3.5h4.6v0.6h-5.3v-8.5h5.3v0.6h-4.6v3.2h4V98z"/>
	<path d="M171.7,102.1H171l-4.9-7.3v7.3h-0.7v-8.5h0.7l4.9,7.3v-7.3h0.7V102.1z"/>
	<path d="M174.2,101.5h5.3v0.6h-6.1v-0.5l5.1-7.4h-4.9v-0.6h5.8v0.5L174.2,101.5z"/>
	<path d="M187.4,102.1h-0.7V98h-4.9v4.1h-0.7v-8.5h0.7v3.8h4.9v-3.8h0.7V102.1z"/>
	<path d="M194.3,98h-4v3.5h4.6v0.6h-5.3v-8.5h5.3v0.6h-4.6v3.2h4V98z"/>
	<path d="M202.7,102.1H202l-4.9-7.3v7.3h-0.7v-8.5h0.7l4.9,7.3v-7.3h0.7V102.1z"/>
</g>
<g class="st2">
	<path d="M192.6,164.8h-2.3V160h-4.6v4.9h-2.3v-11.4h2.3v4.6h4.6v-4.6h2.3V164.8z"/>
	<path d="M204,159.4c0,1.1-0.2,2.1-0.6,2.9s-1,1.5-1.7,2s-1.6,0.7-2.5,0.7c-0.9,0-1.8-0.2-2.5-0.7s-1.3-1.1-1.7-1.9
		s-0.6-1.8-0.6-2.9v-0.6c0-1.1,0.2-2.1,0.6-3s1-1.5,1.7-2s1.6-0.7,2.5-0.7s1.8,0.2,2.5,0.7s1.3,1.1,1.7,2s0.6,1.8,0.6,2.9V159.4z
		 M201.6,158.9c0-1.2-0.2-2.1-0.6-2.7s-1-0.9-1.8-0.9c-0.8,0-1.4,0.3-1.8,0.9s-0.6,1.5-0.6,2.7v0.6c0,1.2,0.2,2.1,0.6,2.7s1,1,1.8,1
		c0.8,0,1.4-0.3,1.8-0.9s0.6-1.5,0.6-2.7V158.9z"/>
	<path d="M214.9,164.8h-2.3l-4.6-7.5v7.5h-2.3v-11.4h2.3l4.6,7.5v-7.5h2.3V164.8z"/>
	<path d="M226,163.4c-0.4,0.5-1,0.9-1.8,1.2s-1.6,0.4-2.6,0.4c-1,0-1.8-0.2-2.6-0.6s-1.3-1.1-1.7-1.9s-0.6-1.8-0.6-2.9v-0.8
		c0-1.1,0.2-2.1,0.6-2.9s0.9-1.5,1.7-1.9s1.6-0.7,2.5-0.7c1.3,0,2.4,0.3,3.2,1s1.2,1.6,1.4,2.8h-2.3c-0.1-0.7-0.3-1.1-0.7-1.4
		s-0.8-0.5-1.5-0.5c-0.8,0-1.4,0.3-1.8,0.9s-0.6,1.5-0.6,2.7v0.7c0,1.2,0.2,2.1,0.7,2.7s1.1,0.9,2,0.9c0.9,0,1.5-0.2,1.9-0.6v-2
		h-2.1v-1.7h4.5V163.4z"/>
	<path d="M235.4,160.3l-1.2,1.3v3.2h-2.3v-11.4h2.3v5.2l1-1.4l2.9-3.7h2.9l-4,5.1l4.2,6.3h-2.8L235.4,160.3z"/>
	<path d="M251.1,159.4c0,1.1-0.2,2.1-0.6,2.9s-1,1.5-1.7,2s-1.6,0.7-2.5,0.7c-0.9,0-1.8-0.2-2.5-0.7s-1.3-1.1-1.7-1.9
		s-0.6-1.8-0.6-2.9v-0.6c0-1.1,0.2-2.1,0.6-3s1-1.5,1.7-2s1.6-0.7,2.5-0.7s1.8,0.2,2.5,0.7s1.3,1.1,1.7,2s0.6,1.8,0.6,2.9V159.4z
		 M248.7,158.9c0-1.2-0.2-2.1-0.6-2.7s-1-0.9-1.8-0.9c-0.8,0-1.4,0.3-1.8,0.9s-0.6,1.5-0.6,2.7v0.6c0,1.2,0.2,2.1,0.6,2.7s1,1,1.8,1
		c0.8,0,1.4-0.3,1.8-0.9s0.6-1.5,0.6-2.7V158.9z"/>
	<path d="M262.1,164.8h-2.3l-4.6-7.5v7.5h-2.3v-11.4h2.3l4.6,7.5v-7.5h2.3V164.8z"/>
	<path d="M273.1,163.4c-0.4,0.5-1,0.9-1.8,1.2s-1.6,0.4-2.6,0.4c-1,0-1.8-0.2-2.6-0.6s-1.3-1.1-1.7-1.9s-0.6-1.8-0.6-2.9v-0.8
		c0-1.1,0.2-2.1,0.6-2.9s0.9-1.5,1.7-1.9s1.6-0.7,2.5-0.7c1.3,0,2.4,0.3,3.2,1s1.2,1.6,1.4,2.8h-2.3c-0.1-0.7-0.3-1.1-0.7-1.4
		s-0.8-0.5-1.5-0.5c-0.8,0-1.4,0.3-1.8,0.9s-0.6,1.5-0.6,2.7v0.7c0,1.2,0.2,2.1,0.7,2.7s1.1,0.9,2,0.9c0.9,0,1.5-0.2,1.9-0.6v-2
		h-2.1v-1.7h4.5V163.4z"/>
</g>
<g class="st3">
	<g>
		
			<linearGradient id="SVGID_1_" gradientUnits="userSpaceOnUse" x1="125.4" y1="-5608.4087" x2="125.4" y2="-5563.3916" gradientTransform="matrix(1 0 0 -1 0 -5226.9932)">
			<stop  offset="0" style="stop-color:#000000"/>
			<stop  offset="0.8777" style="stop-color:#000000;stop-opacity:0.1223"/>
			<stop  offset="1" style="stop-color:#000000;stop-opacity:0"/>
		</linearGradient>
		<line class="st4" x1="120.2" y1="336.9" x2="130.6" y2="372.6"/>
		<g>
			
				<linearGradient id="SVGID_00000150782849868809772140000000285234692212452274_" gradientUnits="userSpaceOnUse" x1="130.05" y1="-5608.4087" x2="130.05" y2="-5563.3916" gradientTransform="matrix(1 0 0 -1 0 -5226.9932)">
				<stop  offset="0" style="stop-color:#000000"/>
				<stop  offset="0.8777" style="stop-color:#000000;stop-opacity:0.1223"/>
				<stop  offset="1" style="stop-color:#000000;stop-opacity:0"/>
			</linearGradient>
			<polygon style="fill:url(#SVGID_00000150782849868809772140000000285234692212452274_);" points="124.3,372.6 133,380.8 
				135.8,369.2 			"/>
		</g>
	</g>
</g>
<path class="st1" d="M152.3,198.9L107,225.7c-4.8,1.8-7.5,7-6.2,11.9L176.3,422"/>
<path class="st1" d="M151.3,198.9L106,225.7c-4.8,1.8-7.5,7-6.2,11.9L179.3,422"/>
<path class="st1" d="M150.3,198.9L105,225.7c-4.8,1.8-7.5,7-6.2,11.9L178.3,422"/>
<path class="st1" d="M152.3,198.9L107,225.7c-4.8,1.8-7.5,7-6.2,11.9L182.3,422"/>
<path class="st1" d="M150.3,198.9L105,225.7c-4.8,1.8-7.5,7-6.2,11.9L178.3,422"/>
<path class="st1" d="M150.3,198.9L105,225.7c-4.8,1.8-7.5,7-6.2,11.9L178.3,422"/>
<path class="st1" d="M152.3,198.9L121.8,222c-2.3,1.8-3.8,4.4-3.9,7.3l-1.8,27.6c-0.1,1.6,0.2,3.2,0.8,4.6l69.5,160.4"/>
<path class="st1" d="M152.3,198.9L107,225.7c-4.8,1.8-7.5,7-6.2,11.9L174.3,422"/>
<linearGradient id="SVGID_00000149343451874197563100000005006284823549022634_" gradientUnits="userSpaceOnUse" x1="176.15" y1="-5653.4028" x2="176.15" y2="-5585.9028" gradientTransform="matrix(1 0 0 -1 0 -5226.9932)">
	<stop  offset="0" style="stop-color:#FFFFFF"/>
	<stop  offset="1" style="stop-color:#FFFFFF;stop-opacity:0"/>
</linearGradient>
<rect x="114.2" y="358.9" style="fill:url(#SVGID_00000149343451874197563100000005006284823549022634_);" width="123.9" height="67.5"/>
<circle cx="152.3" cy="198" r="3"/>
<g>
	<g class="st7">
		<path d="M122.9,185.2h-4.1l-0.8,2.3h-2.5l4.2-11.4h2.2l4.3,11.4h-2.5L122.9,185.2z M119.5,183.3h2.8l-1.4-4.3L119.5,183.3z"/>
		<path d="M131,187.7c-1.2,0-2.2-0.4-3-1.1s-1.2-1.8-1.2-3v-0.2c0-0.8,0.2-1.6,0.5-2.3s0.8-1.2,1.4-1.5s1.3-0.5,2.1-0.5
			c1.2,0,2.1,0.4,2.7,1.1s1,1.8,1,3.1v0.9h-5.4c0.1,0.6,0.3,1,0.7,1.3s0.8,0.5,1.4,0.5c0.9,0,1.5-0.3,2-0.9l1.1,1.2
			c-0.3,0.5-0.8,0.9-1.4,1.1S131.7,187.7,131,187.7z M130.8,180.8c-0.4,0-0.8,0.2-1.1,0.5s-0.5,0.7-0.5,1.3h3.1v-0.2
			c0-0.5-0.1-0.9-0.4-1.2S131.2,180.8,130.8,180.8z"/>
		<path d="M140.5,181.2c-0.3,0-0.6-0.1-0.8-0.1c-0.9,0-1.4,0.3-1.7,0.9v5.5h-2.3v-8.5h2.1l0.1,1c0.5-0.8,1.1-1.2,1.9-1.2
			c0.2,0,0.5,0,0.7,0.1L140.5,181.2z"/>
		<path d="M141,183.3c0-0.8,0.2-1.6,0.5-2.2s0.8-1.2,1.4-1.5s1.3-0.5,2.1-0.5c1.1,0,2.1,0.3,2.8,1s1.1,1.6,1.2,2.8l0,0.6
			c0,1.3-0.4,2.3-1.1,3.1s-1.7,1.2-2.9,1.2s-2.2-0.4-2.9-1.2s-1.1-1.8-1.1-3.2V183.3z M143.2,183.4c0,0.8,0.2,1.4,0.5,1.8
			s0.7,0.6,1.3,0.6c0.5,0,1-0.2,1.3-0.6s0.5-1.1,0.5-2c0-0.8-0.2-1.4-0.5-1.8s-0.7-0.6-1.3-0.6c-0.6,0-1,0.2-1.3,0.6
			S143.2,182.5,143.2,183.4z"/>
		<path d="M158,183.4c0,1.3-0.3,2.3-0.9,3.1s-1.4,1.2-2.4,1.2c-0.9,0-1.5-0.3-2.1-0.9v4h-2.3v-11.7h2.1l0.1,0.8c0.5-0.7,1.3-1,2.1-1
			c1,0,1.9,0.4,2.4,1.2s0.9,1.8,0.9,3.2V183.4z M155.7,183.3c0-0.8-0.1-1.4-0.4-1.8s-0.7-0.6-1.2-0.6c-0.7,0-1.2,0.3-1.5,0.8v3.5
			c0.3,0.6,0.8,0.8,1.5,0.8C155.2,185.9,155.7,185,155.7,183.3z"/>
		<path d="M164.5,186.7c-0.6,0.7-1.3,1-2.3,1c-0.9,0-1.6-0.3-2.1-0.8s-0.7-1.3-0.7-2.3v-5.5h2.3v5.5c0,0.9,0.4,1.3,1.2,1.3
			c0.8,0,1.3-0.3,1.6-0.8v-6h2.3v8.5h-2.1L164.5,186.7z"/>
		<path d="M172.2,187.7c-1.2,0-2.2-0.4-3-1.1s-1.2-1.8-1.2-3v-0.2c0-0.8,0.2-1.6,0.5-2.3s0.8-1.2,1.4-1.5s1.3-0.5,2.1-0.5
			c1.2,0,2.1,0.4,2.7,1.1s1,1.8,1,3.1v0.9h-5.4c0.1,0.6,0.3,1,0.7,1.3s0.8,0.5,1.4,0.5c0.9,0,1.5-0.3,2-0.9l1.1,1.2
			c-0.3,0.5-0.8,0.9-1.4,1.1S172.9,187.7,172.2,187.7z M172,180.8c-0.4,0-0.8,0.2-1.1,0.5s-0.5,0.7-0.5,1.3h3.1v-0.2
			c0-0.5-0.1-0.9-0.4-1.2S172.5,180.8,172,180.8z"/>
		<path d="M181.7,181.2c-0.3,0-0.6-0.1-0.8-0.1c-0.9,0-1.4,0.3-1.7,0.9v5.5H177v-8.5h2.1l0.1,1c0.5-0.8,1.1-1.2,1.9-1.2
			c0.2,0,0.5,0,0.7,0.1L181.7,181.2z"/>
		<path d="M185.9,177v2.1h1.4v1.7h-1.4v4.2c0,0.3,0.1,0.5,0.2,0.7s0.3,0.2,0.7,0.2c0.2,0,0.5,0,0.7-0.1v1.7
			c-0.4,0.1-0.9,0.2-1.4,0.2c-1.6,0-2.4-0.8-2.4-2.4v-4.6h-1.2v-1.7h1.2V177H185.9z"/>
		<path d="M188,183.3c0-0.8,0.2-1.6,0.5-2.2s0.8-1.2,1.4-1.5s1.3-0.5,2.1-0.5c1.1,0,2.1,0.3,2.8,1s1.1,1.6,1.2,2.8l0,0.6
			c0,1.3-0.4,2.3-1.1,3.1s-1.7,1.2-2.9,1.2s-2.2-0.4-2.9-1.2s-1.1-1.8-1.1-3.2V183.3z M190.3,183.4c0,0.8,0.2,1.4,0.5,1.8
			s0.7,0.6,1.3,0.6c0.5,0,1-0.2,1.3-0.6s0.5-1.1,0.5-2c0-0.8-0.2-1.4-0.5-1.8s-0.7-0.6-1.3-0.6c-0.6,0-1,0.2-1.3,0.6
			S190.3,182.5,190.3,183.4z"/>
	</g>
</g>
<g class="st3">
	<g class="st7">
		<path d="M228.8,380.9l1.5,6.3l3.6-6.3h0.8l-1.2,7.1h-0.6l0.5-3.1l0.6-3.1l-3.6,6.2h-0.5l-1.5-6.2l-0.5,3.2l-0.5,3.1h-0.6l1.2-7.1
			H228.8z"/>
		<path d="M239.4,386h-3.1l-1.1,2h-0.6l3.8-7.1h0.6l1.4,7.1h-0.6L239.4,386z M236.5,385.5h2.7l-0.7-3.9L236.5,385.5z"/>
		<path d="M244.5,385h-2l-0.5,3h-0.6l1.2-7.1l2.1,0c0.7,0,1.3,0.2,1.6,0.6c0.4,0.4,0.5,0.9,0.5,1.5c0,0.5-0.2,0.9-0.5,1.2
			s-0.7,0.6-1.2,0.8l1.2,3l0,0.1h-0.6L244.5,385z M242.6,384.5l1.8,0c0.5,0,0.9-0.1,1.3-0.4c0.4-0.3,0.6-0.7,0.6-1.2
			c0.1-0.5,0-0.8-0.3-1.1c-0.3-0.3-0.6-0.4-1.1-0.4l-1.7,0L242.6,384.5z"/>
		<path d="M250,388l1.2-7.1l1.9,0c0.6,0,1,0.1,1.4,0.4c0.4,0.3,0.7,0.7,0.9,1.2c0.2,0.5,0.2,1,0.2,1.6l-0.1,0.6
			c-0.1,1-0.5,1.8-1.2,2.4c-0.6,0.6-1.4,0.9-2.3,0.9H250z M251.8,381.4l-1.1,6.1l1.3,0c0.5,0,1-0.1,1.4-0.3s0.8-0.5,1-1
			c0.3-0.4,0.4-0.9,0.5-1.4c0.1-0.5,0.1-0.9,0.1-1.1s0-0.4,0-0.6c-0.1-0.5-0.3-0.9-0.6-1.2s-0.7-0.5-1.2-0.5L251.8,381.4z"/>
		<path d="M260.8,384.6h-3.2l-0.5,2.9h3.7l-0.1,0.5h-4.3l1.2-7.1h4.3l-0.1,0.5h-3.7l-0.5,2.7h3.2L260.8,384.6z"/>
		<path d="M262.7,387.5h3.4L266,388h-4l1.2-7.1h0.6L262.7,387.5z"/>
	</g>
	<g class="st7">
		<path d="M222.4,398.2c0.1-0.6-0.3-1.1-1-1.3l-0.9-0.3l-0.3-0.1c-0.9-0.4-1.4-1-1.3-1.7c0-0.4,0.2-0.7,0.4-1s0.6-0.5,0.9-0.7
			c0.4-0.2,0.8-0.2,1.2-0.2c0.4,0,0.8,0.1,1.1,0.3c0.3,0.2,0.6,0.4,0.7,0.8c0.2,0.3,0.2,0.7,0.2,1.1h-0.6c0-0.5-0.1-0.9-0.3-1.2
			c-0.3-0.3-0.7-0.4-1.2-0.5c-0.5,0-1,0.1-1.3,0.4c-0.4,0.2-0.6,0.6-0.6,1c0,0.3,0.1,0.6,0.3,0.9c0.2,0.2,0.7,0.4,1.2,0.6
			c0.8,0.2,1.3,0.5,1.6,0.9c0.3,0.3,0.4,0.7,0.4,1.2c0,0.4-0.2,0.7-0.4,1c-0.2,0.3-0.6,0.5-1,0.7s-0.8,0.2-1.3,0.2
			c-0.5,0-0.9-0.1-1.2-0.3c-0.4-0.2-0.6-0.4-0.8-0.7c-0.2-0.3-0.3-0.7-0.2-1.1h0.6c0,0.5,0.1,0.9,0.4,1.2c0.3,0.3,0.7,0.4,1.3,0.4
			s1-0.1,1.4-0.4C222.1,399,222.3,398.6,222.4,398.2z"/>
		<path d="M230,392.9l-0.8,4.8c-0.1,0.7-0.4,1.3-0.9,1.8s-1.1,0.6-1.9,0.6c-0.5,0-0.9-0.1-1.2-0.3c-0.3-0.2-0.6-0.5-0.7-0.8
			c-0.2-0.4-0.2-0.8-0.1-1.2l0.8-4.8h0.6l-0.8,4.8c-0.1,0.5,0,1,0.3,1.3c0.3,0.3,0.7,0.5,1.2,0.5c0.5,0,1-0.1,1.4-0.5
			c0.4-0.3,0.6-0.8,0.8-1.3l0.8-4.9H230z"/>
		<path d="M233.5,397h-2l-0.5,3h-0.6l1.2-7.1l2.1,0c0.7,0,1.3,0.2,1.6,0.6c0.4,0.4,0.5,0.9,0.5,1.5c0,0.5-0.2,0.9-0.5,1.2
			c-0.3,0.3-0.7,0.6-1.2,0.8l1.2,3l0,0.1h-0.6L233.5,397z M231.6,396.5l1.8,0c0.5,0,0.9-0.1,1.3-0.4c0.4-0.3,0.6-0.7,0.6-1.2
			c0.1-0.5,0-0.8-0.3-1.1s-0.6-0.4-1.1-0.4l-1.7,0L231.6,396.5z"/>
		<path d="M239,400l1.2-7.1l1.9,0c0.5,0,1,0.1,1.4,0.4c0.4,0.3,0.7,0.7,0.9,1.2c0.2,0.5,0.2,1,0.2,1.6l-0.1,0.6
			c-0.2,1-0.5,1.8-1.2,2.4s-1.4,0.9-2.3,0.9H239z M240.8,393.4l-1.1,6.1l1.3,0c0.5,0,1-0.1,1.4-0.3s0.8-0.5,1-1
			c0.3-0.4,0.4-0.9,0.5-1.4c0.1-0.5,0.1-0.9,0.1-1.1c0-0.2,0-0.4,0-0.6c-0.1-0.5-0.3-0.9-0.6-1.2s-0.7-0.5-1.2-0.5L240.8,393.4z"/>
		<path d="M249.8,396.6h-3.2l-0.5,2.9h3.7l-0.1,0.5h-4.3l1.2-7.1h4.3l-0.1,0.5h-3.7l-0.5,2.7h3.2L249.8,396.6z"/>
		<path d="M258.6,397.8c-0.2,0.7-0.5,1.3-1,1.7c-0.5,0.4-1.1,0.6-1.9,0.6c-0.6,0-1.1-0.2-1.5-0.7c-0.4-0.4-0.6-1-0.6-1.8
			c0-0.3,0-0.5,0-0.8l0.1-0.9c0.1-0.7,0.3-1.2,0.6-1.7c0.3-0.5,0.7-0.9,1.1-1.1s0.9-0.4,1.4-0.4c0.7,0,1.2,0.2,1.6,0.6
			s0.6,1,0.6,1.7l-0.6,0c0-0.6-0.1-1-0.4-1.3c-0.3-0.3-0.7-0.5-1.2-0.5c-0.6,0-1.2,0.2-1.6,0.7c-0.5,0.5-0.7,1.2-0.9,2.1l-0.1,1
			l0,0.4c0,0.4,0,0.7,0.2,1.1c0.1,0.3,0.3,0.6,0.5,0.8s0.5,0.3,0.9,0.3c0.6,0,1-0.1,1.4-0.4c0.4-0.3,0.7-0.8,0.8-1.4L258.6,397.8z"
			/>
		<path d="M264.9,400h-0.6l0.6-3.4h-3.9l-0.6,3.4h-0.6l1.2-7.1h0.6l-0.6,3.2h3.9l0.6-3.2h0.6L264.9,400z"/>
		<path d="M267.4,400h-0.6l1.2-7.1h0.6L267.4,400z"/>
		<path d="M274.4,400h-0.6l-2.9-6.1l-1.1,6.1h-0.6l1.2-7.1h0.6l2.9,6.1l1.1-6.1h0.6L274.4,400z"/>
		<path d="M280.4,398h-3.1l-1.1,2h-0.6l3.8-7.1h0.6l1.4,7.1h-0.6L280.4,398z M277.5,397.5h2.7l-0.7-3.9L277.5,397.5z"/>
	</g>
</g>
</svg>
